ISO-10303-21;
HEADER;
/* Generated by software containing ST-Developer
 * from STEP Tools, Inc. (www.steptools.com) 
 */

FILE_DESCRIPTION(
/* description */ (''),
/* implementation_level */ '2;1');

FILE_NAME(
/* name */ 'Leg struts.step',
/* time_stamp */ '2026-03-25T17:51:31Z',
/* author */ (''),
/* organization */ (''),
/* preprocessor_version */ 'ST-DEVELOPER v20.1',
/* originating_system */ 'Autodesk Translation Framework v14.24.0.0',
/* authorisation */ '');

FILE_SCHEMA (('AUTOMOTIVE_DESIGN { 1 0 10303 214 3 1 1 }'));
ENDSEC;

DATA;
#10=MECHANICAL_DESIGN_GEOMETRIC_PRESENTATION_REPRESENTATION('',(#18,#19),
#2272);
#11=SHAPE_REPRESENTATION_RELATIONSHIP('SRR','None',#2279,#12);
#12=ADVANCED_BREP_SHAPE_REPRESENTATION('',(#20,#21),#2271);
#13=CYLINDRICAL_SURFACE('',#1512,2.5);
#14=FACE_BOUND('',#166,.T.);
#15=FACE_BOUND('',#173,.T.);
#16=CIRCLE('',#1510,2.5);
#17=CIRCLE('',#1513,2.5);
#18=STYLED_ITEM('',(#2288),#20);
#19=STYLED_ITEM('',(#2288),#21);
#20=MANIFOLD_SOLID_BREP('Body1',#1427);
#21=MANIFOLD_SOLID_BREP('Body5',#1428);
#22=FACE_OUTER_BOUND('',#98,.T.);
#23=FACE_OUTER_BOUND('',#99,.T.);
#24=FACE_OUTER_BOUND('',#100,.T.);
#25=FACE_OUTER_BOUND('',#101,.T.);
#26=FACE_OUTER_BOUND('',#102,.T.);
#27=FACE_OUTER_BOUND('',#103,.T.);
#28=FACE_OUTER_BOUND('',#104,.T.);
#29=FACE_OUTER_BOUND('',#105,.T.);
#30=FACE_OUTER_BOUND('',#106,.T.);
#31=FACE_OUTER_BOUND('',#107,.T.);
#32=FACE_OUTER_BOUND('',#108,.T.);
#33=FACE_OUTER_BOUND('',#109,.T.);
#34=FACE_OUTER_BOUND('',#110,.T.);
#35=FACE_OUTER_BOUND('',#111,.T.);
#36=FACE_OUTER_BOUND('',#112,.T.);
#37=FACE_OUTER_BOUND('',#113,.T.);
#38=FACE_OUTER_BOUND('',#114,.T.);
#39=FACE_OUTER_BOUND('',#115,.T.);
#40=FACE_OUTER_BOUND('',#116,.T.);
#41=FACE_OUTER_BOUND('',#117,.T.);
#42=FACE_OUTER_BOUND('',#118,.T.);
#43=FACE_OUTER_BOUND('',#119,.T.);
#44=FACE_OUTER_BOUND('',#120,.T.);
#45=FACE_OUTER_BOUND('',#121,.T.);
#46=FACE_OUTER_BOUND('',#122,.T.);
#47=FACE_OUTER_BOUND('',#123,.T.);
#48=FACE_OUTER_BOUND('',#124,.T.);
#49=FACE_OUTER_BOUND('',#125,.T.);
#50=FACE_OUTER_BOUND('',#126,.T.);
#51=FACE_OUTER_BOUND('',#127,.T.);
#52=FACE_OUTER_BOUND('',#128,.T.);
#53=FACE_OUTER_BOUND('',#129,.T.);
#54=FACE_OUTER_BOUND('',#130,.T.);
#55=FACE_OUTER_BOUND('',#131,.T.);
#56=FACE_OUTER_BOUND('',#132,.T.);
#57=FACE_OUTER_BOUND('',#133,.T.);
#58=FACE_OUTER_BOUND('',#134,.T.);
#59=FACE_OUTER_BOUND('',#135,.T.);
#60=FACE_OUTER_BOUND('',#136,.T.);
#61=FACE_OUTER_BOUND('',#137,.T.);
#62=FACE_OUTER_BOUND('',#138,.T.);
#63=FACE_OUTER_BOUND('',#139,.T.);
#64=FACE_OUTER_BOUND('',#140,.T.);
#65=FACE_OUTER_BOUND('',#141,.T.);
#66=FACE_OUTER_BOUND('',#142,.T.);
#67=FACE_OUTER_BOUND('',#143,.T.);
#68=FACE_OUTER_BOUND('',#144,.T.);
#69=FACE_OUTER_BOUND('',#145,.T.);
#70=FACE_OUTER_BOUND('',#146,.T.);
#71=FACE_OUTER_BOUND('',#147,.T.);
#72=FACE_OUTER_BOUND('',#148,.T.);
#73=FACE_OUTER_BOUND('',#149,.T.);
#74=FACE_OUTER_BOUND('',#150,.T.);
#75=FACE_OUTER_BOUND('',#151,.T.);
#76=FACE_OUTER_BOUND('',#152,.T.);
#77=FACE_OUTER_BOUND('',#153,.T.);
#78=FACE_OUTER_BOUND('',#154,.T.);
#79=FACE_OUTER_BOUND('',#155,.T.);
#80=FACE_OUTER_BOUND('',#156,.T.);
#81=FACE_OUTER_BOUND('',#157,.T.);
#82=FACE_OUTER_BOUND('',#158,.T.);
#83=FACE_OUTER_BOUND('',#159,.T.);
#84=FACE_OUTER_BOUND('',#160,.T.);
#85=FACE_OUTER_BOUND('',#161,.T.);
#86=FACE_OUTER_BOUND('',#162,.T.);
#87=FACE_OUTER_BOUND('',#163,.T.);
#88=FACE_OUTER_BOUND('',#164,.T.);
#89=FACE_OUTER_BOUND('',#165,.T.);
#90=FACE_OUTER_BOUND('',#167,.T.);
#91=FACE_OUTER_BOUND('',#168,.T.);
#92=FACE_OUTER_BOUND('',#169,.T.);
#93=FACE_OUTER_BOUND('',#170,.T.);
#94=FACE_OUTER_BOUND('',#171,.T.);
#95=FACE_OUTER_BOUND('',#172,.T.);
#96=FACE_OUTER_BOUND('',#174,.T.);
#97=FACE_OUTER_BOUND('',#175,.T.);
#98=EDGE_LOOP('',(#884,#885,#886,#887,#888));
#99=EDGE_LOOP('',(#889,#890,#891,#892,#893));
#100=EDGE_LOOP('',(#894,#895,#896,#897));
#101=EDGE_LOOP('',(#898,#899,#900,#901,#902));
#102=EDGE_LOOP('',(#903,#904,#905,#906,#907));
#103=EDGE_LOOP('',(#908,#909,#910,#911));
#104=EDGE_LOOP('',(#912,#913,#914,#915));
#105=EDGE_LOOP('',(#916,#917,#918,#919));
#106=EDGE_LOOP('',(#920,#921,#922,#923));
#107=EDGE_LOOP('',(#924,#925,#926,#927,#928,#929,#930,#931,#932,#933,#934,
#935,#936,#937,#938,#939,#940,#941,#942,#943));
#108=EDGE_LOOP('',(#944,#945,#946,#947));
#109=EDGE_LOOP('',(#948,#949,#950,#951));
#110=EDGE_LOOP('',(#952,#953,#954,#955));
#111=EDGE_LOOP('',(#956,#957,#958,#959));
#112=EDGE_LOOP('',(#960,#961,#962,#963,#964));
#113=EDGE_LOOP('',(#965,#966,#967,#968));
#114=EDGE_LOOP('',(#969,#970,#971,#972));
#115=EDGE_LOOP('',(#973,#974,#975,#976));
#116=EDGE_LOOP('',(#977,#978,#979,#980,#981));
#117=EDGE_LOOP('',(#982,#983,#984));
#118=EDGE_LOOP('',(#985,#986,#987));
#119=EDGE_LOOP('',(#988,#989,#990,#991));
#120=EDGE_LOOP('',(#992,#993,#994,#995));
#121=EDGE_LOOP('',(#996,#997,#998,#999));
#122=EDGE_LOOP('',(#1000,#1001,#1002,#1003));
#123=EDGE_LOOP('',(#1004,#1005,#1006,#1007,#1008,#1009,#1010,#1011,#1012,
#1013,#1014,#1015,#1016,#1017,#1018,#1019,#1020,#1021,#1022));
#124=EDGE_LOOP('',(#1023,#1024,#1025,#1026,#1027));
#125=EDGE_LOOP('',(#1028,#1029,#1030,#1031));
#126=EDGE_LOOP('',(#1032,#1033,#1034,#1035));
#127=EDGE_LOOP('',(#1036,#1037,#1038,#1039));
#128=EDGE_LOOP('',(#1040,#1041,#1042,#1043));
#129=EDGE_LOOP('',(#1044,#1045,#1046,#1047));
#130=EDGE_LOOP('',(#1048,#1049,#1050,#1051));
#131=EDGE_LOOP('',(#1052,#1053,#1054,#1055));
#132=EDGE_LOOP('',(#1056,#1057,#1058,#1059));
#133=EDGE_LOOP('',(#1060,#1061,#1062,#1063));
#134=EDGE_LOOP('',(#1064,#1065,#1066,#1067,#1068));
#135=EDGE_LOOP('',(#1069,#1070,#1071,#1072));
#136=EDGE_LOOP('',(#1073,#1074,#1075,#1076));
#137=EDGE_LOOP('',(#1077,#1078,#1079,#1080,#1081));
#138=EDGE_LOOP('',(#1082,#1083,#1084,#1085));
#139=EDGE_LOOP('',(#1086,#1087,#1088,#1089,#1090));
#140=EDGE_LOOP('',(#1091,#1092,#1093,#1094));
#141=EDGE_LOOP('',(#1095,#1096,#1097,#1098,#1099));
#142=EDGE_LOOP('',(#1100,#1101,#1102,#1103,#1104,#1105,#1106,#1107,#1108,
#1109,#1110,#1111,#1112,#1113,#1114,#1115,#1116,#1117,#1118,#1119,#1120,
#1121,#1122,#1123,#1124,#1125));
#143=EDGE_LOOP('',(#1126,#1127,#1128,#1129,#1130));
#144=EDGE_LOOP('',(#1131,#1132,#1133,#1134));
#145=EDGE_LOOP('',(#1135,#1136,#1137,#1138,#1139));
#146=EDGE_LOOP('',(#1140,#1141,#1142,#1143,#1144,#1145));
#147=EDGE_LOOP('',(#1146,#1147,#1148,#1149,#1150,#1151,#1152));
#148=EDGE_LOOP('',(#1153,#1154,#1155,#1156));
#149=EDGE_LOOP('',(#1157,#1158,#1159,#1160));
#150=EDGE_LOOP('',(#1161,#1162,#1163,#1164));
#151=EDGE_LOOP('',(#1165,#1166,#1167,#1168));
#152=EDGE_LOOP('',(#1169,#1170,#1171,#1172));
#153=EDGE_LOOP('',(#1173,#1174,#1175,#1176,#1177,#1178,#1179,#1180,#1181,
#1182,#1183));
#154=EDGE_LOOP('',(#1184,#1185,#1186,#1187));
#155=EDGE_LOOP('',(#1188,#1189,#1190));
#156=EDGE_LOOP('',(#1191,#1192,#1193,#1194));
#157=EDGE_LOOP('',(#1195,#1196,#1197));
#158=EDGE_LOOP('',(#1198,#1199,#1200,#1201));
#159=EDGE_LOOP('',(#1202,#1203,#1204,#1205));
#160=EDGE_LOOP('',(#1206,#1207,#1208,#1209));
#161=EDGE_LOOP('',(#1210,#1211,#1212,#1213,#1214,#1215,#1216,#1217));
#162=EDGE_LOOP('',(#1218,#1219,#1220,#1221));
#163=EDGE_LOOP('',(#1222,#1223,#1224,#1225));
#164=EDGE_LOOP('',(#1226,#1227,#1228,#1229));
#165=EDGE_LOOP('',(#1230,#1231,#1232,#1233));
#166=EDGE_LOOP('',(#1234));
#167=EDGE_LOOP('',(#1235,#1236,#1237,#1238));
#168=EDGE_LOOP('',(#1239,#1240,#1241,#1242));
#169=EDGE_LOOP('',(#1243,#1244,#1245,#1246));
#170=EDGE_LOOP('',(#1247,#1248,#1249,#1250,#1251,#1252,#1253,#1254));
#171=EDGE_LOOP('',(#1255,#1256,#1257,#1258));
#172=EDGE_LOOP('',(#1259,#1260,#1261,#1262));
#173=EDGE_LOOP('',(#1263));
#174=EDGE_LOOP('',(#1264,#1265,#1266,#1267));
#175=EDGE_LOOP('',(#1268,#1269,#1270,#1271,#1272,#1273,#1274,#1275));
#176=LINE('',#1876,#370);
#177=LINE('',#1878,#371);
#178=LINE('',#1880,#372);
#179=LINE('',#1882,#373);
#180=LINE('',#1883,#374);
#181=LINE('',#1887,#375);
#182=LINE('',#1889,#376);
#183=LINE('',#1891,#377);
#184=LINE('',#1893,#378);
#185=LINE('',#1894,#379);
#186=LINE('',#1896,#380);
#187=LINE('',#1897,#381);
#188=LINE('',#1901,#382);
#189=LINE('',#1903,#383);
#190=LINE('',#1905,#384);
#191=LINE('',#1907,#385);
#192=LINE('',#1908,#386);
#193=LINE('',#1912,#387);
#194=LINE('',#1914,#388);
#195=LINE('',#1916,#389);
#196=LINE('',#1918,#390);
#197=LINE('',#1919,#391);
#198=LINE('',#1921,#392);
#199=LINE('',#1922,#393);
#200=LINE('',#1925,#394);
#201=LINE('',#1927,#395);
#202=LINE('',#1928,#396);
#203=LINE('',#1931,#397);
#204=LINE('',#1933,#398);
#205=LINE('',#1934,#399);
#206=LINE('',#1937,#400);
#207=LINE('',#1938,#401);
#208=LINE('',#1941,#402);
#209=LINE('',#1943,#403);
#210=LINE('',#1945,#404);
#211=LINE('',#1946,#405);
#212=LINE('',#1948,#406);
#213=LINE('',#1950,#407);
#214=LINE('',#1952,#408);
#215=LINE('',#1954,#409);
#216=LINE('',#1956,#410);
#217=LINE('',#1958,#411);
#218=LINE('',#1960,#412);
#219=LINE('',#1961,#413);
#220=LINE('',#1964,#414);
#221=LINE('',#1965,#415);
#222=LINE('',#1968,#416);
#223=LINE('',#1969,#417);
#224=LINE('',#1972,#418);
#225=LINE('',#1973,#419);
#226=LINE('',#1976,#420);
#227=LINE('',#1978,#421);
#228=LINE('',#1979,#422);
#229=LINE('',#1982,#423);
#230=LINE('',#1983,#424);
#231=LINE('',#1986,#425);
#232=LINE('',#1988,#426);
#233=LINE('',#1989,#427);
#234=LINE('',#1991,#428);
#235=LINE('',#1994,#429);
#236=LINE('',#1995,#430);
#237=LINE('',#1998,#431);
#238=LINE('',#1999,#432);
#239=LINE('',#2002,#433);
#240=LINE('',#2004,#434);
#241=LINE('',#2005,#435);
#242=LINE('',#2008,#436);
#243=LINE('',#2009,#437);
#244=LINE('',#2012,#438);
#245=LINE('',#2014,#439);
#246=LINE('',#2016,#440);
#247=LINE('',#2017,#441);
#248=LINE('',#2019,#442);
#249=LINE('',#2021,#443);
#250=LINE('',#2022,#444);
#251=LINE('',#2024,#445);
#252=LINE('',#2027,#446);
#253=LINE('',#2029,#447);
#254=LINE('',#2030,#448);
#255=LINE('',#2032,#449);
#256=LINE('',#2034,#450);
#257=LINE('',#2035,#451);
#258=LINE('',#2038,#452);
#259=LINE('',#2040,#453);
#260=LINE('',#2043,#454);
#261=LINE('',#2045,#455);
#262=LINE('',#2050,#456);
#263=LINE('',#2052,#457);
#264=LINE('',#2054,#458);
#265=LINE('',#2055,#459);
#266=LINE('',#2058,#460);
#267=LINE('',#2060,#461);
#268=LINE('',#2061,#462);
#269=LINE('',#2064,#463);
#270=LINE('',#2066,#464);
#271=LINE('',#2067,#465);
#272=LINE('',#2071,#466);
#273=LINE('',#2073,#467);
#274=LINE('',#2075,#468);
#275=LINE('',#2076,#469);
#276=LINE('',#2079,#470);
#277=LINE('',#2081,#471);
#278=LINE('',#2082,#472);
#279=LINE('',#2085,#473);
#280=LINE('',#2087,#474);
#281=LINE('',#2088,#475);
#282=LINE('',#2091,#476);
#283=LINE('',#2092,#477);
#284=LINE('',#2095,#478);
#285=LINE('',#2096,#479);
#286=LINE('',#2099,#480);
#287=LINE('',#2100,#481);
#288=LINE('',#2103,#482);
#289=LINE('',#2104,#483);
#290=LINE('',#2107,#484);
#291=LINE('',#2109,#485);
#292=LINE('',#2111,#486);
#293=LINE('',#2113,#487);
#294=LINE('',#2114,#488);
#295=LINE('',#2116,#489);
#296=LINE('',#2118,#490);
#297=LINE('',#2120,#491);
#298=LINE('',#2122,#492);
#299=LINE('',#2124,#493);
#300=LINE('',#2126,#494);
#301=LINE('',#2128,#495);
#302=LINE('',#2130,#496);
#303=LINE('',#2132,#497);
#304=LINE('',#2134,#498);
#305=LINE('',#2136,#499);
#306=LINE('',#2138,#500);
#307=LINE('',#2140,#501);
#308=LINE('',#2142,#502);
#309=LINE('',#2143,#503);
#310=LINE('',#2146,#504);
#311=LINE('',#2148,#505);
#312=LINE('',#2150,#506);
#313=LINE('',#2151,#507);
#314=LINE('',#2154,#508);
#315=LINE('',#2155,#509);
#316=LINE('',#2158,#510);
#317=LINE('',#2160,#511);
#318=LINE('',#2161,#512);
#319=LINE('',#2164,#513);
#320=LINE('',#2166,#514);
#321=LINE('',#2168,#515);
#322=LINE('',#2169,#516);
#323=LINE('',#2172,#517);
#324=LINE('',#2174,#518);
#325=LINE('',#2175,#519);
#326=LINE('',#2177,#520);
#327=LINE('',#2178,#521);
#328=LINE('',#2181,#522);
#329=LINE('',#2182,#523);
#330=LINE('',#2186,#524);
#331=LINE('',#2187,#525);
#332=LINE('',#2188,#526);
#333=LINE('',#2190,#527);
#334=LINE('',#2193,#528);
#335=LINE('',#2195,#529);
#336=LINE('',#2196,#530);
#337=LINE('',#2199,#531);
#338=LINE('',#2200,#532);
#339=LINE('',#2202,#533);
#340=LINE('',#2204,#534);
#341=LINE('',#2206,#535);
#342=LINE('',#2208,#536);
#343=LINE('',#2209,#537);
#344=LINE('',#2213,#538);
#345=LINE('',#2215,#539);
#346=LINE('',#2216,#540);
#347=LINE('',#2218,#541);
#348=LINE('',#2221,#542);
#349=LINE('',#2223,#543);
#350=LINE('',#2224,#544);
#351=LINE('',#2226,#545);
#352=LINE('',#2229,#546);
#353=LINE('',#2230,#547);
#354=LINE('',#2232,#548);
#355=LINE('',#2235,#549);
#356=LINE('',#2237,#550);
#357=LINE('',#2239,#551);
#358=LINE('',#2241,#552);
#359=LINE('',#2242,#553);
#360=LINE('',#2244,#554);
#361=LINE('',#2246,#555);
#362=LINE('',#2248,#556);
#363=LINE('',#2250,#557);
#364=LINE('',#2257,#558);
#365=LINE('',#2259,#559);
#366=LINE('',#2261,#560);
#367=LINE('',#2263,#561);
#368=LINE('',#2265,#562);
#369=LINE('',#2267,#563);
#370=VECTOR('',#1524,10.);
#371=VECTOR('',#1525,10.);
#372=VECTOR('',#1526,10.);
#373=VECTOR('',#1527,10.);
#374=VECTOR('',#1528,10.);
#375=VECTOR('',#1531,10.);
#376=VECTOR('',#1532,10.);
#377=VECTOR('',#1533,10.);
#378=VECTOR('',#1534,10.);
#379=VECTOR('',#1535,10.);
#380=VECTOR('',#1538,10.);
#381=VECTOR('',#1539,10.);
#382=VECTOR('',#1542,10.);
#383=VECTOR('',#1543,10.);
#384=VECTOR('',#1544,10.);
#385=VECTOR('',#1545,10.);
#386=VECTOR('',#1546,10.);
#387=VECTOR('',#1549,10.);
#388=VECTOR('',#1550,10.);
#389=VECTOR('',#1551,10.);
#390=VECTOR('',#1552,10.);
#391=VECTOR('',#1553,10.);
#392=VECTOR('',#1556,10.);
#393=VECTOR('',#1557,10.);
#394=VECTOR('',#1560,10.);
#395=VECTOR('',#1561,10.);
#396=VECTOR('',#1562,10.);
#397=VECTOR('',#1565,10.);
#398=VECTOR('',#1566,10.);
#399=VECTOR('',#1567,10.);
#400=VECTOR('',#1570,10.);
#401=VECTOR('',#1571,10.);
#402=VECTOR('',#1574,10.);
#403=VECTOR('',#1575,10.);
#404=VECTOR('',#1576,10.);
#405=VECTOR('',#1577,10.);
#406=VECTOR('',#1578,10.);
#407=VECTOR('',#1579,10.);
#408=VECTOR('',#1580,10.);
#409=VECTOR('',#1581,10.);
#410=VECTOR('',#1582,10.);
#411=VECTOR('',#1583,10.);
#412=VECTOR('',#1584,10.);
#413=VECTOR('',#1585,10.);
#414=VECTOR('',#1588,10.);
#415=VECTOR('',#1589,10.);
#416=VECTOR('',#1592,10.);
#417=VECTOR('',#1593,10.);
#418=VECTOR('',#1596,10.);
#419=VECTOR('',#1597,10.);
#420=VECTOR('',#1600,10.);
#421=VECTOR('',#1601,10.);
#422=VECTOR('',#1602,10.);
#423=VECTOR('',#1605,10.);
#424=VECTOR('',#1606,10.);
#425=VECTOR('',#1609,10.);
#426=VECTOR('',#1610,10.);
#427=VECTOR('',#1611,10.);
#428=VECTOR('',#1614,10.);
#429=VECTOR('',#1617,10.);
#430=VECTOR('',#1618,10.);
#431=VECTOR('',#1621,10.);
#432=VECTOR('',#1622,10.);
#433=VECTOR('',#1625,10.);
#434=VECTOR('',#1626,10.);
#435=VECTOR('',#1627,10.);
#436=VECTOR('',#1630,10.);
#437=VECTOR('',#1631,10.);
#438=VECTOR('',#1634,10.);
#439=VECTOR('',#1635,10.);
#440=VECTOR('',#1636,10.);
#441=VECTOR('',#1637,10.);
#442=VECTOR('',#1640,10.);
#443=VECTOR('',#1643,10.);
#444=VECTOR('',#1644,10.);
#445=VECTOR('',#1647,10.);
#446=VECTOR('',#1650,10.);
#447=VECTOR('',#1651,10.);
#448=VECTOR('',#1652,10.);
#449=VECTOR('',#1655,10.);
#450=VECTOR('',#1656,10.);
#451=VECTOR('',#1657,10.);
#452=VECTOR('',#1662,10.);
#453=VECTOR('',#1665,10.);
#454=VECTOR('',#1670,10.);
#455=VECTOR('',#1673,10.);
#456=VECTOR('',#1678,10.);
#457=VECTOR('',#1679,10.);
#458=VECTOR('',#1680,10.);
#459=VECTOR('',#1681,10.);
#460=VECTOR('',#1684,10.);
#461=VECTOR('',#1685,10.);
#462=VECTOR('',#1686,10.);
#463=VECTOR('',#1689,10.);
#464=VECTOR('',#1690,10.);
#465=VECTOR('',#1691,10.);
#466=VECTOR('',#1694,10.);
#467=VECTOR('',#1695,10.);
#468=VECTOR('',#1696,10.);
#469=VECTOR('',#1697,10.);
#470=VECTOR('',#1700,10.);
#471=VECTOR('',#1701,10.);
#472=VECTOR('',#1702,10.);
#473=VECTOR('',#1705,10.);
#474=VECTOR('',#1706,10.);
#475=VECTOR('',#1707,10.);
#476=VECTOR('',#1710,10.);
#477=VECTOR('',#1711,10.);
#478=VECTOR('',#1714,10.);
#479=VECTOR('',#1715,10.);
#480=VECTOR('',#1718,10.);
#481=VECTOR('',#1719,10.);
#482=VECTOR('',#1722,10.);
#483=VECTOR('',#1723,10.);
#484=VECTOR('',#1726,10.);
#485=VECTOR('',#1727,10.);
#486=VECTOR('',#1728,10.);
#487=VECTOR('',#1729,10.);
#488=VECTOR('',#1730,10.);
#489=VECTOR('',#1731,10.);
#490=VECTOR('',#1732,10.);
#491=VECTOR('',#1733,10.);
#492=VECTOR('',#1734,10.);
#493=VECTOR('',#1735,10.);
#494=VECTOR('',#1736,10.);
#495=VECTOR('',#1737,10.);
#496=VECTOR('',#1738,10.);
#497=VECTOR('',#1739,10.);
#498=VECTOR('',#1740,10.);
#499=VECTOR('',#1741,10.);
#500=VECTOR('',#1742,10.);
#501=VECTOR('',#1743,10.);
#502=VECTOR('',#1744,10.);
#503=VECTOR('',#1745,10.);
#504=VECTOR('',#1748,10.);
#505=VECTOR('',#1749,10.);
#506=VECTOR('',#1750,10.);
#507=VECTOR('',#1751,10.);
#508=VECTOR('',#1754,10.);
#509=VECTOR('',#1755,10.);
#510=VECTOR('',#1758,10.);
#511=VECTOR('',#1759,10.);
#512=VECTOR('',#1760,10.);
#513=VECTOR('',#1763,10.);
#514=VECTOR('',#1764,10.);
#515=VECTOR('',#1765,10.);
#516=VECTOR('',#1766,10.);
#517=VECTOR('',#1769,10.);
#518=VECTOR('',#1770,10.);
#519=VECTOR('',#1771,10.);
#520=VECTOR('',#1772,10.);
#521=VECTOR('',#1773,10.);
#522=VECTOR('',#1776,10.);
#523=VECTOR('',#1777,10.);
#524=VECTOR('',#1780,10.);
#525=VECTOR('',#1781,10.);
#526=VECTOR('',#1782,10.);
#527=VECTOR('',#1785,10.);
#528=VECTOR('',#1788,10.);
#529=VECTOR('',#1789,10.);
#530=VECTOR('',#1790,10.);
#531=VECTOR('',#1793,10.);
#532=VECTOR('',#1794,10.);
#533=VECTOR('',#1797,10.);
#534=VECTOR('',#1798,10.);
#535=VECTOR('',#1799,10.);
#536=VECTOR('',#1800,10.);
#537=VECTOR('',#1801,10.);
#538=VECTOR('',#1806,10.);
#539=VECTOR('',#1807,10.);
#540=VECTOR('',#1808,10.);
#541=VECTOR('',#1811,10.);
#542=VECTOR('',#1814,10.);
#543=VECTOR('',#1815,10.);
#544=VECTOR('',#1816,10.);
#545=VECTOR('',#1819,10.);
#546=VECTOR('',#1822,10.);
#547=VECTOR('',#1823,10.);
#548=VECTOR('',#1826,10.);
#549=VECTOR('',#1829,10.);
#550=VECTOR('',#1830,10.);
#551=VECTOR('',#1831,10.);
#552=VECTOR('',#1832,10.);
#553=VECTOR('',#1833,10.);
#554=VECTOR('',#1836,10.);
#555=VECTOR('',#1839,10.);
#556=VECTOR('',#1842,10.);
#557=VECTOR('',#1845,10.);
#558=VECTOR('',#1854,2.5);
#559=VECTOR('',#1857,10.);
#560=VECTOR('',#1860,10.);
#561=VECTOR('',#1863,10.);
#562=VECTOR('',#1866,10.);
#563=VECTOR('',#1869,10.);
#564=VERTEX_POINT('',#1874);
#565=VERTEX_POINT('',#1875);
#566=VERTEX_POINT('',#1877);
#567=VERTEX_POINT('',#1879);
#568=VERTEX_POINT('',#1881);
#569=VERTEX_POINT('',#1885);
#570=VERTEX_POINT('',#1886);
#571=VERTEX_POINT('',#1888);
#572=VERTEX_POINT('',#1890);
#573=VERTEX_POINT('',#1892);
#574=VERTEX_POINT('',#1899);
#575=VERTEX_POINT('',#1900);
#576=VERTEX_POINT('',#1902);
#577=VERTEX_POINT('',#1904);
#578=VERTEX_POINT('',#1906);
#579=VERTEX_POINT('',#1910);
#580=VERTEX_POINT('',#1911);
#581=VERTEX_POINT('',#1913);
#582=VERTEX_POINT('',#1915);
#583=VERTEX_POINT('',#1917);
#584=VERTEX_POINT('',#1924);
#585=VERTEX_POINT('',#1926);
#586=VERTEX_POINT('',#1930);
#587=VERTEX_POINT('',#1932);
#588=VERTEX_POINT('',#1936);
#589=VERTEX_POINT('',#1940);
#590=VERTEX_POINT('',#1942);
#591=VERTEX_POINT('',#1944);
#592=VERTEX_POINT('',#1947);
#593=VERTEX_POINT('',#1949);
#594=VERTEX_POINT('',#1951);
#595=VERTEX_POINT('',#1953);
#596=VERTEX_POINT('',#1955);
#597=VERTEX_POINT('',#1957);
#598=VERTEX_POINT('',#1959);
#599=VERTEX_POINT('',#1963);
#600=VERTEX_POINT('',#1967);
#601=VERTEX_POINT('',#1971);
#602=VERTEX_POINT('',#1975);
#603=VERTEX_POINT('',#1977);
#604=VERTEX_POINT('',#1981);
#605=VERTEX_POINT('',#1985);
#606=VERTEX_POINT('',#1987);
#607=VERTEX_POINT('',#1993);
#608=VERTEX_POINT('',#1997);
#609=VERTEX_POINT('',#2001);
#610=VERTEX_POINT('',#2003);
#611=VERTEX_POINT('',#2007);
#612=VERTEX_POINT('',#2011);
#613=VERTEX_POINT('',#2013);
#614=VERTEX_POINT('',#2015);
#615=VERTEX_POINT('',#2026);
#616=VERTEX_POINT('',#2028);
#617=VERTEX_POINT('',#2033);
#618=VERTEX_POINT('',#2048);
#619=VERTEX_POINT('',#2049);
#620=VERTEX_POINT('',#2051);
#621=VERTEX_POINT('',#2053);
#622=VERTEX_POINT('',#2057);
#623=VERTEX_POINT('',#2059);
#624=VERTEX_POINT('',#2063);
#625=VERTEX_POINT('',#2065);
#626=VERTEX_POINT('',#2069);
#627=VERTEX_POINT('',#2070);
#628=VERTEX_POINT('',#2072);
#629=VERTEX_POINT('',#2074);
#630=VERTEX_POINT('',#2078);
#631=VERTEX_POINT('',#2080);
#632=VERTEX_POINT('',#2084);
#633=VERTEX_POINT('',#2086);
#634=VERTEX_POINT('',#2090);
#635=VERTEX_POINT('',#2094);
#636=VERTEX_POINT('',#2098);
#637=VERTEX_POINT('',#2102);
#638=VERTEX_POINT('',#2106);
#639=VERTEX_POINT('',#2108);
#640=VERTEX_POINT('',#2110);
#641=VERTEX_POINT('',#2112);
#642=VERTEX_POINT('',#2115);
#643=VERTEX_POINT('',#2117);
#644=VERTEX_POINT('',#2119);
#645=VERTEX_POINT('',#2121);
#646=VERTEX_POINT('',#2123);
#647=VERTEX_POINT('',#2125);
#648=VERTEX_POINT('',#2127);
#649=VERTEX_POINT('',#2129);
#650=VERTEX_POINT('',#2131);
#651=VERTEX_POINT('',#2133);
#652=VERTEX_POINT('',#2135);
#653=VERTEX_POINT('',#2137);
#654=VERTEX_POINT('',#2139);
#655=VERTEX_POINT('',#2141);
#656=VERTEX_POINT('',#2145);
#657=VERTEX_POINT('',#2147);
#658=VERTEX_POINT('',#2149);
#659=VERTEX_POINT('',#2153);
#660=VERTEX_POINT('',#2157);
#661=VERTEX_POINT('',#2159);
#662=VERTEX_POINT('',#2163);
#663=VERTEX_POINT('',#2165);
#664=VERTEX_POINT('',#2167);
#665=VERTEX_POINT('',#2171);
#666=VERTEX_POINT('',#2173);
#667=VERTEX_POINT('',#2176);
#668=VERTEX_POINT('',#2180);
#669=VERTEX_POINT('',#2184);
#670=VERTEX_POINT('',#2185);
#671=VERTEX_POINT('',#2192);
#672=VERTEX_POINT('',#2194);
#673=VERTEX_POINT('',#2198);
#674=VERTEX_POINT('',#2203);
#675=VERTEX_POINT('',#2205);
#676=VERTEX_POINT('',#2207);
#677=VERTEX_POINT('',#2212);
#678=VERTEX_POINT('',#2214);
#679=VERTEX_POINT('',#2220);
#680=VERTEX_POINT('',#2222);
#681=VERTEX_POINT('',#2228);
#682=VERTEX_POINT('',#2234);
#683=VERTEX_POINT('',#2236);
#684=VERTEX_POINT('',#2238);
#685=VERTEX_POINT('',#2240);
#686=VERTEX_POINT('',#2251);
#687=VERTEX_POINT('',#2255);
#688=EDGE_CURVE('',#564,#565,#176,.T.);
#689=EDGE_CURVE('',#566,#564,#177,.T.);
#690=EDGE_CURVE('',#567,#566,#178,.T.);
#691=EDGE_CURVE('',#568,#567,#179,.T.);
#692=EDGE_CURVE('',#565,#568,#180,.T.);
#693=EDGE_CURVE('',#569,#570,#181,.T.);
#694=EDGE_CURVE('',#571,#569,#182,.T.);
#695=EDGE_CURVE('',#572,#571,#183,.T.);
#696=EDGE_CURVE('',#572,#573,#184,.T.);
#697=EDGE_CURVE('',#570,#573,#185,.T.);
#698=EDGE_CURVE('',#567,#572,#186,.T.);
#699=EDGE_CURVE('',#573,#566,#187,.T.);
#700=EDGE_CURVE('',#574,#575,#188,.T.);
#701=EDGE_CURVE('',#576,#574,#189,.T.);
#702=EDGE_CURVE('',#577,#576,#190,.T.);
#703=EDGE_CURVE('',#578,#577,#191,.T.);
#704=EDGE_CURVE('',#575,#578,#192,.T.);
#705=EDGE_CURVE('',#579,#580,#193,.T.);
#706=EDGE_CURVE('',#581,#579,#194,.T.);
#707=EDGE_CURVE('',#582,#581,#195,.T.);
#708=EDGE_CURVE('',#582,#583,#196,.T.);
#709=EDGE_CURVE('',#580,#583,#197,.T.);
#710=EDGE_CURVE('',#577,#582,#198,.T.);
#711=EDGE_CURVE('',#583,#576,#199,.T.);
#712=EDGE_CURVE('',#584,#565,#200,.T.);
#713=EDGE_CURVE('',#585,#584,#201,.T.);
#714=EDGE_CURVE('',#564,#585,#202,.T.);
#715=EDGE_CURVE('',#586,#570,#203,.T.);
#716=EDGE_CURVE('',#587,#586,#204,.T.);
#717=EDGE_CURVE('',#569,#587,#205,.T.);
#718=EDGE_CURVE('',#568,#588,#206,.T.);
#719=EDGE_CURVE('',#588,#584,#207,.T.);
#720=EDGE_CURVE('',#585,#589,#208,.T.);
#721=EDGE_CURVE('',#589,#590,#209,.T.);
#722=EDGE_CURVE('',#590,#591,#210,.T.);
#723=EDGE_CURVE('',#591,#580,#211,.T.);
#724=EDGE_CURVE('',#574,#592,#212,.T.);
#725=EDGE_CURVE('',#592,#593,#213,.T.);
#726=EDGE_CURVE('',#593,#594,#214,.T.);
#727=EDGE_CURVE('',#594,#595,#215,.T.);
#728=EDGE_CURVE('',#595,#596,#216,.T.);
#729=EDGE_CURVE('',#596,#597,#217,.T.);
#730=EDGE_CURVE('',#597,#598,#218,.T.);
#731=EDGE_CURVE('',#598,#586,#219,.T.);
#732=EDGE_CURVE('',#599,#575,#220,.T.);
#733=EDGE_CURVE('',#599,#592,#221,.T.);
#734=EDGE_CURVE('',#600,#591,#222,.T.);
#735=EDGE_CURVE('',#579,#600,#223,.T.);
#736=EDGE_CURVE('',#578,#601,#224,.T.);
#737=EDGE_CURVE('',#599,#601,#225,.T.);
#738=EDGE_CURVE('',#602,#593,#226,.T.);
#739=EDGE_CURVE('',#603,#602,#227,.T.);
#740=EDGE_CURVE('',#594,#603,#228,.T.);
#741=EDGE_CURVE('',#604,#599,#229,.T.);
#742=EDGE_CURVE('',#604,#602,#230,.T.);
#743=EDGE_CURVE('',#605,#604,#231,.T.);
#744=EDGE_CURVE('',#606,#605,#232,.T.);
#745=EDGE_CURVE('',#602,#606,#233,.T.);
#746=EDGE_CURVE('',#601,#605,#234,.T.);
#747=EDGE_CURVE('',#607,#603,#235,.T.);
#748=EDGE_CURVE('',#607,#606,#236,.T.);
#749=EDGE_CURVE('',#607,#608,#237,.T.);
#750=EDGE_CURVE('',#608,#595,#238,.T.);
#751=EDGE_CURVE('',#609,#600,#239,.T.);
#752=EDGE_CURVE('',#610,#609,#240,.T.);
#753=EDGE_CURVE('',#600,#610,#241,.T.);
#754=EDGE_CURVE('',#584,#611,#242,.T.);
#755=EDGE_CURVE('',#611,#588,#243,.T.);
#756=EDGE_CURVE('',#587,#612,#244,.T.);
#757=EDGE_CURVE('',#612,#613,#245,.T.);
#758=EDGE_CURVE('',#613,#614,#246,.T.);
#759=EDGE_CURVE('',#614,#587,#247,.T.);
#760=EDGE_CURVE('',#614,#571,#248,.T.);
#761=EDGE_CURVE('',#588,#610,#249,.T.);
#762=EDGE_CURVE('',#609,#611,#250,.T.);
#763=EDGE_CURVE('',#610,#581,#251,.T.);
#764=EDGE_CURVE('',#613,#615,#252,.T.);
#765=EDGE_CURVE('',#616,#615,#253,.T.);
#766=EDGE_CURVE('',#616,#608,#254,.T.);
#767=EDGE_CURVE('',#616,#596,#255,.T.);
#768=EDGE_CURVE('',#615,#617,#256,.T.);
#769=EDGE_CURVE('',#617,#597,#257,.T.);
#770=EDGE_CURVE('',#612,#617,#258,.T.);
#771=EDGE_CURVE('',#612,#598,#259,.T.);
#772=EDGE_CURVE('',#611,#589,#260,.T.);
#773=EDGE_CURVE('',#590,#609,#261,.T.);
#774=EDGE_CURVE('',#618,#619,#262,.T.);
#775=EDGE_CURVE('',#619,#620,#263,.T.);
#776=EDGE_CURVE('',#620,#621,#264,.T.);
#777=EDGE_CURVE('',#621,#618,#265,.T.);
#778=EDGE_CURVE('',#621,#622,#266,.T.);
#779=EDGE_CURVE('',#622,#623,#267,.T.);
#780=EDGE_CURVE('',#623,#618,#268,.T.);
#781=EDGE_CURVE('',#620,#624,#269,.T.);
#782=EDGE_CURVE('',#625,#624,#270,.T.);
#783=EDGE_CURVE('',#622,#625,#271,.T.);
#784=EDGE_CURVE('',#626,#627,#272,.T.);
#785=EDGE_CURVE('',#627,#628,#273,.T.);
#786=EDGE_CURVE('',#628,#629,#274,.T.);
#787=EDGE_CURVE('',#629,#626,#275,.T.);
#788=EDGE_CURVE('',#629,#630,#276,.T.);
#789=EDGE_CURVE('',#630,#631,#277,.T.);
#790=EDGE_CURVE('',#631,#626,#278,.T.);
#791=EDGE_CURVE('',#628,#632,#279,.T.);
#792=EDGE_CURVE('',#633,#632,#280,.T.);
#793=EDGE_CURVE('',#630,#633,#281,.T.);
#794=EDGE_CURVE('',#634,#633,#282,.T.);
#795=EDGE_CURVE('',#631,#634,#283,.T.);
#796=EDGE_CURVE('',#635,#634,#284,.T.);
#797=EDGE_CURVE('',#627,#635,#285,.T.);
#798=EDGE_CURVE('',#636,#625,#286,.T.);
#799=EDGE_CURVE('',#623,#636,#287,.T.);
#800=EDGE_CURVE('',#637,#636,#288,.T.);
#801=EDGE_CURVE('',#619,#637,#289,.T.);
#802=EDGE_CURVE('',#638,#632,#290,.T.);
#803=EDGE_CURVE('',#639,#638,#291,.T.);
#804=EDGE_CURVE('',#640,#639,#292,.T.);
#805=EDGE_CURVE('',#641,#640,#293,.T.);
#806=EDGE_CURVE('',#637,#641,#294,.T.);
#807=EDGE_CURVE('',#642,#624,#295,.T.);
#808=EDGE_CURVE('',#643,#642,#296,.T.);
#809=EDGE_CURVE('',#644,#643,#297,.T.);
#810=EDGE_CURVE('',#645,#644,#298,.T.);
#811=EDGE_CURVE('',#646,#645,#299,.T.);
#812=EDGE_CURVE('',#646,#647,#300,.T.);
#813=EDGE_CURVE('',#647,#648,#301,.T.);
#814=EDGE_CURVE('',#648,#649,#302,.T.);
#815=EDGE_CURVE('',#649,#650,#303,.T.);
#816=EDGE_CURVE('',#650,#651,#304,.T.);
#817=EDGE_CURVE('',#652,#651,#305,.T.);
#818=EDGE_CURVE('',#653,#652,#306,.T.);
#819=EDGE_CURVE('',#654,#653,#307,.T.);
#820=EDGE_CURVE('',#655,#654,#308,.T.);
#821=EDGE_CURVE('',#635,#655,#309,.T.);
#822=EDGE_CURVE('',#654,#656,#310,.T.);
#823=EDGE_CURVE('',#656,#657,#311,.T.);
#824=EDGE_CURVE('',#658,#657,#312,.T.);
#825=EDGE_CURVE('',#655,#658,#313,.T.);
#826=EDGE_CURVE('',#659,#653,#314,.T.);
#827=EDGE_CURVE('',#656,#659,#315,.T.);
#828=EDGE_CURVE('',#652,#660,#316,.T.);
#829=EDGE_CURVE('',#660,#661,#317,.T.);
#830=EDGE_CURVE('',#659,#661,#318,.T.);
#831=EDGE_CURVE('',#651,#662,#319,.T.);
#832=EDGE_CURVE('',#662,#663,#320,.T.);
#833=EDGE_CURVE('',#663,#664,#321,.T.);
#834=EDGE_CURVE('',#664,#660,#322,.T.);
#835=EDGE_CURVE('',#644,#665,#323,.T.);
#836=EDGE_CURVE('',#665,#666,#324,.T.);
#837=EDGE_CURVE('',#666,#664,#325,.T.);
#838=EDGE_CURVE('',#663,#667,#326,.T.);
#839=EDGE_CURVE('',#667,#645,#327,.T.);
#840=EDGE_CURVE('',#668,#646,#328,.T.);
#841=EDGE_CURVE('',#668,#667,#329,.T.);
#842=EDGE_CURVE('',#669,#670,#330,.T.);
#843=EDGE_CURVE('',#669,#666,#331,.T.);
#844=EDGE_CURVE('',#670,#665,#332,.T.);
#845=EDGE_CURVE('',#643,#670,#333,.T.);
#846=EDGE_CURVE('',#657,#671,#334,.T.);
#847=EDGE_CURVE('',#672,#656,#335,.T.);
#848=EDGE_CURVE('',#671,#672,#336,.T.);
#849=EDGE_CURVE('',#671,#673,#337,.T.);
#850=EDGE_CURVE('',#673,#658,#338,.T.);
#851=EDGE_CURVE('',#672,#661,#339,.T.);
#852=EDGE_CURVE('',#674,#669,#340,.T.);
#853=EDGE_CURVE('',#675,#674,#341,.T.);
#854=EDGE_CURVE('',#676,#675,#342,.T.);
#855=EDGE_CURVE('',#673,#676,#343,.T.);
#856=EDGE_CURVE('',#677,#676,#344,.T.);
#857=EDGE_CURVE('',#678,#677,#345,.T.);
#858=EDGE_CURVE('',#676,#678,#346,.T.);
#859=EDGE_CURVE('',#678,#658,#347,.T.);
#860=EDGE_CURVE('',#679,#675,#348,.T.);
#861=EDGE_CURVE('',#680,#679,#349,.T.);
#862=EDGE_CURVE('',#675,#680,#350,.T.);
#863=EDGE_CURVE('',#680,#677,#351,.T.);
#864=EDGE_CURVE('',#681,#679,#352,.T.);
#865=EDGE_CURVE('',#674,#681,#353,.T.);
#866=EDGE_CURVE('',#670,#681,#354,.T.);
#867=EDGE_CURVE('',#682,#662,#355,.F.);
#868=EDGE_CURVE('',#683,#682,#356,.F.);
#869=EDGE_CURVE('',#684,#683,#357,.F.);
#870=EDGE_CURVE('',#685,#684,#358,.F.);
#871=EDGE_CURVE('',#668,#685,#359,.F.);
#872=EDGE_CURVE('',#650,#682,#360,.T.);
#873=EDGE_CURVE('',#647,#685,#361,.T.);
#874=EDGE_CURVE('',#648,#684,#362,.F.);
#875=EDGE_CURVE('',#649,#683,#363,.F.);
#876=EDGE_CURVE('',#686,#686,#16,.T.);
#877=EDGE_CURVE('',#687,#687,#17,.T.);
#878=EDGE_CURVE('',#687,#686,#364,.T.);
#879=EDGE_CURVE('',#642,#681,#365,.T.);
#880=EDGE_CURVE('',#679,#641,#366,.T.);
#881=EDGE_CURVE('',#640,#680,#367,.T.);
#882=EDGE_CURVE('',#677,#639,#368,.T.);
#883=EDGE_CURVE('',#638,#678,#369,.T.);
#884=ORIENTED_EDGE('',*,*,#688,.F.);
#885=ORIENTED_EDGE('',*,*,#689,.F.);
#886=ORIENTED_EDGE('',*,*,#690,.F.);
#887=ORIENTED_EDGE('',*,*,#691,.F.);
#888=ORIENTED_EDGE('',*,*,#692,.F.);
#889=ORIENTED_EDGE('',*,*,#693,.F.);
#890=ORIENTED_EDGE('',*,*,#694,.F.);
#891=ORIENTED_EDGE('',*,*,#695,.F.);
#892=ORIENTED_EDGE('',*,*,#696,.T.);
#893=ORIENTED_EDGE('',*,*,#697,.F.);
#894=ORIENTED_EDGE('',*,*,#698,.F.);
#895=ORIENTED_EDGE('',*,*,#690,.T.);
#896=ORIENTED_EDGE('',*,*,#699,.F.);
#897=ORIENTED_EDGE('',*,*,#696,.F.);
#898=ORIENTED_EDGE('',*,*,#700,.F.);
#899=ORIENTED_EDGE('',*,*,#701,.F.);
#900=ORIENTED_EDGE('',*,*,#702,.F.);
#901=ORIENTED_EDGE('',*,*,#703,.F.);
#902=ORIENTED_EDGE('',*,*,#704,.F.);
#903=ORIENTED_EDGE('',*,*,#705,.F.);
#904=ORIENTED_EDGE('',*,*,#706,.F.);
#905=ORIENTED_EDGE('',*,*,#707,.F.);
#906=ORIENTED_EDGE('',*,*,#708,.T.);
#907=ORIENTED_EDGE('',*,*,#709,.F.);
#908=ORIENTED_EDGE('',*,*,#710,.F.);
#909=ORIENTED_EDGE('',*,*,#702,.T.);
#910=ORIENTED_EDGE('',*,*,#711,.F.);
#911=ORIENTED_EDGE('',*,*,#708,.F.);
#912=ORIENTED_EDGE('',*,*,#688,.T.);
#913=ORIENTED_EDGE('',*,*,#712,.F.);
#914=ORIENTED_EDGE('',*,*,#713,.F.);
#915=ORIENTED_EDGE('',*,*,#714,.F.);
#916=ORIENTED_EDGE('',*,*,#693,.T.);
#917=ORIENTED_EDGE('',*,*,#715,.F.);
#918=ORIENTED_EDGE('',*,*,#716,.F.);
#919=ORIENTED_EDGE('',*,*,#717,.F.);
#920=ORIENTED_EDGE('',*,*,#692,.T.);
#921=ORIENTED_EDGE('',*,*,#718,.T.);
#922=ORIENTED_EDGE('',*,*,#719,.T.);
#923=ORIENTED_EDGE('',*,*,#712,.T.);
#924=ORIENTED_EDGE('',*,*,#697,.T.);
#925=ORIENTED_EDGE('',*,*,#699,.T.);
#926=ORIENTED_EDGE('',*,*,#689,.T.);
#927=ORIENTED_EDGE('',*,*,#714,.T.);
#928=ORIENTED_EDGE('',*,*,#720,.T.);
#929=ORIENTED_EDGE('',*,*,#721,.T.);
#930=ORIENTED_EDGE('',*,*,#722,.T.);
#931=ORIENTED_EDGE('',*,*,#723,.T.);
#932=ORIENTED_EDGE('',*,*,#709,.T.);
#933=ORIENTED_EDGE('',*,*,#711,.T.);
#934=ORIENTED_EDGE('',*,*,#701,.T.);
#935=ORIENTED_EDGE('',*,*,#724,.T.);
#936=ORIENTED_EDGE('',*,*,#725,.T.);
#937=ORIENTED_EDGE('',*,*,#726,.T.);
#938=ORIENTED_EDGE('',*,*,#727,.T.);
#939=ORIENTED_EDGE('',*,*,#728,.T.);
#940=ORIENTED_EDGE('',*,*,#729,.T.);
#941=ORIENTED_EDGE('',*,*,#730,.T.);
#942=ORIENTED_EDGE('',*,*,#731,.T.);
#943=ORIENTED_EDGE('',*,*,#715,.T.);
#944=ORIENTED_EDGE('',*,*,#700,.T.);
#945=ORIENTED_EDGE('',*,*,#732,.F.);
#946=ORIENTED_EDGE('',*,*,#733,.T.);
#947=ORIENTED_EDGE('',*,*,#724,.F.);
#948=ORIENTED_EDGE('',*,*,#705,.T.);
#949=ORIENTED_EDGE('',*,*,#723,.F.);
#950=ORIENTED_EDGE('',*,*,#734,.F.);
#951=ORIENTED_EDGE('',*,*,#735,.F.);
#952=ORIENTED_EDGE('',*,*,#704,.T.);
#953=ORIENTED_EDGE('',*,*,#736,.T.);
#954=ORIENTED_EDGE('',*,*,#737,.F.);
#955=ORIENTED_EDGE('',*,*,#732,.T.);
#956=ORIENTED_EDGE('',*,*,#726,.F.);
#957=ORIENTED_EDGE('',*,*,#738,.F.);
#958=ORIENTED_EDGE('',*,*,#739,.F.);
#959=ORIENTED_EDGE('',*,*,#740,.F.);
#960=ORIENTED_EDGE('',*,*,#725,.F.);
#961=ORIENTED_EDGE('',*,*,#733,.F.);
#962=ORIENTED_EDGE('',*,*,#741,.F.);
#963=ORIENTED_EDGE('',*,*,#742,.T.);
#964=ORIENTED_EDGE('',*,*,#738,.T.);
#965=ORIENTED_EDGE('',*,*,#743,.F.);
#966=ORIENTED_EDGE('',*,*,#744,.F.);
#967=ORIENTED_EDGE('',*,*,#745,.F.);
#968=ORIENTED_EDGE('',*,*,#742,.F.);
#969=ORIENTED_EDGE('',*,*,#743,.T.);
#970=ORIENTED_EDGE('',*,*,#741,.T.);
#971=ORIENTED_EDGE('',*,*,#737,.T.);
#972=ORIENTED_EDGE('',*,*,#746,.T.);
#973=ORIENTED_EDGE('',*,*,#747,.T.);
#974=ORIENTED_EDGE('',*,*,#739,.T.);
#975=ORIENTED_EDGE('',*,*,#745,.T.);
#976=ORIENTED_EDGE('',*,*,#748,.F.);
#977=ORIENTED_EDGE('',*,*,#727,.F.);
#978=ORIENTED_EDGE('',*,*,#740,.T.);
#979=ORIENTED_EDGE('',*,*,#747,.F.);
#980=ORIENTED_EDGE('',*,*,#749,.T.);
#981=ORIENTED_EDGE('',*,*,#750,.T.);
#982=ORIENTED_EDGE('',*,*,#751,.F.);
#983=ORIENTED_EDGE('',*,*,#752,.F.);
#984=ORIENTED_EDGE('',*,*,#753,.F.);
#985=ORIENTED_EDGE('',*,*,#754,.F.);
#986=ORIENTED_EDGE('',*,*,#719,.F.);
#987=ORIENTED_EDGE('',*,*,#755,.F.);
#988=ORIENTED_EDGE('',*,*,#756,.T.);
#989=ORIENTED_EDGE('',*,*,#757,.T.);
#990=ORIENTED_EDGE('',*,*,#758,.T.);
#991=ORIENTED_EDGE('',*,*,#759,.T.);
#992=ORIENTED_EDGE('',*,*,#694,.T.);
#993=ORIENTED_EDGE('',*,*,#717,.T.);
#994=ORIENTED_EDGE('',*,*,#759,.F.);
#995=ORIENTED_EDGE('',*,*,#760,.T.);
#996=ORIENTED_EDGE('',*,*,#755,.T.);
#997=ORIENTED_EDGE('',*,*,#761,.T.);
#998=ORIENTED_EDGE('',*,*,#752,.T.);
#999=ORIENTED_EDGE('',*,*,#762,.T.);
#1000=ORIENTED_EDGE('',*,*,#706,.T.);
#1001=ORIENTED_EDGE('',*,*,#735,.T.);
#1002=ORIENTED_EDGE('',*,*,#753,.T.);
#1003=ORIENTED_EDGE('',*,*,#763,.T.);
#1004=ORIENTED_EDGE('',*,*,#695,.T.);
#1005=ORIENTED_EDGE('',*,*,#760,.F.);
#1006=ORIENTED_EDGE('',*,*,#758,.F.);
#1007=ORIENTED_EDGE('',*,*,#764,.T.);
#1008=ORIENTED_EDGE('',*,*,#765,.F.);
#1009=ORIENTED_EDGE('',*,*,#766,.T.);
#1010=ORIENTED_EDGE('',*,*,#749,.F.);
#1011=ORIENTED_EDGE('',*,*,#748,.T.);
#1012=ORIENTED_EDGE('',*,*,#744,.T.);
#1013=ORIENTED_EDGE('',*,*,#746,.F.);
#1014=ORIENTED_EDGE('',*,*,#736,.F.);
#1015=ORIENTED_EDGE('',*,*,#703,.T.);
#1016=ORIENTED_EDGE('',*,*,#710,.T.);
#1017=ORIENTED_EDGE('',*,*,#707,.T.);
#1018=ORIENTED_EDGE('',*,*,#763,.F.);
#1019=ORIENTED_EDGE('',*,*,#761,.F.);
#1020=ORIENTED_EDGE('',*,*,#718,.F.);
#1021=ORIENTED_EDGE('',*,*,#691,.T.);
#1022=ORIENTED_EDGE('',*,*,#698,.T.);
#1023=ORIENTED_EDGE('',*,*,#729,.F.);
#1024=ORIENTED_EDGE('',*,*,#767,.F.);
#1025=ORIENTED_EDGE('',*,*,#765,.T.);
#1026=ORIENTED_EDGE('',*,*,#768,.T.);
#1027=ORIENTED_EDGE('',*,*,#769,.T.);
#1028=ORIENTED_EDGE('',*,*,#728,.F.);
#1029=ORIENTED_EDGE('',*,*,#750,.F.);
#1030=ORIENTED_EDGE('',*,*,#766,.F.);
#1031=ORIENTED_EDGE('',*,*,#767,.T.);
#1032=ORIENTED_EDGE('',*,*,#757,.F.);
#1033=ORIENTED_EDGE('',*,*,#770,.T.);
#1034=ORIENTED_EDGE('',*,*,#768,.F.);
#1035=ORIENTED_EDGE('',*,*,#764,.F.);
#1036=ORIENTED_EDGE('',*,*,#730,.F.);
#1037=ORIENTED_EDGE('',*,*,#769,.F.);
#1038=ORIENTED_EDGE('',*,*,#770,.F.);
#1039=ORIENTED_EDGE('',*,*,#771,.T.);
#1040=ORIENTED_EDGE('',*,*,#731,.F.);
#1041=ORIENTED_EDGE('',*,*,#771,.F.);
#1042=ORIENTED_EDGE('',*,*,#756,.F.);
#1043=ORIENTED_EDGE('',*,*,#716,.T.);
#1044=ORIENTED_EDGE('',*,*,#720,.F.);
#1045=ORIENTED_EDGE('',*,*,#713,.T.);
#1046=ORIENTED_EDGE('',*,*,#754,.T.);
#1047=ORIENTED_EDGE('',*,*,#772,.T.);
#1048=ORIENTED_EDGE('',*,*,#721,.F.);
#1049=ORIENTED_EDGE('',*,*,#772,.F.);
#1050=ORIENTED_EDGE('',*,*,#762,.F.);
#1051=ORIENTED_EDGE('',*,*,#773,.F.);
#1052=ORIENTED_EDGE('',*,*,#722,.F.);
#1053=ORIENTED_EDGE('',*,*,#773,.T.);
#1054=ORIENTED_EDGE('',*,*,#751,.T.);
#1055=ORIENTED_EDGE('',*,*,#734,.T.);
#1056=ORIENTED_EDGE('',*,*,#774,.T.);
#1057=ORIENTED_EDGE('',*,*,#775,.T.);
#1058=ORIENTED_EDGE('',*,*,#776,.T.);
#1059=ORIENTED_EDGE('',*,*,#777,.T.);
#1060=ORIENTED_EDGE('',*,*,#777,.F.);
#1061=ORIENTED_EDGE('',*,*,#778,.T.);
#1062=ORIENTED_EDGE('',*,*,#779,.T.);
#1063=ORIENTED_EDGE('',*,*,#780,.T.);
#1064=ORIENTED_EDGE('',*,*,#776,.F.);
#1065=ORIENTED_EDGE('',*,*,#781,.T.);
#1066=ORIENTED_EDGE('',*,*,#782,.F.);
#1067=ORIENTED_EDGE('',*,*,#783,.F.);
#1068=ORIENTED_EDGE('',*,*,#778,.F.);
#1069=ORIENTED_EDGE('',*,*,#784,.T.);
#1070=ORIENTED_EDGE('',*,*,#785,.T.);
#1071=ORIENTED_EDGE('',*,*,#786,.T.);
#1072=ORIENTED_EDGE('',*,*,#787,.T.);
#1073=ORIENTED_EDGE('',*,*,#787,.F.);
#1074=ORIENTED_EDGE('',*,*,#788,.T.);
#1075=ORIENTED_EDGE('',*,*,#789,.T.);
#1076=ORIENTED_EDGE('',*,*,#790,.T.);
#1077=ORIENTED_EDGE('',*,*,#786,.F.);
#1078=ORIENTED_EDGE('',*,*,#791,.T.);
#1079=ORIENTED_EDGE('',*,*,#792,.F.);
#1080=ORIENTED_EDGE('',*,*,#793,.F.);
#1081=ORIENTED_EDGE('',*,*,#788,.F.);
#1082=ORIENTED_EDGE('',*,*,#789,.F.);
#1083=ORIENTED_EDGE('',*,*,#793,.T.);
#1084=ORIENTED_EDGE('',*,*,#794,.F.);
#1085=ORIENTED_EDGE('',*,*,#795,.F.);
#1086=ORIENTED_EDGE('',*,*,#784,.F.);
#1087=ORIENTED_EDGE('',*,*,#790,.F.);
#1088=ORIENTED_EDGE('',*,*,#795,.T.);
#1089=ORIENTED_EDGE('',*,*,#796,.F.);
#1090=ORIENTED_EDGE('',*,*,#797,.F.);
#1091=ORIENTED_EDGE('',*,*,#779,.F.);
#1092=ORIENTED_EDGE('',*,*,#783,.T.);
#1093=ORIENTED_EDGE('',*,*,#798,.F.);
#1094=ORIENTED_EDGE('',*,*,#799,.F.);
#1095=ORIENTED_EDGE('',*,*,#774,.F.);
#1096=ORIENTED_EDGE('',*,*,#780,.F.);
#1097=ORIENTED_EDGE('',*,*,#799,.T.);
#1098=ORIENTED_EDGE('',*,*,#800,.F.);
#1099=ORIENTED_EDGE('',*,*,#801,.F.);
#1100=ORIENTED_EDGE('',*,*,#792,.T.);
#1101=ORIENTED_EDGE('',*,*,#802,.F.);
#1102=ORIENTED_EDGE('',*,*,#803,.F.);
#1103=ORIENTED_EDGE('',*,*,#804,.F.);
#1104=ORIENTED_EDGE('',*,*,#805,.F.);
#1105=ORIENTED_EDGE('',*,*,#806,.F.);
#1106=ORIENTED_EDGE('',*,*,#800,.T.);
#1107=ORIENTED_EDGE('',*,*,#798,.T.);
#1108=ORIENTED_EDGE('',*,*,#782,.T.);
#1109=ORIENTED_EDGE('',*,*,#807,.F.);
#1110=ORIENTED_EDGE('',*,*,#808,.F.);
#1111=ORIENTED_EDGE('',*,*,#809,.F.);
#1112=ORIENTED_EDGE('',*,*,#810,.F.);
#1113=ORIENTED_EDGE('',*,*,#811,.F.);
#1114=ORIENTED_EDGE('',*,*,#812,.T.);
#1115=ORIENTED_EDGE('',*,*,#813,.T.);
#1116=ORIENTED_EDGE('',*,*,#814,.T.);
#1117=ORIENTED_EDGE('',*,*,#815,.T.);
#1118=ORIENTED_EDGE('',*,*,#816,.T.);
#1119=ORIENTED_EDGE('',*,*,#817,.F.);
#1120=ORIENTED_EDGE('',*,*,#818,.F.);
#1121=ORIENTED_EDGE('',*,*,#819,.F.);
#1122=ORIENTED_EDGE('',*,*,#820,.F.);
#1123=ORIENTED_EDGE('',*,*,#821,.F.);
#1124=ORIENTED_EDGE('',*,*,#796,.T.);
#1125=ORIENTED_EDGE('',*,*,#794,.T.);
#1126=ORIENTED_EDGE('',*,*,#820,.T.);
#1127=ORIENTED_EDGE('',*,*,#822,.T.);
#1128=ORIENTED_EDGE('',*,*,#823,.T.);
#1129=ORIENTED_EDGE('',*,*,#824,.F.);
#1130=ORIENTED_EDGE('',*,*,#825,.F.);
#1131=ORIENTED_EDGE('',*,*,#819,.T.);
#1132=ORIENTED_EDGE('',*,*,#826,.F.);
#1133=ORIENTED_EDGE('',*,*,#827,.F.);
#1134=ORIENTED_EDGE('',*,*,#822,.F.);
#1135=ORIENTED_EDGE('',*,*,#818,.T.);
#1136=ORIENTED_EDGE('',*,*,#828,.T.);
#1137=ORIENTED_EDGE('',*,*,#829,.T.);
#1138=ORIENTED_EDGE('',*,*,#830,.F.);
#1139=ORIENTED_EDGE('',*,*,#826,.T.);
#1140=ORIENTED_EDGE('',*,*,#817,.T.);
#1141=ORIENTED_EDGE('',*,*,#831,.T.);
#1142=ORIENTED_EDGE('',*,*,#832,.T.);
#1143=ORIENTED_EDGE('',*,*,#833,.T.);
#1144=ORIENTED_EDGE('',*,*,#834,.T.);
#1145=ORIENTED_EDGE('',*,*,#828,.F.);
#1146=ORIENTED_EDGE('',*,*,#810,.T.);
#1147=ORIENTED_EDGE('',*,*,#835,.T.);
#1148=ORIENTED_EDGE('',*,*,#836,.T.);
#1149=ORIENTED_EDGE('',*,*,#837,.T.);
#1150=ORIENTED_EDGE('',*,*,#833,.F.);
#1151=ORIENTED_EDGE('',*,*,#838,.T.);
#1152=ORIENTED_EDGE('',*,*,#839,.T.);
#1153=ORIENTED_EDGE('',*,*,#840,.T.);
#1154=ORIENTED_EDGE('',*,*,#811,.T.);
#1155=ORIENTED_EDGE('',*,*,#839,.F.);
#1156=ORIENTED_EDGE('',*,*,#841,.F.);
#1157=ORIENTED_EDGE('',*,*,#842,.F.);
#1158=ORIENTED_EDGE('',*,*,#843,.T.);
#1159=ORIENTED_EDGE('',*,*,#836,.F.);
#1160=ORIENTED_EDGE('',*,*,#844,.F.);
#1161=ORIENTED_EDGE('',*,*,#809,.T.);
#1162=ORIENTED_EDGE('',*,*,#845,.T.);
#1163=ORIENTED_EDGE('',*,*,#844,.T.);
#1164=ORIENTED_EDGE('',*,*,#835,.F.);
#1165=ORIENTED_EDGE('',*,*,#846,.F.);
#1166=ORIENTED_EDGE('',*,*,#823,.F.);
#1167=ORIENTED_EDGE('',*,*,#847,.F.);
#1168=ORIENTED_EDGE('',*,*,#848,.F.);
#1169=ORIENTED_EDGE('',*,*,#846,.T.);
#1170=ORIENTED_EDGE('',*,*,#849,.T.);
#1171=ORIENTED_EDGE('',*,*,#850,.T.);
#1172=ORIENTED_EDGE('',*,*,#824,.T.);
#1173=ORIENTED_EDGE('',*,*,#848,.T.);
#1174=ORIENTED_EDGE('',*,*,#851,.T.);
#1175=ORIENTED_EDGE('',*,*,#829,.F.);
#1176=ORIENTED_EDGE('',*,*,#834,.F.);
#1177=ORIENTED_EDGE('',*,*,#837,.F.);
#1178=ORIENTED_EDGE('',*,*,#843,.F.);
#1179=ORIENTED_EDGE('',*,*,#852,.F.);
#1180=ORIENTED_EDGE('',*,*,#853,.F.);
#1181=ORIENTED_EDGE('',*,*,#854,.F.);
#1182=ORIENTED_EDGE('',*,*,#855,.F.);
#1183=ORIENTED_EDGE('',*,*,#849,.F.);
#1184=ORIENTED_EDGE('',*,*,#830,.T.);
#1185=ORIENTED_EDGE('',*,*,#851,.F.);
#1186=ORIENTED_EDGE('',*,*,#847,.T.);
#1187=ORIENTED_EDGE('',*,*,#827,.T.);
#1188=ORIENTED_EDGE('',*,*,#856,.F.);
#1189=ORIENTED_EDGE('',*,*,#857,.F.);
#1190=ORIENTED_EDGE('',*,*,#858,.F.);
#1191=ORIENTED_EDGE('',*,*,#855,.T.);
#1192=ORIENTED_EDGE('',*,*,#858,.T.);
#1193=ORIENTED_EDGE('',*,*,#859,.T.);
#1194=ORIENTED_EDGE('',*,*,#850,.F.);
#1195=ORIENTED_EDGE('',*,*,#860,.F.);
#1196=ORIENTED_EDGE('',*,*,#861,.F.);
#1197=ORIENTED_EDGE('',*,*,#862,.F.);
#1198=ORIENTED_EDGE('',*,*,#856,.T.);
#1199=ORIENTED_EDGE('',*,*,#854,.T.);
#1200=ORIENTED_EDGE('',*,*,#862,.T.);
#1201=ORIENTED_EDGE('',*,*,#863,.T.);
#1202=ORIENTED_EDGE('',*,*,#864,.T.);
#1203=ORIENTED_EDGE('',*,*,#860,.T.);
#1204=ORIENTED_EDGE('',*,*,#853,.T.);
#1205=ORIENTED_EDGE('',*,*,#865,.T.);
#1206=ORIENTED_EDGE('',*,*,#852,.T.);
#1207=ORIENTED_EDGE('',*,*,#842,.T.);
#1208=ORIENTED_EDGE('',*,*,#866,.T.);
#1209=ORIENTED_EDGE('',*,*,#865,.F.);
#1210=ORIENTED_EDGE('',*,*,#867,.F.);
#1211=ORIENTED_EDGE('',*,*,#868,.F.);
#1212=ORIENTED_EDGE('',*,*,#869,.F.);
#1213=ORIENTED_EDGE('',*,*,#870,.F.);
#1214=ORIENTED_EDGE('',*,*,#871,.F.);
#1215=ORIENTED_EDGE('',*,*,#841,.T.);
#1216=ORIENTED_EDGE('',*,*,#838,.F.);
#1217=ORIENTED_EDGE('',*,*,#832,.F.);
#1218=ORIENTED_EDGE('',*,*,#816,.F.);
#1219=ORIENTED_EDGE('',*,*,#872,.T.);
#1220=ORIENTED_EDGE('',*,*,#867,.T.);
#1221=ORIENTED_EDGE('',*,*,#831,.F.);
#1222=ORIENTED_EDGE('',*,*,#812,.F.);
#1223=ORIENTED_EDGE('',*,*,#840,.F.);
#1224=ORIENTED_EDGE('',*,*,#871,.T.);
#1225=ORIENTED_EDGE('',*,*,#873,.F.);
#1226=ORIENTED_EDGE('',*,*,#813,.F.);
#1227=ORIENTED_EDGE('',*,*,#873,.T.);
#1228=ORIENTED_EDGE('',*,*,#870,.T.);
#1229=ORIENTED_EDGE('',*,*,#874,.F.);
#1230=ORIENTED_EDGE('',*,*,#814,.F.);
#1231=ORIENTED_EDGE('',*,*,#874,.T.);
#1232=ORIENTED_EDGE('',*,*,#869,.T.);
#1233=ORIENTED_EDGE('',*,*,#875,.F.);
#1234=ORIENTED_EDGE('',*,*,#876,.T.);
#1235=ORIENTED_EDGE('',*,*,#815,.F.);
#1236=ORIENTED_EDGE('',*,*,#875,.T.);
#1237=ORIENTED_EDGE('',*,*,#868,.T.);
#1238=ORIENTED_EDGE('',*,*,#872,.F.);
#1239=ORIENTED_EDGE('',*,*,#877,.F.);
#1240=ORIENTED_EDGE('',*,*,#878,.T.);
#1241=ORIENTED_EDGE('',*,*,#876,.F.);
#1242=ORIENTED_EDGE('',*,*,#878,.F.);
#1243=ORIENTED_EDGE('',*,*,#808,.T.);
#1244=ORIENTED_EDGE('',*,*,#879,.T.);
#1245=ORIENTED_EDGE('',*,*,#866,.F.);
#1246=ORIENTED_EDGE('',*,*,#845,.F.);
#1247=ORIENTED_EDGE('',*,*,#775,.F.);
#1248=ORIENTED_EDGE('',*,*,#801,.T.);
#1249=ORIENTED_EDGE('',*,*,#806,.T.);
#1250=ORIENTED_EDGE('',*,*,#880,.F.);
#1251=ORIENTED_EDGE('',*,*,#864,.F.);
#1252=ORIENTED_EDGE('',*,*,#879,.F.);
#1253=ORIENTED_EDGE('',*,*,#807,.T.);
#1254=ORIENTED_EDGE('',*,*,#781,.F.);
#1255=ORIENTED_EDGE('',*,*,#805,.T.);
#1256=ORIENTED_EDGE('',*,*,#881,.T.);
#1257=ORIENTED_EDGE('',*,*,#861,.T.);
#1258=ORIENTED_EDGE('',*,*,#880,.T.);
#1259=ORIENTED_EDGE('',*,*,#804,.T.);
#1260=ORIENTED_EDGE('',*,*,#882,.F.);
#1261=ORIENTED_EDGE('',*,*,#863,.F.);
#1262=ORIENTED_EDGE('',*,*,#881,.F.);
#1263=ORIENTED_EDGE('',*,*,#877,.T.);
#1264=ORIENTED_EDGE('',*,*,#803,.T.);
#1265=ORIENTED_EDGE('',*,*,#883,.T.);
#1266=ORIENTED_EDGE('',*,*,#857,.T.);
#1267=ORIENTED_EDGE('',*,*,#882,.T.);
#1268=ORIENTED_EDGE('',*,*,#785,.F.);
#1269=ORIENTED_EDGE('',*,*,#797,.T.);
#1270=ORIENTED_EDGE('',*,*,#821,.T.);
#1271=ORIENTED_EDGE('',*,*,#825,.T.);
#1272=ORIENTED_EDGE('',*,*,#859,.F.);
#1273=ORIENTED_EDGE('',*,*,#883,.F.);
#1274=ORIENTED_EDGE('',*,*,#802,.T.);
#1275=ORIENTED_EDGE('',*,*,#791,.F.);
#1276=PLANE('',#1442);
#1277=PLANE('',#1443);
#1278=PLANE('',#1444);
#1279=PLANE('',#1445);
#1280=PLANE('',#1446);
#1281=PLANE('',#1447);
#1282=PLANE('',#1448);
#1283=PLANE('',#1449);
#1284=PLANE('',#1450);
#1285=PLANE('',#1451);
#1286=PLANE('',#1452);
#1287=PLANE('',#1453);
#1288=PLANE('',#1454);
#1289=PLANE('',#1455);
#1290=PLANE('',#1456);
#1291=PLANE('',#1457);
#1292=PLANE('',#1458);
#1293=PLANE('',#1459);
#1294=PLANE('',#1460);
#1295=PLANE('',#1461);
#1296=PLANE('',#1462);
#1297=PLANE('',#1463);
#1298=PLANE('',#1464);
#1299=PLANE('',#1465);
#1300=PLANE('',#1466);
#1301=PLANE('',#1467);
#1302=PLANE('',#1468);
#1303=PLANE('',#1469);
#1304=PLANE('',#1470);
#1305=PLANE('',#1471);
#1306=PLANE('',#1472);
#1307=PLANE('',#1473);
#1308=PLANE('',#1474);
#1309=PLANE('',#1475);
#1310=PLANE('',#1476);
#1311=PLANE('',#1477);
#1312=PLANE('',#1478);
#1313=PLANE('',#1479);
#1314=PLANE('',#1480);
#1315=PLANE('',#1481);
#1316=PLANE('',#1482);
#1317=PLANE('',#1483);
#1318=PLANE('',#1484);
#1319=PLANE('',#1485);
#1320=PLANE('',#1486);
#1321=PLANE('',#1487);
#1322=PLANE('',#1488);
#1323=PLANE('',#1489);
#1324=PLANE('',#1490);
#1325=PLANE('',#1491);
#1326=PLANE('',#1492);
#1327=PLANE('',#1493);
#1328=PLANE('',#1494);
#1329=PLANE('',#1495);
#1330=PLANE('',#1496);
#1331=PLANE('',#1497);
#1332=PLANE('',#1498);
#1333=PLANE('',#1499);
#1334=PLANE('',#1500);
#1335=PLANE('',#1501);
#1336=PLANE('',#1502);
#1337=PLANE('',#1503);
#1338=PLANE('',#1504);
#1339=PLANE('',#1505);
#1340=PLANE('',#1506);
#1341=PLANE('',#1507);
#1342=PLANE('',#1508);
#1343=PLANE('',#1509);
#1344=PLANE('',#1511);
#1345=PLANE('',#1514);
#1346=PLANE('',#1515);
#1347=PLANE('',#1516);
#1348=PLANE('',#1517);
#1349=PLANE('',#1518);
#1350=PLANE('',#1519);
#1351=ADVANCED_FACE('',(#22),#1276,.F.);
#1352=ADVANCED_FACE('',(#23),#1277,.F.);
#1353=ADVANCED_FACE('',(#24),#1278,.F.);
#1354=ADVANCED_FACE('',(#25),#1279,.F.);
#1355=ADVANCED_FACE('',(#26),#1280,.F.);
#1356=ADVANCED_FACE('',(#27),#1281,.F.);
#1357=ADVANCED_FACE('',(#28),#1282,.T.);
#1358=ADVANCED_FACE('',(#29),#1283,.T.);
#1359=ADVANCED_FACE('',(#30),#1284,.T.);
#1360=ADVANCED_FACE('',(#31),#1285,.F.);
#1361=ADVANCED_FACE('',(#32),#1286,.T.);
#1362=ADVANCED_FACE('',(#33),#1287,.T.);
#1363=ADVANCED_FACE('',(#34),#1288,.T.);
#1364=ADVANCED_FACE('',(#35),#1289,.T.);
#1365=ADVANCED_FACE('',(#36),#1290,.T.);
#1366=ADVANCED_FACE('',(#37),#1291,.F.);
#1367=ADVANCED_FACE('',(#38),#1292,.T.);
#1368=ADVANCED_FACE('',(#39),#1293,.T.);
#1369=ADVANCED_FACE('',(#40),#1294,.T.);
#1370=ADVANCED_FACE('',(#41),#1295,.T.);
#1371=ADVANCED_FACE('',(#42),#1296,.T.);
#1372=ADVANCED_FACE('',(#43),#1297,.T.);
#1373=ADVANCED_FACE('',(#44),#1298,.T.);
#1374=ADVANCED_FACE('',(#45),#1299,.T.);
#1375=ADVANCED_FACE('',(#46),#1300,.T.);
#1376=ADVANCED_FACE('',(#47),#1301,.F.);
#1377=ADVANCED_FACE('',(#48),#1302,.T.);
#1378=ADVANCED_FACE('',(#49),#1303,.T.);
#1379=ADVANCED_FACE('',(#50),#1304,.T.);
#1380=ADVANCED_FACE('',(#51),#1305,.T.);
#1381=ADVANCED_FACE('',(#52),#1306,.T.);
#1382=ADVANCED_FACE('',(#53),#1307,.T.);
#1383=ADVANCED_FACE('',(#54),#1308,.T.);
#1384=ADVANCED_FACE('',(#55),#1309,.T.);
#1385=ADVANCED_FACE('',(#56),#1310,.T.);
#1386=ADVANCED_FACE('',(#57),#1311,.T.);
#1387=ADVANCED_FACE('',(#58),#1312,.T.);
#1388=ADVANCED_FACE('',(#59),#1313,.T.);
#1389=ADVANCED_FACE('',(#60),#1314,.T.);
#1390=ADVANCED_FACE('',(#61),#1315,.T.);
#1391=ADVANCED_FACE('',(#62),#1316,.T.);
#1392=ADVANCED_FACE('',(#63),#1317,.T.);
#1393=ADVANCED_FACE('',(#64),#1318,.T.);
#1394=ADVANCED_FACE('',(#65),#1319,.T.);
#1395=ADVANCED_FACE('',(#66),#1320,.F.);
#1396=ADVANCED_FACE('',(#67),#1321,.T.);
#1397=ADVANCED_FACE('',(#68),#1322,.T.);
#1398=ADVANCED_FACE('',(#69),#1323,.T.);
#1399=ADVANCED_FACE('',(#70),#1324,.T.);
#1400=ADVANCED_FACE('',(#71),#1325,.T.);
#1401=ADVANCED_FACE('',(#72),#1326,.T.);
#1402=ADVANCED_FACE('',(#73),#1327,.T.);
#1403=ADVANCED_FACE('',(#74),#1328,.T.);
#1404=ADVANCED_FACE('',(#75),#1329,.F.);
#1405=ADVANCED_FACE('',(#76),#1330,.T.);
#1406=ADVANCED_FACE('',(#77),#1331,.T.);
#1407=ADVANCED_FACE('',(#78),#1332,.T.);
#1408=ADVANCED_FACE('',(#79),#1333,.T.);
#1409=ADVANCED_FACE('',(#80),#1334,.T.);
#1410=ADVANCED_FACE('',(#81),#1335,.T.);
#1411=ADVANCED_FACE('',(#82),#1336,.T.);
#1412=ADVANCED_FACE('',(#83),#1337,.T.);
#1413=ADVANCED_FACE('',(#84),#1338,.T.);
#1414=ADVANCED_FACE('',(#85),#1339,.F.);
#1415=ADVANCED_FACE('',(#86),#1340,.F.);
#1416=ADVANCED_FACE('',(#87),#1341,.F.);
#1417=ADVANCED_FACE('',(#88),#1342,.F.);
#1418=ADVANCED_FACE('',(#89,#14),#1343,.F.);
#1419=ADVANCED_FACE('',(#90),#1344,.F.);
#1420=ADVANCED_FACE('',(#91),#13,.F.);
#1421=ADVANCED_FACE('',(#92),#1345,.T.);
#1422=ADVANCED_FACE('',(#93),#1346,.T.);
#1423=ADVANCED_FACE('',(#94),#1347,.T.);
#1424=ADVANCED_FACE('',(#95,#15),#1348,.T.);
#1425=ADVANCED_FACE('',(#96),#1349,.T.);
#1426=ADVANCED_FACE('',(#97),#1350,.T.);
#1427=CLOSED_SHELL('',(#1351,#1352,#1353,#1354,#1355,#1356,#1357,#1358,
#1359,#1360,#1361,#1362,#1363,#1364,#1365,#1366,#1367,#1368,#1369,#1370,
#1371,#1372,#1373,#1374,#1375,#1376,#1377,#1378,#1379,#1380,#1381,#1382,
#1383,#1384));
#1428=CLOSED_SHELL('',(#1385,#1386,#1387,#1388,#1389,#1390,#1391,#1392,
#1393,#1394,#1395,#1396,#1397,#1398,#1399,#1400,#1401,#1402,#1403,#1404,
#1405,#1406,#1407,#1408,#1409,#1410,#1411,#1412,#1413,#1414,#1415,#1416,
#1417,#1418,#1419,#1420,#1421,#1422,#1423,#1424,#1425,#1426));
#1429=DERIVED_UNIT_ELEMENT(#1431,1.);
#1430=DERIVED_UNIT_ELEMENT(#2274,-3.);
#1431=(
MASS_UNIT()
NAMED_UNIT(*)
SI_UNIT(.KILO.,.GRAM.)
);
#1432=DERIVED_UNIT((#1429,#1430));
#1433=MEASURE_REPRESENTATION_ITEM('density measure',
POSITIVE_RATIO_MEASURE(7850.),#1432);
#1434=PROPERTY_DEFINITION_REPRESENTATION(#1439,#1436);
#1435=PROPERTY_DEFINITION_REPRESENTATION(#1440,#1437);
#1436=REPRESENTATION('material name',(#1438),#2271);
#1437=REPRESENTATION('density',(#1433),#2271);
#1438=DESCRIPTIVE_REPRESENTATION_ITEM('Steel','Steel');
#1439=PROPERTY_DEFINITION('material property','material name',#2281);
#1440=PROPERTY_DEFINITION('material property','density of part',#2281);
#1441=AXIS2_PLACEMENT_3D('',#1872,#1520,#1521);
#1442=AXIS2_PLACEMENT_3D('',#1873,#1522,#1523);
#1443=AXIS2_PLACEMENT_3D('',#1884,#1529,#1530);
#1444=AXIS2_PLACEMENT_3D('',#1895,#1536,#1537);
#1445=AXIS2_PLACEMENT_3D('',#1898,#1540,#1541);
#1446=AXIS2_PLACEMENT_3D('',#1909,#1547,#1548);
#1447=AXIS2_PLACEMENT_3D('',#1920,#1554,#1555);
#1448=AXIS2_PLACEMENT_3D('',#1923,#1558,#1559);
#1449=AXIS2_PLACEMENT_3D('',#1929,#1563,#1564);
#1450=AXIS2_PLACEMENT_3D('',#1935,#1568,#1569);
#1451=AXIS2_PLACEMENT_3D('',#1939,#1572,#1573);
#1452=AXIS2_PLACEMENT_3D('',#1962,#1586,#1587);
#1453=AXIS2_PLACEMENT_3D('',#1966,#1590,#1591);
#1454=AXIS2_PLACEMENT_3D('',#1970,#1594,#1595);
#1455=AXIS2_PLACEMENT_3D('',#1974,#1598,#1599);
#1456=AXIS2_PLACEMENT_3D('',#1980,#1603,#1604);
#1457=AXIS2_PLACEMENT_3D('',#1984,#1607,#1608);
#1458=AXIS2_PLACEMENT_3D('',#1990,#1612,#1613);
#1459=AXIS2_PLACEMENT_3D('',#1992,#1615,#1616);
#1460=AXIS2_PLACEMENT_3D('',#1996,#1619,#1620);
#1461=AXIS2_PLACEMENT_3D('',#2000,#1623,#1624);
#1462=AXIS2_PLACEMENT_3D('',#2006,#1628,#1629);
#1463=AXIS2_PLACEMENT_3D('',#2010,#1632,#1633);
#1464=AXIS2_PLACEMENT_3D('',#2018,#1638,#1639);
#1465=AXIS2_PLACEMENT_3D('',#2020,#1641,#1642);
#1466=AXIS2_PLACEMENT_3D('',#2023,#1645,#1646);
#1467=AXIS2_PLACEMENT_3D('',#2025,#1648,#1649);
#1468=AXIS2_PLACEMENT_3D('',#2031,#1653,#1654);
#1469=AXIS2_PLACEMENT_3D('',#2036,#1658,#1659);
#1470=AXIS2_PLACEMENT_3D('',#2037,#1660,#1661);
#1471=AXIS2_PLACEMENT_3D('',#2039,#1663,#1664);
#1472=AXIS2_PLACEMENT_3D('',#2041,#1666,#1667);
#1473=AXIS2_PLACEMENT_3D('',#2042,#1668,#1669);
#1474=AXIS2_PLACEMENT_3D('',#2044,#1671,#1672);
#1475=AXIS2_PLACEMENT_3D('',#2046,#1674,#1675);
#1476=AXIS2_PLACEMENT_3D('',#2047,#1676,#1677);
#1477=AXIS2_PLACEMENT_3D('',#2056,#1682,#1683);
#1478=AXIS2_PLACEMENT_3D('',#2062,#1687,#1688);
#1479=AXIS2_PLACEMENT_3D('',#2068,#1692,#1693);
#1480=AXIS2_PLACEMENT_3D('',#2077,#1698,#1699);
#1481=AXIS2_PLACEMENT_3D('',#2083,#1703,#1704);
#1482=AXIS2_PLACEMENT_3D('',#2089,#1708,#1709);
#1483=AXIS2_PLACEMENT_3D('',#2093,#1712,#1713);
#1484=AXIS2_PLACEMENT_3D('',#2097,#1716,#1717);
#1485=AXIS2_PLACEMENT_3D('',#2101,#1720,#1721);
#1486=AXIS2_PLACEMENT_3D('',#2105,#1724,#1725);
#1487=AXIS2_PLACEMENT_3D('',#2144,#1746,#1747);
#1488=AXIS2_PLACEMENT_3D('',#2152,#1752,#1753);
#1489=AXIS2_PLACEMENT_3D('',#2156,#1756,#1757);
#1490=AXIS2_PLACEMENT_3D('',#2162,#1761,#1762);
#1491=AXIS2_PLACEMENT_3D('',#2170,#1767,#1768);
#1492=AXIS2_PLACEMENT_3D('',#2179,#1774,#1775);
#1493=AXIS2_PLACEMENT_3D('',#2183,#1778,#1779);
#1494=AXIS2_PLACEMENT_3D('',#2189,#1783,#1784);
#1495=AXIS2_PLACEMENT_3D('',#2191,#1786,#1787);
#1496=AXIS2_PLACEMENT_3D('',#2197,#1791,#1792);
#1497=AXIS2_PLACEMENT_3D('',#2201,#1795,#1796);
#1498=AXIS2_PLACEMENT_3D('',#2210,#1802,#1803);
#1499=AXIS2_PLACEMENT_3D('',#2211,#1804,#1805);
#1500=AXIS2_PLACEMENT_3D('',#2217,#1809,#1810);
#1501=AXIS2_PLACEMENT_3D('',#2219,#1812,#1813);
#1502=AXIS2_PLACEMENT_3D('',#2225,#1817,#1818);
#1503=AXIS2_PLACEMENT_3D('',#2227,#1820,#1821);
#1504=AXIS2_PLACEMENT_3D('',#2231,#1824,#1825);
#1505=AXIS2_PLACEMENT_3D('',#2233,#1827,#1828);
#1506=AXIS2_PLACEMENT_3D('',#2243,#1834,#1835);
#1507=AXIS2_PLACEMENT_3D('',#2245,#1837,#1838);
#1508=AXIS2_PLACEMENT_3D('',#2247,#1840,#1841);
#1509=AXIS2_PLACEMENT_3D('',#2249,#1843,#1844);
#1510=AXIS2_PLACEMENT_3D('',#2252,#1846,#1847);
#1511=AXIS2_PLACEMENT_3D('',#2253,#1848,#1849);
#1512=AXIS2_PLACEMENT_3D('',#2254,#1850,#1851);
#1513=AXIS2_PLACEMENT_3D('',#2256,#1852,#1853);
#1514=AXIS2_PLACEMENT_3D('',#2258,#1855,#1856);
#1515=AXIS2_PLACEMENT_3D('',#2260,#1858,#1859);
#1516=AXIS2_PLACEMENT_3D('',#2262,#1861,#1862);
#1517=AXIS2_PLACEMENT_3D('',#2264,#1864,#1865);
#1518=AXIS2_PLACEMENT_3D('',#2266,#1867,#1868);
#1519=AXIS2_PLACEMENT_3D('',#2268,#1870,#1871);
#1520=DIRECTION('axis',(0.,0.,1.));
#1521=DIRECTION('refdir',(1.,0.,0.));
#1522=DIRECTION('center_axis',(1.,0.,0.));
#1523=DIRECTION('ref_axis',(0.,0.,-1.));
#1524=DIRECTION('',(0.,-1.,0.));
#1525=DIRECTION('',(0.,0.,1.));
#1526=DIRECTION('',(0.,1.,0.));
#1527=DIRECTION('',(0.,0.,-1.));
#1528=DIRECTION('',(0.,-0.707106781186547,-0.707106781186548));
#1529=DIRECTION('center_axis',(-1.,0.,0.));
#1530=DIRECTION('ref_axis',(0.,0.,1.));
#1531=DIRECTION('',(0.,1.,0.));
#1532=DIRECTION('',(0.,0.707106781186547,0.707106781186548));
#1533=DIRECTION('',(0.,0.,1.));
#1534=DIRECTION('',(0.,1.,0.));
#1535=DIRECTION('',(0.,0.,-1.));
#1536=DIRECTION('center_axis',(0.,0.,-1.));
#1537=DIRECTION('ref_axis',(-1.,2.46519032881566E-32,0.));
#1538=DIRECTION('',(-1.,0.,0.));
#1539=DIRECTION('',(1.,0.,0.));
#1540=DIRECTION('center_axis',(-1.,0.,0.));
#1541=DIRECTION('ref_axis',(0.,0.,1.));
#1542=DIRECTION('',(0.,-1.,0.));
#1543=DIRECTION('',(0.,0.,-1.));
#1544=DIRECTION('',(0.,1.,0.));
#1545=DIRECTION('',(0.,0.,1.));
#1546=DIRECTION('',(0.,-0.707106781186547,0.707106781186548));
#1547=DIRECTION('center_axis',(1.,0.,0.));
#1548=DIRECTION('ref_axis',(0.,0.,-1.));
#1549=DIRECTION('',(0.,1.,0.));
#1550=DIRECTION('',(0.,0.707106781186547,-0.707106781186548));
#1551=DIRECTION('',(0.,0.,-1.));
#1552=DIRECTION('',(0.,1.,0.));
#1553=DIRECTION('',(0.,0.,1.));
#1554=DIRECTION('center_axis',(0.,0.,1.));
#1555=DIRECTION('ref_axis',(1.,-2.46519032881566E-32,0.));
#1556=DIRECTION('',(1.,0.,0.));
#1557=DIRECTION('',(-1.,0.,0.));
#1558=DIRECTION('center_axis',(0.,0.,1.));
#1559=DIRECTION('ref_axis',(1.,0.,0.));
#1560=DIRECTION('',(-1.,0.,0.));
#1561=DIRECTION('',(0.,-1.,0.));
#1562=DIRECTION('',(1.,0.,0.));
#1563=DIRECTION('center_axis',(0.,0.,1.));
#1564=DIRECTION('ref_axis',(1.,0.,0.));
#1565=DIRECTION('',(1.,0.,0.));
#1566=DIRECTION('',(0.,1.,0.));
#1567=DIRECTION('',(-1.,0.,0.));
#1568=DIRECTION('center_axis',(0.,-0.707106781186548,0.707106781186547));
#1569=DIRECTION('ref_axis',(1.,0.,0.));
#1570=DIRECTION('',(1.,0.,0.));
#1571=DIRECTION('',(0.,0.707106781186547,0.707106781186548));
#1572=DIRECTION('center_axis',(0.,-1.,0.));
#1573=DIRECTION('ref_axis',(0.,0.,-1.));
#1574=DIRECTION('',(0.707106781186548,0.,-0.707106781186548));
#1575=DIRECTION('',(0.,0.,-1.));
#1576=DIRECTION('',(-0.707106781186546,0.,-0.707106781186549));
#1577=DIRECTION('',(-1.,0.,0.));
#1578=DIRECTION('',(-1.,0.,0.));
#1579=DIRECTION('',(-0.5,0.,0.866025403784439));
#1580=DIRECTION('',(-1.,0.,0.));
#1581=DIRECTION('',(0.,0.,1.));
#1582=DIRECTION('',(1.,0.,0.));
#1583=DIRECTION('',(0.,0.,1.));
#1584=DIRECTION('',(1.,0.,0.));
#1585=DIRECTION('',(0.5,0.,-0.866025403784439));
#1586=DIRECTION('center_axis',(0.,0.,-1.));
#1587=DIRECTION('ref_axis',(-1.,0.,0.));
#1588=DIRECTION('',(1.,0.,0.));
#1589=DIRECTION('',(0.,1.,0.));
#1590=DIRECTION('center_axis',(0.,0.,-1.));
#1591=DIRECTION('ref_axis',(-1.,0.,0.));
#1592=DIRECTION('',(0.,1.,0.));
#1593=DIRECTION('',(1.,0.,0.));
#1594=DIRECTION('center_axis',(0.,-0.707106781186548,-0.707106781186547));
#1595=DIRECTION('ref_axis',(-1.,0.,0.));
#1596=DIRECTION('',(-1.,0.,0.));
#1597=DIRECTION('',(0.377964473009225,-0.654653670707977,0.654653670707978));
#1598=DIRECTION('center_axis',(0.,0.,-1.));
#1599=DIRECTION('ref_axis',(0.,-1.,0.));
#1600=DIRECTION('',(0.,1.,0.));
#1601=DIRECTION('',(1.,0.,0.));
#1602=DIRECTION('',(0.,-1.,0.));
#1603=DIRECTION('center_axis',(-0.866025403784439,0.,-0.5));
#1604=DIRECTION('ref_axis',(-0.5,0.,0.866025403784439));
#1605=DIRECTION('',(0.5,-7.85046229341888E-17,-0.866025403784439));
#1606=DIRECTION('',(0.,1.,0.));
#1607=DIRECTION('center_axis',(1.,2.46519032881566E-32,0.));
#1608=DIRECTION('ref_axis',(0.,0.,-1.));
#1609=DIRECTION('',(-1.10246663054138E-32,0.447213595499958,-0.894427190999916));
#1610=DIRECTION('',(0.,0.,-1.));
#1611=DIRECTION('',(1.10246663054138E-32,-0.447213595499958,0.894427190999916));
#1612=DIRECTION('center_axis',(-0.612372435695795,-0.707106781186547,-0.353553390593274));
#1613=DIRECTION('ref_axis',(-0.5,0.,0.866025403784439));
#1614=DIRECTION('',(-0.5,0.,0.866025403784439));
#1615=DIRECTION('center_axis',(0.,-0.894427190999916,-0.447213595499958));
#1616=DIRECTION('ref_axis',(0.,0.447213595499958,-0.894427190999916));
#1617=DIRECTION('',(0.,0.447213595499958,-0.894427190999916));
#1618=DIRECTION('',(1.,0.,4.93038065763132E-32));
#1619=DIRECTION('center_axis',(-1.,0.,0.));
#1620=DIRECTION('ref_axis',(0.,0.,1.));
#1621=DIRECTION('',(0.,0.,1.));
#1622=DIRECTION('',(0.,1.,0.));
#1623=DIRECTION('center_axis',(0.577350269189627,-0.577350269189627,-0.577350269189624));
#1624=DIRECTION('ref_axis',(-0.707106781186546,0.,-0.707106781186549));
#1625=DIRECTION('',(-0.707106781186546,0.,-0.707106781186549));
#1626=DIRECTION('',(0.707106781186548,0.707106781186547,0.));
#1627=DIRECTION('',(-3.14018491736755E-15,-0.707106781186547,0.707106781186548));
#1628=DIRECTION('center_axis',(0.577350269189626,-0.577350269189626,0.577350269189626));
#1629=DIRECTION('ref_axis',(0.707106781186548,0.,-0.707106781186548));
#1630=DIRECTION('',(0.707106781186547,0.,-0.707106781186547));
#1631=DIRECTION('',(-0.707106781186548,-0.707106781186547,0.));
#1632=DIRECTION('center_axis',(0.612372435695795,-0.707106781186547,0.353553390593274));
#1633=DIRECTION('ref_axis',(0.5,0.,-0.866025403784439));
#1634=DIRECTION('',(-0.5,0.,0.866025403784439));
#1635=DIRECTION('',(0.,-0.447213595499958,-0.894427190999916));
#1636=DIRECTION('',(0.5,0.,-0.866025403784439));
#1637=DIRECTION('',(0.377964473009229,0.654653670707976,0.654653670707977));
#1638=DIRECTION('center_axis',(0.,-0.707106781186548,0.707106781186547));
#1639=DIRECTION('ref_axis',(1.,0.,0.));
#1640=DIRECTION('',(1.,0.,0.));
#1641=DIRECTION('center_axis',(0.707106781186547,-0.707106781186548,0.));
#1642=DIRECTION('ref_axis',(0.,0.,-1.));
#1643=DIRECTION('',(0.,0.,-1.));
#1644=DIRECTION('',(0.,0.,1.));
#1645=DIRECTION('center_axis',(0.,-0.707106781186548,-0.707106781186547));
#1646=DIRECTION('ref_axis',(-1.,0.,0.));
#1647=DIRECTION('',(-1.,0.,0.));
#1648=DIRECTION('center_axis',(0.,1.,0.));
#1649=DIRECTION('ref_axis',(1.,0.,0.));
#1650=DIRECTION('',(-1.,0.,0.));
#1651=DIRECTION('',(0.,0.,1.));
#1652=DIRECTION('',(-1.,0.,0.));
#1653=DIRECTION('center_axis',(-1.,0.,0.));
#1654=DIRECTION('ref_axis',(0.,0.,1.));
#1655=DIRECTION('',(0.,1.,0.));
#1656=DIRECTION('',(0.,0.447213595499958,0.894427190999916));
#1657=DIRECTION('',(0.,1.,0.));
#1658=DIRECTION('center_axis',(0.,0.,1.));
#1659=DIRECTION('ref_axis',(0.,1.,0.));
#1660=DIRECTION('center_axis',(0.,-0.894427190999916,0.447213595499959));
#1661=DIRECTION('ref_axis',(0.,0.447213595499958,0.894427190999916));
#1662=DIRECTION('',(-1.,0.,0.));
#1663=DIRECTION('center_axis',(0.,0.,1.));
#1664=DIRECTION('ref_axis',(0.,1.,0.));
#1665=DIRECTION('',(0.,1.,0.));
#1666=DIRECTION('center_axis',(0.866025403784439,0.,0.5));
#1667=DIRECTION('ref_axis',(0.5,0.,-0.866025403784439));
#1668=DIRECTION('center_axis',(0.707106781186548,0.,0.707106781186548));
#1669=DIRECTION('ref_axis',(0.707106781186548,0.,-0.707106781186548));
#1670=DIRECTION('',(0.,1.,0.));
#1671=DIRECTION('center_axis',(1.,0.,0.));
#1672=DIRECTION('ref_axis',(0.,0.,-1.));
#1673=DIRECTION('',(0.,-1.,0.));
#1674=DIRECTION('center_axis',(0.707106781186549,0.,-0.707106781186546));
#1675=DIRECTION('ref_axis',(-0.707106781186546,0.,-0.707106781186549));
#1676=DIRECTION('center_axis',(-1.74315279842105E-32,-0.707106781186548,
0.707106781186547));
#1677=DIRECTION('ref_axis',(1.,0.,2.46519032881566E-32));
#1678=DIRECTION('',(0.,0.707106781186547,0.707106781186548));
#1679=DIRECTION('',(-1.,2.46519032881566E-32,0.));
#1680=DIRECTION('',(0.,-0.707106781186547,-0.707106781186548));
#1681=DIRECTION('',(1.,-2.46519032881566E-32,0.));
#1682=DIRECTION('center_axis',(-2.46519032881566E-32,-1.,0.));
#1683=DIRECTION('ref_axis',(1.,-2.46519032881566E-32,0.));
#1684=DIRECTION('',(0.,0.,-1.));
#1685=DIRECTION('',(1.,-2.46519032881566E-32,0.));
#1686=DIRECTION('',(0.,0.,1.));
#1687=DIRECTION('center_axis',(-1.,0.,0.));
#1688=DIRECTION('ref_axis',(0.,0.,1.));
#1689=DIRECTION('',(0.,1.,0.));
#1690=DIRECTION('',(0.,0.,1.));
#1691=DIRECTION('',(0.,1.,0.));
#1692=DIRECTION('center_axis',(-1.74315279842105E-32,-0.707106781186548,
-0.707106781186548));
#1693=DIRECTION('ref_axis',(-1.,0.,2.46519032881566E-32));
#1694=DIRECTION('',(0.,0.707106781186548,-0.707106781186548));
#1695=DIRECTION('',(1.,-2.46519032881566E-32,0.));
#1696=DIRECTION('',(0.,-0.707106781186548,0.707106781186548));
#1697=DIRECTION('',(-1.,2.46519032881566E-32,0.));
#1698=DIRECTION('center_axis',(-2.46519032881566E-32,-1.,0.));
#1699=DIRECTION('ref_axis',(1.,-2.46519032881566E-32,0.));
#1700=DIRECTION('',(0.,0.,1.));
#1701=DIRECTION('',(-1.,2.46519032881566E-32,0.));
#1702=DIRECTION('',(0.,0.,-1.));
#1703=DIRECTION('center_axis',(1.,0.,0.));
#1704=DIRECTION('ref_axis',(0.,0.,-1.));
#1705=DIRECTION('',(0.,1.,0.));
#1706=DIRECTION('',(0.,0.,-1.));
#1707=DIRECTION('',(0.,1.,0.));
#1708=DIRECTION('center_axis',(0.,0.,1.));
#1709=DIRECTION('ref_axis',(1.,-2.46519032881566E-32,0.));
#1710=DIRECTION('',(1.,0.,0.));
#1711=DIRECTION('',(0.,1.,0.));
#1712=DIRECTION('center_axis',(-1.,0.,0.));
#1713=DIRECTION('ref_axis',(0.,0.,1.));
#1714=DIRECTION('',(0.,0.,1.));
#1715=DIRECTION('',(0.,1.,0.));
#1716=DIRECTION('center_axis',(0.,0.,-1.));
#1717=DIRECTION('ref_axis',(-1.,2.46519032881566E-32,0.));
#1718=DIRECTION('',(-1.,0.,0.));
#1719=DIRECTION('',(0.,1.,0.));
#1720=DIRECTION('center_axis',(1.,0.,0.));
#1721=DIRECTION('ref_axis',(0.,0.,-1.));
#1722=DIRECTION('',(0.,0.,-1.));
#1723=DIRECTION('',(0.,1.,0.));
#1724=DIRECTION('center_axis',(0.,1.,0.));
#1725=DIRECTION('ref_axis',(0.,0.,1.));
#1726=DIRECTION('',(-1.,0.,0.));
#1727=DIRECTION('',(-0.707106781186546,0.,-0.707106781186549));
#1728=DIRECTION('',(0.,0.,-1.));
#1729=DIRECTION('',(0.707106781186548,0.,-0.707106781186548));
#1730=DIRECTION('',(1.,0.,0.));
#1731=DIRECTION('',(1.,0.,0.));
#1732=DIRECTION('',(0.5,0.,-0.866025403784439));
#1733=DIRECTION('',(1.,0.,0.));
#1734=DIRECTION('',(0.,0.,1.));
#1735=DIRECTION('',(-1.,0.,0.));
#1736=DIRECTION('',(0.5,0.,-0.866025403784439));
#1737=DIRECTION('',(1.,0.,0.));
#1738=DIRECTION('',(0.,0.,-1.));
#1739=DIRECTION('',(-1.,0.,0.));
#1740=DIRECTION('',(-0.5,0.,0.866025403784439));
#1741=DIRECTION('',(1.,0.,0.));
#1742=DIRECTION('',(0.,0.,1.));
#1743=DIRECTION('',(-1.,0.,0.));
#1744=DIRECTION('',(-0.5,0.,0.866025403784439));
#1745=DIRECTION('',(-1.,0.,0.));
#1746=DIRECTION('center_axis',(-0.866025403784439,0.,-0.5));
#1747=DIRECTION('ref_axis',(-0.5,0.,0.866025403784439));
#1748=DIRECTION('',(0.,1.,0.));
#1749=DIRECTION('',(0.,1.,0.));
#1750=DIRECTION('',(-0.5,0.,0.866025403784439));
#1751=DIRECTION('',(0.,1.,0.));
#1752=DIRECTION('center_axis',(0.,0.,-1.));
#1753=DIRECTION('ref_axis',(0.,-1.,0.));
#1754=DIRECTION('',(0.,-1.,0.));
#1755=DIRECTION('',(-1.,0.,0.));
#1756=DIRECTION('center_axis',(-1.,0.,0.));
#1757=DIRECTION('ref_axis',(0.,0.,1.));
#1758=DIRECTION('',(0.,1.,0.));
#1759=DIRECTION('',(0.,0.,-1.));
#1760=DIRECTION('',(0.,0.447213595499958,0.894427190999916));
#1761=DIRECTION('center_axis',(0.,0.,1.));
#1762=DIRECTION('ref_axis',(0.,1.,0.));
#1763=DIRECTION('',(0.,1.,0.));
#1764=DIRECTION('',(-1.,0.,0.));
#1765=DIRECTION('',(0.,1.,0.));
#1766=DIRECTION('',(-1.,0.,0.));
#1767=DIRECTION('center_axis',(-1.,0.,0.));
#1768=DIRECTION('ref_axis',(0.,0.,1.));
#1769=DIRECTION('',(0.,1.,0.));
#1770=DIRECTION('',(0.,0.447213595499959,-0.894427190999915));
#1771=DIRECTION('',(0.,0.,-1.));
#1772=DIRECTION('',(0.,0.,1.));
#1773=DIRECTION('',(0.,-1.,0.));
#1774=DIRECTION('center_axis',(0.,0.,-1.));
#1775=DIRECTION('ref_axis',(0.,-1.,0.));
#1776=DIRECTION('',(0.,-1.,0.));
#1777=DIRECTION('',(-1.,0.,0.));
#1778=DIRECTION('center_axis',(0.,0.894427190999915,0.447213595499959));
#1779=DIRECTION('ref_axis',(0.,0.447213595499959,-0.894427190999915));
#1780=DIRECTION('',(0.,-0.447213595499959,0.894427190999915));
#1781=DIRECTION('',(-1.,0.,0.));
#1782=DIRECTION('',(-1.,0.,0.));
#1783=DIRECTION('center_axis',(0.,0.,1.));
#1784=DIRECTION('ref_axis',(0.,1.,0.));
#1785=DIRECTION('',(0.,1.,0.));
#1786=DIRECTION('center_axis',(1.,0.,0.));
#1787=DIRECTION('ref_axis',(0.,0.,-1.));
#1788=DIRECTION('',(0.,0.447213595499957,0.894427190999916));
#1789=DIRECTION('',(1.10246663054138E-32,-0.447213595499958,-0.894427190999916));
#1790=DIRECTION('',(0.,0.,1.));
#1791=DIRECTION('center_axis',(-0.612372435695794,0.707106781186548,-0.353553390593274));
#1792=DIRECTION('ref_axis',(-0.5,0.,0.866025403784439));
#1793=DIRECTION('',(0.5,0.,-0.866025403784439));
#1794=DIRECTION('',(-0.377964473009228,-0.654653670707977,-0.654653670707977));
#1795=DIRECTION('center_axis',(0.,1.,0.));
#1796=DIRECTION('ref_axis',(0.,0.,1.));
#1797=DIRECTION('',(-1.,0.,0.));
#1798=DIRECTION('',(-0.5,0.,0.866025403784439));
#1799=DIRECTION('',(-1.,0.,0.));
#1800=DIRECTION('',(0.,0.,1.));
#1801=DIRECTION('',(1.,0.,0.));
#1802=DIRECTION('center_axis',(0.,0.894427190999916,-0.447213595499958));
#1803=DIRECTION('ref_axis',(0.,0.447213595499958,0.894427190999916));
#1804=DIRECTION('center_axis',(0.577350269189626,0.577350269189627,-0.577350269189624));
#1805=DIRECTION('ref_axis',(-0.707106781186546,0.,-0.707106781186549));
#1806=DIRECTION('',(-0.707106781186547,0.707106781186547,0.));
#1807=DIRECTION('',(0.707106781186546,0.,0.707106781186549));
#1808=DIRECTION('',(3.14018491736755E-15,-0.707106781186547,-0.707106781186547));
#1809=DIRECTION('center_axis',(0.,0.707106781186548,-0.707106781186548));
#1810=DIRECTION('ref_axis',(-1.,0.,0.));
#1811=DIRECTION('',(-1.,0.,0.));
#1812=DIRECTION('center_axis',(0.577350269189626,0.577350269189626,0.577350269189626));
#1813=DIRECTION('ref_axis',(0.707106781186547,0.,-0.707106781186547));
#1814=DIRECTION('',(0.,0.707106781186547,-0.707106781186547));
#1815=DIRECTION('',(-0.707106781186547,0.,0.707106781186547));
#1816=DIRECTION('',(0.707106781186547,-0.707106781186547,0.));
#1817=DIRECTION('center_axis',(0.707106781186548,0.707106781186548,0.));
#1818=DIRECTION('ref_axis',(0.,0.,-1.));
#1819=DIRECTION('',(0.,0.,-1.));
#1820=DIRECTION('center_axis',(0.,0.707106781186548,0.707106781186548));
#1821=DIRECTION('ref_axis',(1.,0.,0.));
#1822=DIRECTION('',(1.,0.,0.));
#1823=DIRECTION('',(0.37796447300923,-0.654653670707978,0.654653670707975));
#1824=DIRECTION('center_axis',(0.612372435695796,0.707106781186547,0.353553390593274));
#1825=DIRECTION('ref_axis',(0.5,0.,-0.866025403784439));
#1826=DIRECTION('',(0.5,0.,-0.866025403784439));
#1827=DIRECTION('center_axis',(0.,1.,0.));
#1828=DIRECTION('ref_axis',(0.,0.,1.));
#1829=DIRECTION('',(0.5,0.,-0.866025403784439));
#1830=DIRECTION('',(1.,0.,0.));
#1831=DIRECTION('',(0.,0.,1.));
#1832=DIRECTION('',(-1.,0.,0.));
#1833=DIRECTION('',(-0.5,0.,0.866025403784439));
#1834=DIRECTION('center_axis',(-0.866025403784439,0.,-0.5));
#1835=DIRECTION('ref_axis',(-0.5,0.,0.866025403784439));
#1836=DIRECTION('',(0.,1.,0.));
#1837=DIRECTION('center_axis',(0.866025403784439,0.,0.5));
#1838=DIRECTION('ref_axis',(0.5,0.,-0.866025403784439));
#1839=DIRECTION('',(0.,1.,0.));
#1840=DIRECTION('center_axis',(0.,0.,1.));
#1841=DIRECTION('ref_axis',(1.,0.,0.));
#1842=DIRECTION('',(0.,-1.,0.));
#1843=DIRECTION('center_axis',(1.,0.,0.));
#1844=DIRECTION('ref_axis',(0.,0.,-1.));
#1845=DIRECTION('',(0.,-1.,0.));
#1846=DIRECTION('center_axis',(1.,0.,0.));
#1847=DIRECTION('ref_axis',(0.,1.,0.));
#1848=DIRECTION('center_axis',(0.,0.,-1.));
#1849=DIRECTION('ref_axis',(-1.,0.,0.));
#1850=DIRECTION('center_axis',(-1.,0.,0.));
#1851=DIRECTION('ref_axis',(0.,1.,0.));
#1852=DIRECTION('center_axis',(-1.,0.,0.));
#1853=DIRECTION('ref_axis',(0.,1.,0.));
#1854=DIRECTION('',(-1.,0.,0.));
#1855=DIRECTION('center_axis',(0.866025403784439,0.,0.5));
#1856=DIRECTION('ref_axis',(0.5,0.,-0.866025403784439));
#1857=DIRECTION('',(0.,1.,0.));
#1858=DIRECTION('center_axis',(0.,0.,1.));
#1859=DIRECTION('ref_axis',(1.,0.,0.));
#1860=DIRECTION('',(0.,-1.,0.));
#1861=DIRECTION('center_axis',(0.707106781186548,0.,0.707106781186548));
#1862=DIRECTION('ref_axis',(0.707106781186548,0.,-0.707106781186548));
#1863=DIRECTION('',(0.,1.,0.));
#1864=DIRECTION('center_axis',(1.,0.,0.));
#1865=DIRECTION('ref_axis',(0.,0.,-1.));
#1866=DIRECTION('',(0.,-1.,0.));
#1867=DIRECTION('center_axis',(0.707106781186549,0.,-0.707106781186546));
#1868=DIRECTION('ref_axis',(-0.707106781186546,0.,-0.707106781186549));
#1869=DIRECTION('',(0.,1.,0.));
#1870=DIRECTION('center_axis',(0.,0.,-1.));
#1871=DIRECTION('ref_axis',(-1.,0.,0.));
#1872=CARTESIAN_POINT('',(0.,0.,0.));
#1873=CARTESIAN_POINT('Origin',(20.3000002980232,-5.00433644096419E-31,
16.3000002384186));
#1874=CARTESIAN_POINT('',(20.3000002980232,2.3,16.));
#1875=CARTESIAN_POINT('',(20.3000002980232,1.,16.));
#1876=CARTESIAN_POINT('',(20.3000002980232,-2.50216822048209E-31,16.));
#1877=CARTESIAN_POINT('',(20.3000002980232,2.3,13.7000002086163));
#1878=CARTESIAN_POINT('',(20.3000002980232,2.3,24.9564152964267));
#1879=CARTESIAN_POINT('',(20.3000002980232,-5.00433644096419E-31,13.7000002086163));
#1880=CARTESIAN_POINT('',(20.3000002980232,-5.00433644096419E-31,13.7000002086163));
#1881=CARTESIAN_POINT('',(20.3000002980232,-5.00433644096419E-31,15.));
#1882=CARTESIAN_POINT('',(20.3000002980232,0.,24.9564152964267));
#1883=CARTESIAN_POINT('',(20.3000002980232,0.575000059604645,15.5750000596046));
#1884=CARTESIAN_POINT('Origin',(14.7000002235174,-3.62382983846032E-31,
13.7000002086163));
#1885=CARTESIAN_POINT('',(14.7000002235174,1.,16.));
#1886=CARTESIAN_POINT('',(14.7000002235174,2.3,16.));
#1887=CARTESIAN_POINT('',(14.7000002235174,-1.81191491923016E-31,16.));
#1888=CARTESIAN_POINT('',(14.7000002235174,-3.62382983846032E-31,15.));
#1889=CARTESIAN_POINT('',(14.7000002235174,-0.0749999478459359,14.9250000521541));
#1890=CARTESIAN_POINT('',(14.7000002235174,-3.62382983846032E-31,13.7000002086163));
#1891=CARTESIAN_POINT('',(14.7000002235174,0.,23.6564152815256));
#1892=CARTESIAN_POINT('',(14.7000002235174,2.3,13.7000002086163));
#1893=CARTESIAN_POINT('',(14.7000002235174,-3.62382983846032E-31,13.7000002086163));
#1894=CARTESIAN_POINT('',(14.7000002235174,2.3,23.6564152815256));
#1895=CARTESIAN_POINT('Origin',(20.3000002980232,-5.00433644096419E-31,
13.7000002086163));
#1896=CARTESIAN_POINT('',(12.5656139758495,0.,13.7000002086163));
#1897=CARTESIAN_POINT('',(12.5656139758495,2.3,13.7000002086163));
#1898=CARTESIAN_POINT('Origin',(14.7000002235174,-3.62382983846032E-31,
-0.3));
#1899=CARTESIAN_POINT('',(14.7000002235174,2.3,0.));
#1900=CARTESIAN_POINT('',(14.7000002235174,1.,0.));
#1901=CARTESIAN_POINT('',(14.7000002235174,-1.81191491923016E-31,0.));
#1902=CARTESIAN_POINT('',(14.7000002235174,2.3,2.30000002980232));
#1903=CARTESIAN_POINT('',(14.7000002235174,2.3,16.6564151772174));
#1904=CARTESIAN_POINT('',(14.7000002235174,-3.62382983846032E-31,2.30000002980232));
#1905=CARTESIAN_POINT('',(14.7000002235174,-3.62382983846032E-31,2.30000002980232));
#1906=CARTESIAN_POINT('',(14.7000002235174,-3.62382983846032E-31,1.));
#1907=CARTESIAN_POINT('',(14.7000002235174,0.,16.6564151772174));
#1908=CARTESIAN_POINT('',(14.7000002235174,0.575,0.425));
#1909=CARTESIAN_POINT('Origin',(20.3000002980232,-5.00433644096419E-31,
2.30000002980232));
#1910=CARTESIAN_POINT('',(20.3000002980232,1.,0.));
#1911=CARTESIAN_POINT('',(20.3000002980232,2.3,0.));
#1912=CARTESIAN_POINT('',(20.3000002980232,-2.50216822048209E-31,0.));
#1913=CARTESIAN_POINT('',(20.3000002980232,-5.00433644096419E-31,1.));
#1914=CARTESIAN_POINT('',(20.3000002980232,-0.0750000074505804,1.07500000745058));
#1915=CARTESIAN_POINT('',(20.3000002980232,-5.00433644096419E-31,2.30000002980232));
#1916=CARTESIAN_POINT('',(20.3000002980232,0.,17.9564151921186));
#1917=CARTESIAN_POINT('',(20.3000002980232,2.3,2.30000002980232));
#1918=CARTESIAN_POINT('',(20.3000002980232,-5.00433644096419E-31,2.30000002980232));
#1919=CARTESIAN_POINT('',(20.3000002980232,2.3,17.9564151921186));
#1920=CARTESIAN_POINT('Origin',(14.7000002235174,-3.62382983846032E-31,
2.30000002980232));
#1921=CARTESIAN_POINT('',(9.76561393859662,0.,2.30000002980232));
#1922=CARTESIAN_POINT('',(9.76561393859662,2.3,2.30000002980232));
#1923=CARTESIAN_POINT('Origin',(9.23760430703402,0.,16.));
#1924=CARTESIAN_POINT('',(29.,1.,16.));
#1925=CARTESIAN_POINT('',(7.03441598035492,1.,16.));
#1926=CARTESIAN_POINT('',(29.,2.3,16.));
#1927=CARTESIAN_POINT('',(29.,0.,16.));
#1928=CARTESIAN_POINT('',(3.53441598035492,2.3,16.));
#1929=CARTESIAN_POINT('Origin',(9.23760430703402,0.,16.));
#1930=CARTESIAN_POINT('',(9.23760430703402,2.3,16.));
#1931=CARTESIAN_POINT('',(3.53441598035492,2.3,16.));
#1932=CARTESIAN_POINT('',(9.23760430703402,1.,16.));
#1933=CARTESIAN_POINT('',(9.23760430703402,0.,16.));
#1934=CARTESIAN_POINT('',(7.03441598035492,1.,16.));
#1935=CARTESIAN_POINT('Origin',(7.03441598035492,0.5,15.5));
#1936=CARTESIAN_POINT('',(29.,0.,15.));
#1937=CARTESIAN_POINT('',(7.03441598035492,0.,15.));
#1938=CARTESIAN_POINT('',(29.,0.,15.));
#1939=CARTESIAN_POINT('Origin',(4.83122765367583,2.3,33.6128303544349));
#1940=CARTESIAN_POINT('',(30.,2.3,15.));
#1941=CARTESIAN_POINT('',(17.0545993248102,2.3,27.9454006751898));
#1942=CARTESIAN_POINT('',(30.,2.3,1.));
#1943=CARTESIAN_POINT('',(30.,2.3,24.8064151772174));
#1944=CARTESIAN_POINT('',(29.,2.3,0.));
#1945=CARTESIAN_POINT('',(29.8610145020277,2.3,0.861014502027699));
#1946=CARTESIAN_POINT('',(13.9156138268379,2.3,0.));
#1947=CARTESIAN_POINT('',(0.,2.3,0.));
#1948=CARTESIAN_POINT('',(13.9156138268379,2.3,0.));
#1949=CARTESIAN_POINT('',(-20.3375446926483,2.3,35.2256607088697));
#1950=CARTESIAN_POINT('',(-7.54848778829984,2.3,13.0743643696486));
#1951=CARTESIAN_POINT('',(-34.3375446926483,2.3,35.2256607088697));
#1952=CARTESIAN_POINT('',(-11.2531585194863,2.3,35.2256607088697));
#1953=CARTESIAN_POINT('',(-34.3375446926483,2.3,39.8256607088697));
#1954=CARTESIAN_POINT('',(-34.3375446926483,2.3,35.5692455316523));
#1955=CARTESIAN_POINT('',(-23.3375446926483,2.3,39.8256607088697));
#1956=CARTESIAN_POINT('',(-11.2531585194863,2.3,39.8256607088697));
#1957=CARTESIAN_POINT('',(-23.3375446926483,2.3,67.2256607088697));
#1958=CARTESIAN_POINT('',(-23.3375446926483,2.3,34.4192455316523));
#1959=CARTESIAN_POINT('',(-20.3375446926483,2.3,67.2256607088697));
#1960=CARTESIAN_POINT('',(-11.2531585194863,2.3,67.2256607088697));
#1961=CARTESIAN_POINT('',(-10.7890569043485,2.3,50.6871947240834));
#1962=CARTESIAN_POINT('Origin',(30.,0.,0.));
#1963=CARTESIAN_POINT('',(0.,1.,0.));
#1964=CARTESIAN_POINT('',(17.4156138268379,1.,0.));
#1965=CARTESIAN_POINT('',(0.,0.,0.));
#1966=CARTESIAN_POINT('Origin',(30.,0.,0.));
#1967=CARTESIAN_POINT('',(29.,1.,0.));
#1968=CARTESIAN_POINT('',(29.,0.,0.));
#1969=CARTESIAN_POINT('',(17.4156138268379,1.,0.));
#1970=CARTESIAN_POINT('Origin',(17.4156138268379,0.5,0.5));
#1971=CARTESIAN_POINT('',(0.577350269189625,0.,0.999999999999996));
#1972=CARTESIAN_POINT('',(17.4156138268379,0.,1.));
#1973=CARTESIAN_POINT('',(0.,1.,0.));
#1974=CARTESIAN_POINT('Origin',(-20.3375446926483,18.,35.2256607088697));
#1975=CARTESIAN_POINT('',(-20.3375446926483,2.,35.2256607088697));
#1976=CARTESIAN_POINT('',(-20.3375446926483,0.,35.2256607088697));
#1977=CARTESIAN_POINT('',(-34.3375446926483,2.,35.2256607088697));
#1978=CARTESIAN_POINT('',(-7.75315851948626,2.,35.2256607088697));
#1979=CARTESIAN_POINT('',(-34.3375446926483,0.,35.2256607088697));
#1980=CARTESIAN_POINT('Origin',(0.,0.,0.));
#1981=CARTESIAN_POINT('',(-20.3375446926483,1.,35.2256607088697));
#1982=CARTESIAN_POINT('',(-3.33674389414992,1.,5.77940995651289));
#1983=CARTESIAN_POINT('',(-20.3375446926483,0.,35.2256607088697));
#1984=CARTESIAN_POINT('Origin',(-20.3375446926483,1.,37.2256607088697));
#1985=CARTESIAN_POINT('',(-20.3375446926483,3.45126646034192E-31,37.2256607088697));
#1986=CARTESIAN_POINT('',(-20.3375446926483,5.23336815916879,26.7589243905321));
#1987=CARTESIAN_POINT('',(-20.3375446926483,3.45126646034192E-31,39.2256607088697));
#1988=CARTESIAN_POINT('',(-20.3375446926483,0.,35.4192455316523));
#1989=CARTESIAN_POINT('',(-20.3375446926483,2.,35.2256607088697));
#1990=CARTESIAN_POINT('Origin',(-6.24047508640762,0.5,11.8088199130258));
#1991=CARTESIAN_POINT('',(-9.14420627866533,0.,17.8382298695387));
#1992=CARTESIAN_POINT('Origin',(-7.75315851948626,1.,37.2256607088697));
#1993=CARTESIAN_POINT('',(-34.3375446926483,0.,39.2256607088697));
#1994=CARTESIAN_POINT('',(-34.3375446926483,1.74,35.7456607088697));
#1995=CARTESIAN_POINT('',(-14.7531585194863,0.,39.2256607088697));
#1996=CARTESIAN_POINT('Origin',(-34.3375446926483,9.,37.5256607088697));
#1997=CARTESIAN_POINT('',(-34.3375446926483,0.,39.8256607088697));
#1998=CARTESIAN_POINT('',(-34.3375446926483,0.,65.2256607088697));
#1999=CARTESIAN_POINT('',(-34.3375446926483,18.,39.8256607088697));
#2000=CARTESIAN_POINT('Origin',(29.,0.,1.));
#2001=CARTESIAN_POINT('',(30.,1.,1.));
#2002=CARTESIAN_POINT('',(30.,1.,1.));
#2003=CARTESIAN_POINT('',(29.,0.,1.));
#2004=CARTESIAN_POINT('',(29.,0.,1.));
#2005=CARTESIAN_POINT('',(29.,1.,0.));
#2006=CARTESIAN_POINT('Origin',(29.,0.,15.));
#2007=CARTESIAN_POINT('',(30.,1.,15.));
#2008=CARTESIAN_POINT('',(29.,1.,16.));
#2009=CARTESIAN_POINT('',(30.,1.,15.));
#2010=CARTESIAN_POINT('Origin',(-10.3470696062407,0.5,48.9216502674606));
#2011=CARTESIAN_POINT('',(-20.3375446926483,1.,67.2256607088697));
#2012=CARTESIAN_POINT('',(-9.9140569043485,1.,49.1716502674607));
#2013=CARTESIAN_POINT('',(-20.3375446926483,0.,65.2256607088697));
#2014=CARTESIAN_POINT('',(-20.3375446926483,-9.21080208828183,46.8040565323061));
#2015=CARTESIAN_POINT('',(8.66025403784439,0.,15.));
#2016=CARTESIAN_POINT('',(-10.7800823081329,0.,48.6716502674607));
#2017=CARTESIAN_POINT('',(8.66025403784439,0.,15.));
#2018=CARTESIAN_POINT('Origin',(7.03441598035492,0.5,15.5));
#2019=CARTESIAN_POINT('',(7.03441598035492,0.,15.));
#2020=CARTESIAN_POINT('Origin',(29.5,0.5,24.8064151772174));
#2021=CARTESIAN_POINT('',(29.,0.,24.8064151772174));
#2022=CARTESIAN_POINT('',(30.,1.,24.8064151772174));
#2023=CARTESIAN_POINT('Origin',(17.4156138268379,0.5,0.5));
#2024=CARTESIAN_POINT('',(17.4156138268379,0.,1.));
#2025=CARTESIAN_POINT('Origin',(4.83122765367583,0.,33.6128303544349));
#2026=CARTESIAN_POINT('',(-23.3375446926483,0.,65.2256607088697));
#2027=CARTESIAN_POINT('',(-20.3375446926483,0.,65.2256607088697));
#2028=CARTESIAN_POINT('',(-23.3375446926483,0.,39.8256607088697));
#2029=CARTESIAN_POINT('',(-23.3375446926483,0.,67.2256607088697));
#2030=CARTESIAN_POINT('',(-20.3375446926483,0.,39.8256607088697));
#2031=CARTESIAN_POINT('Origin',(-23.3375446926483,0.,35.2256607088697));
#2032=CARTESIAN_POINT('',(-23.3375446926483,0.,39.8256607088697));
#2033=CARTESIAN_POINT('',(-23.3375446926483,1.,67.2256607088697));
#2034=CARTESIAN_POINT('',(-23.3375446926483,-9.21080208828183,46.8040565323061));
#2035=CARTESIAN_POINT('',(-23.3375446926483,0.,67.2256607088697));
#2036=CARTESIAN_POINT('Origin',(-20.3375446926483,0.,39.8256607088697));
#2037=CARTESIAN_POINT('Origin',(-20.3375446926483,1.11022302462516E-15,
65.2256607088697));
#2038=CARTESIAN_POINT('',(-20.3375446926483,1.,67.2256607088697));
#2039=CARTESIAN_POINT('Origin',(-20.3375446926483,2.3,67.2256607088697));
#2040=CARTESIAN_POINT('',(-20.3375446926483,0.,67.2256607088697));
#2041=CARTESIAN_POINT('Origin',(-20.3375446926483,0.,67.2256607088697));
#2042=CARTESIAN_POINT('Origin',(29.5,0.,15.5));
#2043=CARTESIAN_POINT('',(30.,0.,15.));
#2044=CARTESIAN_POINT('Origin',(30.,0.,16.));
#2045=CARTESIAN_POINT('',(30.,0.,1.));
#2046=CARTESIAN_POINT('Origin',(29.5,0.,0.5));
#2047=CARTESIAN_POINT('Origin',(13.3688022839022,0.5,15.5));
#2048=CARTESIAN_POINT('',(20.0000002980232,-4.93038073109972E-31,15.));
#2049=CARTESIAN_POINT('',(20.0000002980232,1.,16.));
#2050=CARTESIAN_POINT('',(20.0000002980232,0.5,15.5));
#2051=CARTESIAN_POINT('',(15.0000002235174,1.,16.));
#2052=CARTESIAN_POINT('',(13.3688022839022,1.,16.));
#2053=CARTESIAN_POINT('',(15.0000002235174,-3.69778554832479E-31,15.));
#2054=CARTESIAN_POINT('',(15.0000002235174,5.21540641923446E-8,15.0000000521541));
#2055=CARTESIAN_POINT('',(13.3688022839022,0.,15.));
#2056=CARTESIAN_POINT('Origin',(17.5000002607703,-4.31408313971226E-31,
15.0000002235174));
#2057=CARTESIAN_POINT('',(15.0000002235174,-3.69778554832479E-31,14.0000002086163));
#2058=CARTESIAN_POINT('',(15.0000002235174,-3.69778554832479E-31,16.0000002384186));
#2059=CARTESIAN_POINT('',(20.0000002980232,-4.93038073109972E-31,14.0000002086163));
#2060=CARTESIAN_POINT('',(15.0000002235174,-3.69778554832479E-31,14.0000002086163));
#2061=CARTESIAN_POINT('',(20.0000002980232,-4.93038073109972E-31,14.0000002086163));
#2062=CARTESIAN_POINT('Origin',(15.0000002235174,-3.69778554832479E-31,
14.0000002086163));
#2063=CARTESIAN_POINT('',(15.0000002235174,2.3,16.));
#2064=CARTESIAN_POINT('',(15.0000002235174,-3.69778554832479E-31,16.));
#2065=CARTESIAN_POINT('',(15.0000002235174,2.3,14.0000002086163));
#2066=CARTESIAN_POINT('',(15.0000002235174,2.3,23.8064152815256));
#2067=CARTESIAN_POINT('',(15.0000002235174,-3.69778554832479E-31,14.0000002086163));
#2068=CARTESIAN_POINT('Origin',(23.7500001303852,0.5,0.5));
#2069=CARTESIAN_POINT('',(15.0000002235174,-3.69778554832479E-31,1.));
#2070=CARTESIAN_POINT('',(15.0000002235174,1.,0.));
#2071=CARTESIAN_POINT('',(15.0000002235174,0.5,0.5));
#2072=CARTESIAN_POINT('',(20.0000002980232,1.,0.));
#2073=CARTESIAN_POINT('',(23.7500001303852,1.,0.));
#2074=CARTESIAN_POINT('',(20.0000002980232,-4.93038073109972E-31,1.));
#2075=CARTESIAN_POINT('',(20.0000002980232,-7.45058056916825E-9,1.00000000745058));
#2076=CARTESIAN_POINT('',(23.7500001303852,0.,1.));
#2077=CARTESIAN_POINT('Origin',(17.5000002607703,-4.31408313971226E-31,
1.00000001490116));
#2078=CARTESIAN_POINT('',(20.0000002980232,-4.93038073109972E-31,2.00000002980232));
#2079=CARTESIAN_POINT('',(20.0000002980232,-4.93038073109972E-31,0.));
#2080=CARTESIAN_POINT('',(15.0000002235174,-3.69778554832479E-31,2.00000002980232));
#2081=CARTESIAN_POINT('',(20.0000002980232,-4.93038073109972E-31,2.00000002980232));
#2082=CARTESIAN_POINT('',(15.0000002235174,-3.69778554832479E-31,2.00000002980232));
#2083=CARTESIAN_POINT('Origin',(20.0000002980232,-4.93038073109972E-31,
2.00000002980232));
#2084=CARTESIAN_POINT('',(20.0000002980232,2.3,0.));
#2085=CARTESIAN_POINT('',(20.0000002980232,-4.93038073109972E-31,0.));
#2086=CARTESIAN_POINT('',(20.0000002980232,2.3,2.00000002980232));
#2087=CARTESIAN_POINT('',(20.0000002980232,2.3,17.8064151921186));
#2088=CARTESIAN_POINT('',(20.0000002980232,-4.93038073109972E-31,2.00000002980232));
#2089=CARTESIAN_POINT('Origin',(15.0000002235174,-3.69778554832479E-31,
2.00000002980232));
#2090=CARTESIAN_POINT('',(15.0000002235174,2.3,2.00000002980232));
#2091=CARTESIAN_POINT('',(6.41561393859662,2.3,2.00000002980232));
#2092=CARTESIAN_POINT('',(15.0000002235174,-3.69778554832479E-31,2.00000002980232));
#2093=CARTESIAN_POINT('Origin',(15.0000002235174,-3.69778554832479E-31,
0.));
#2094=CARTESIAN_POINT('',(15.0000002235174,2.3,0.));
#2095=CARTESIAN_POINT('',(15.0000002235174,2.3,16.8064151772174));
#2096=CARTESIAN_POINT('',(15.0000002235174,-3.69778554832479E-31,0.));
#2097=CARTESIAN_POINT('Origin',(20.0000002980232,-4.93038073109972E-31,
14.0000002086163));
#2098=CARTESIAN_POINT('',(20.0000002980232,2.3,14.0000002086163));
#2099=CARTESIAN_POINT('',(8.91561397584953,2.3,14.0000002086163));
#2100=CARTESIAN_POINT('',(20.0000002980232,-4.93038073109972E-31,14.0000002086163));
#2101=CARTESIAN_POINT('Origin',(20.0000002980232,-4.93038073109972E-31,
16.));
#2102=CARTESIAN_POINT('',(20.0000002980232,2.3,16.));
#2103=CARTESIAN_POINT('',(20.0000002980232,2.3,24.8064151772174));
#2104=CARTESIAN_POINT('',(20.0000002980232,-4.93038073109972E-31,16.));
#2105=CARTESIAN_POINT('Origin',(-2.16877234632417,2.3,33.6128303544349));
#2106=CARTESIAN_POINT('',(29.,2.3,0.));
#2107=CARTESIAN_POINT('',(13.9156138268379,2.3,0.));
#2108=CARTESIAN_POINT('',(30.,2.3,1.));
#2109=CARTESIAN_POINT('',(29.8610145020277,2.3,0.861014502027699));
#2110=CARTESIAN_POINT('',(30.,2.3,15.));
#2111=CARTESIAN_POINT('',(30.,2.3,24.8064151772174));
#2112=CARTESIAN_POINT('',(29.,2.3,16.));
#2113=CARTESIAN_POINT('',(17.0545993248102,2.3,27.9454006751898));
#2114=CARTESIAN_POINT('',(3.53441598035492,2.3,16.));
#2115=CARTESIAN_POINT('',(9.23760430703402,2.3,16.));
#2116=CARTESIAN_POINT('',(3.53441598035492,2.3,16.));
#2117=CARTESIAN_POINT('',(-20.3375446926483,2.3,67.2256607088697));
#2118=CARTESIAN_POINT('',(-10.7890569043485,2.3,50.6871947240834));
#2119=CARTESIAN_POINT('',(-23.3375446926483,2.3,67.2256607088697));
#2120=CARTESIAN_POINT('',(-11.2531585194863,2.3,67.2256607088697));
#2121=CARTESIAN_POINT('',(-23.3375446926483,2.3,62.6256607088697));
#2122=CARTESIAN_POINT('',(-23.3375446926483,2.3,34.4192455316523));
#2123=CARTESIAN_POINT('',(-20.3375446926483,2.3,62.6256607088697));
#2124=CARTESIAN_POINT('',(-20.3375446926483,2.3,62.6256607088697));
#2125=CARTESIAN_POINT('',(7.90969868789787,2.3,13.7));
#2126=CARTESIAN_POINT('',(-11.9059153330527,2.3,48.0216502674607));
#2127=CARTESIAN_POINT('',(27.7,2.3,13.7));
#2128=CARTESIAN_POINT('',(7.03441598035492,2.3,13.7));
#2129=CARTESIAN_POINT('',(27.7,2.3,2.3));
#2130=CARTESIAN_POINT('',(27.7,2.3,24.8064151772174));
#2131=CARTESIAN_POINT('',(1.32790561913614,2.3,2.3));
#2132=CARTESIAN_POINT('',(17.4156138268379,2.3,2.3));
#2133=CARTESIAN_POINT('',(-20.3375446926483,2.3,39.8256607088697));
#2134=CARTESIAN_POINT('',(-4.68162935959564,2.3,12.7088199130258));
#2135=CARTESIAN_POINT('',(-34.3375446926483,2.3,39.8256607088697));
#2136=CARTESIAN_POINT('',(-11.2531585194863,2.3,39.8256607088697));
#2137=CARTESIAN_POINT('',(-34.3375446926483,2.3,35.2256607088697));
#2138=CARTESIAN_POINT('',(-34.3375446926483,2.3,35.5692455316523));
#2139=CARTESIAN_POINT('',(-20.3375446926483,2.3,35.2256607088697));
#2140=CARTESIAN_POINT('',(-11.2531585194863,2.3,35.2256607088697));
#2141=CARTESIAN_POINT('',(0.,2.3,0.));
#2142=CARTESIAN_POINT('',(-7.54848778829984,2.3,13.0743643696486));
#2143=CARTESIAN_POINT('',(13.9156138268379,2.3,0.));
#2144=CARTESIAN_POINT('Origin',(0.,0.,0.));
#2145=CARTESIAN_POINT('',(-20.3375446926483,16.,35.2256607088697));
#2146=CARTESIAN_POINT('',(-20.3375446926483,0.,35.2256607088697));
#2147=CARTESIAN_POINT('',(-20.3375446926483,17.,35.2256607088697));
#2148=CARTESIAN_POINT('',(-20.3375446926483,8.,35.2256607088697));
#2149=CARTESIAN_POINT('',(0.,17.,0.));
#2150=CARTESIAN_POINT('',(-6.67348778829984,17.,11.5588199130258));
#2151=CARTESIAN_POINT('',(0.,0.,0.));
#2152=CARTESIAN_POINT('Origin',(-20.3375446926483,18.,35.2256607088697));
#2153=CARTESIAN_POINT('',(-34.3375446926483,16.,35.2256607088697));
#2154=CARTESIAN_POINT('',(-34.3375446926483,0.,35.2256607088697));
#2155=CARTESIAN_POINT('',(-7.75315851948626,16.,35.2256607088697));
#2156=CARTESIAN_POINT('Origin',(-34.3375446926483,9.,37.5256607088697));
#2157=CARTESIAN_POINT('',(-34.3375446926483,18.,39.8256607088697));
#2158=CARTESIAN_POINT('',(-34.3375446926483,18.,39.8256607088697));
#2159=CARTESIAN_POINT('',(-34.3375446926483,18.,39.2256607088697));
#2160=CARTESIAN_POINT('',(-34.3375446926483,18.,15.));
#2161=CARTESIAN_POINT('',(-34.3375446926483,16.26,35.7456607088697));
#2162=CARTESIAN_POINT('Origin',(-20.3375446926483,0.,39.8256607088697));
#2163=CARTESIAN_POINT('',(-20.3375446926483,15.7,39.8256607088697));
#2164=CARTESIAN_POINT('',(-20.3375446926483,0.,39.8256607088697));
#2165=CARTESIAN_POINT('',(-23.3375446926483,15.7,39.8256607088697));
#2166=CARTESIAN_POINT('',(-20.3375446926483,15.7,39.8256607088697));
#2167=CARTESIAN_POINT('',(-23.3375446926483,18.,39.8256607088697));
#2168=CARTESIAN_POINT('',(-23.3375446926483,0.,39.8256607088697));
#2169=CARTESIAN_POINT('',(-20.3375446926483,18.,39.8256607088697));
#2170=CARTESIAN_POINT('Origin',(-23.3375446926483,0.,35.2256607088697));
#2171=CARTESIAN_POINT('',(-23.3375446926483,17.,67.2256607088697));
#2172=CARTESIAN_POINT('',(-23.3375446926483,0.,67.2256607088697));
#2173=CARTESIAN_POINT('',(-23.3375446926483,18.,65.2256607088697));
#2174=CARTESIAN_POINT('',(-23.3375446926483,25.4108020882818,50.4040565323061));
#2175=CARTESIAN_POINT('',(-23.3375446926483,18.,67.2256607088697));
#2176=CARTESIAN_POINT('',(-23.3375446926483,15.7,62.6256607088697));
#2177=CARTESIAN_POINT('',(-23.3375446926483,15.7,34.4192455316523));
#2178=CARTESIAN_POINT('',(-23.3375446926483,0.,62.6256607088697));
#2179=CARTESIAN_POINT('Origin',(-20.3375446926483,15.7,62.6256607088697));
#2180=CARTESIAN_POINT('',(-20.3375446926483,15.7,62.6256607088697));
#2181=CARTESIAN_POINT('',(-20.3375446926483,0.,62.6256607088697));
#2182=CARTESIAN_POINT('',(-20.3375446926483,15.7,62.6256607088697));
#2183=CARTESIAN_POINT('Origin',(-20.3375446926483,17.,67.2256607088697));
#2184=CARTESIAN_POINT('',(-20.3375446926483,18.,65.2256607088697));
#2185=CARTESIAN_POINT('',(-20.3375446926483,17.,67.2256607088697));
#2186=CARTESIAN_POINT('',(-20.3375446926483,25.4108020882818,50.4040565323061));
#2187=CARTESIAN_POINT('',(-20.3375446926483,18.,65.2256607088697));
#2188=CARTESIAN_POINT('',(-20.3375446926483,17.,67.2256607088697));
#2189=CARTESIAN_POINT('Origin',(-20.3375446926483,2.3,67.2256607088697));
#2190=CARTESIAN_POINT('',(-20.3375446926483,0.,67.2256607088697));
#2191=CARTESIAN_POINT('Origin',(-20.3375446926483,17.,37.2256607088697));
#2192=CARTESIAN_POINT('',(-20.3375446926483,18.,37.2256607088697));
#2193=CARTESIAN_POINT('',(-20.3375446926483,12.7666318408312,26.7589243905321));
#2194=CARTESIAN_POINT('',(-20.3375446926483,18.,39.2256607088697));
#2195=CARTESIAN_POINT('',(-20.3375446926483,18.,39.2256607088697));
#2196=CARTESIAN_POINT('',(-20.3375446926483,18.,35.4192455316523));
#2197=CARTESIAN_POINT('Origin',(-6.24047508640762,17.5,11.8088199130258));
#2198=CARTESIAN_POINT('',(0.577350269189627,18.,1.));
#2199=CARTESIAN_POINT('',(-9.14420627866532,18.,17.8382298695387));
#2200=CARTESIAN_POINT('',(0.577350269189627,18.,1.));
#2201=CARTESIAN_POINT('Origin',(4.83122765367583,18.,33.6128303544349));
#2202=CARTESIAN_POINT('',(-14.7531585194863,18.,39.2256607088697));
#2203=CARTESIAN_POINT('',(8.66025403784439,18.,15.));
#2204=CARTESIAN_POINT('',(-10.7800823081329,18.,48.6716502674607));
#2205=CARTESIAN_POINT('',(29.,18.,15.));
#2206=CARTESIAN_POINT('',(7.03441598035492,18.,15.));
#2207=CARTESIAN_POINT('',(29.,18.,1.));
#2208=CARTESIAN_POINT('',(29.,18.,24.8064151772174));
#2209=CARTESIAN_POINT('',(17.4156138268379,18.,1.));
#2210=CARTESIAN_POINT('Origin',(-7.75315851948626,17.,37.2256607088697));
#2211=CARTESIAN_POINT('Origin',(29.,17.,0.));
#2212=CARTESIAN_POINT('',(30.,17.,1.));
#2213=CARTESIAN_POINT('',(30.,17.,1.));
#2214=CARTESIAN_POINT('',(29.,17.,0.));
#2215=CARTESIAN_POINT('',(29.,17.,0.));
#2216=CARTESIAN_POINT('',(29.,18.,1.));
#2217=CARTESIAN_POINT('Origin',(17.4156138268379,17.5,0.5));
#2218=CARTESIAN_POINT('',(17.4156138268379,17.,0.));
#2219=CARTESIAN_POINT('Origin',(30.,17.,15.));
#2220=CARTESIAN_POINT('',(29.,17.,16.));
#2221=CARTESIAN_POINT('',(29.,17.,16.));
#2222=CARTESIAN_POINT('',(30.,17.,15.));
#2223=CARTESIAN_POINT('',(30.,17.,15.));
#2224=CARTESIAN_POINT('',(29.,18.,15.));
#2225=CARTESIAN_POINT('Origin',(29.5,17.5,24.8064151772174));
#2226=CARTESIAN_POINT('',(30.,17.,24.8064151772174));
#2227=CARTESIAN_POINT('Origin',(7.03441598035492,17.5,15.5));
#2228=CARTESIAN_POINT('',(9.23760430703402,17.,16.));
#2229=CARTESIAN_POINT('',(7.03441598035492,17.,16.));
#2230=CARTESIAN_POINT('',(8.66025403784439,18.,15.));
#2231=CARTESIAN_POINT('Origin',(-10.3470696062407,17.5,48.9216502674606));
#2232=CARTESIAN_POINT('',(-9.9140569043485,17.,49.1716502674607));
#2233=CARTESIAN_POINT('Origin',(4.83122765367583,15.7,33.6128303544349));
#2234=CARTESIAN_POINT('',(1.32790561913614,15.7,2.3));
#2235=CARTESIAN_POINT('',(-4.68162935959564,15.7,12.7088199130258));
#2236=CARTESIAN_POINT('',(27.7,15.7,2.3));
#2237=CARTESIAN_POINT('',(17.4156138268379,15.7,2.3));
#2238=CARTESIAN_POINT('',(27.7,15.7,13.7));
#2239=CARTESIAN_POINT('',(27.7,15.7,24.8064151772174));
#2240=CARTESIAN_POINT('',(7.90969868789787,15.7,13.7));
#2241=CARTESIAN_POINT('',(7.03441598035492,15.7,13.7));
#2242=CARTESIAN_POINT('',(-11.9059153330527,15.7,48.0216502674607));
#2243=CARTESIAN_POINT('Origin',(1.99185842870421,0.,1.15));
#2244=CARTESIAN_POINT('',(1.32790561913614,0.,2.3));
#2245=CARTESIAN_POINT('Origin',(-22.3294031213526,0.,66.0756607088697));
#2246=CARTESIAN_POINT('',(7.90969868789788,0.,13.7));
#2247=CARTESIAN_POINT('Origin',(9.23760430703402,0.,13.7));
#2248=CARTESIAN_POINT('',(27.7,0.,13.7));
#2249=CARTESIAN_POINT('Origin',(27.7,0.,16.));
#2250=CARTESIAN_POINT('',(27.7,0.,2.3));
#2251=CARTESIAN_POINT('',(27.7,6.5,8.));
#2252=CARTESIAN_POINT('Origin',(27.7,9.,8.));
#2253=CARTESIAN_POINT('Origin',(30.,0.,2.3));
#2254=CARTESIAN_POINT('Origin',(30.,9.,8.));
#2255=CARTESIAN_POINT('',(30.,6.5,8.));
#2256=CARTESIAN_POINT('Origin',(30.,9.,8.));
#2257=CARTESIAN_POINT('',(30.,6.5,8.));
#2258=CARTESIAN_POINT('Origin',(-20.3375446926483,0.,67.2256607088697));
#2259=CARTESIAN_POINT('',(9.23760430703402,0.,16.));
#2260=CARTESIAN_POINT('Origin',(9.23760430703402,0.,16.));
#2261=CARTESIAN_POINT('',(29.,0.,16.));
#2262=CARTESIAN_POINT('Origin',(29.5,0.,15.5));
#2263=CARTESIAN_POINT('',(30.,0.,15.));
#2264=CARTESIAN_POINT('Origin',(30.,0.,16.));
#2265=CARTESIAN_POINT('',(30.,0.,1.));
#2266=CARTESIAN_POINT('Origin',(29.5,0.,0.5));
#2267=CARTESIAN_POINT('',(29.,0.,0.));
#2268=CARTESIAN_POINT('Origin',(30.,0.,0.));
#2269=UNCERTAINTY_MEASURE_WITH_UNIT(LENGTH_MEASURE(0.01),#2273,
'DISTANCE_ACCURACY_VALUE',
'Maximum model space distance between geometric entities at asserted c
onnectivities');
#2270=UNCERTAINTY_MEASURE_WITH_UNIT(LENGTH_MEASURE(0.01),#2273,
'DISTANCE_ACCURACY_VALUE',
'Maximum model space distance between geometric entities at asserted c
onnectivities');
#2271=(
GEOMETRIC_REPRESENTATION_CONTEXT(3)
GLOBAL_UNCERTAINTY_ASSIGNED_CONTEXT((#2269))
GLOBAL_UNIT_ASSIGNED_CONTEXT((#2273,#2275,#2276))
REPRESENTATION_CONTEXT('','3D')
);
#2272=(
GEOMETRIC_REPRESENTATION_CONTEXT(3)
GLOBAL_UNCERTAINTY_ASSIGNED_CONTEXT((#2270))
GLOBAL_UNIT_ASSIGNED_CONTEXT((#2273,#2275,#2276))
REPRESENTATION_CONTEXT('','3D')
);
#2273=(
LENGTH_UNIT()
NAMED_UNIT(*)
SI_UNIT(.MILLI.,.METRE.)
);
#2274=(
LENGTH_UNIT()
NAMED_UNIT(*)
SI_UNIT($,.METRE.)
);
#2275=(
NAMED_UNIT(*)
PLANE_ANGLE_UNIT()
SI_UNIT($,.RADIAN.)
);
#2276=(
NAMED_UNIT(*)
SI_UNIT($,.STERADIAN.)
SOLID_ANGLE_UNIT()
);
#2277=SHAPE_DEFINITION_REPRESENTATION(#2278,#2279);
#2278=PRODUCT_DEFINITION_SHAPE('',$,#2281);
#2279=SHAPE_REPRESENTATION('',(#1441),#2271);
#2280=PRODUCT_DEFINITION_CONTEXT('part definition',#2285,'design');
#2281=PRODUCT_DEFINITION('Leg struts','Leg struts v4',#2282,#2280);
#2282=PRODUCT_DEFINITION_FORMATION('',$,#2287);
#2283=PRODUCT_RELATED_PRODUCT_CATEGORY('Leg struts v4','Leg struts v4',
(#2287));
#2284=APPLICATION_PROTOCOL_DEFINITION('international standard',
'automotive_design',2009,#2285);
#2285=APPLICATION_CONTEXT(
'Core Data for Automotive Mechanical Design Process');
#2286=PRODUCT_CONTEXT('part definition',#2285,'mechanical');
#2287=PRODUCT('Leg struts','Leg struts v4',$,(#2286));
#2288=PRESENTATION_STYLE_ASSIGNMENT((#2289));
#2289=SURFACE_STYLE_USAGE(.BOTH.,#2290);
#2290=SURFACE_SIDE_STYLE('',(#2291));
#2291=SURFACE_STYLE_FILL_AREA(#2292);
#2292=FILL_AREA_STYLE('Steel - Satin',(#2293));
#2293=FILL_AREA_STYLE_COLOUR('Steel - Satin',#2294);
#2294=COLOUR_RGB('Steel - Satin',0.627450980392157,0.627450980392157,0.627450980392157);
ENDSEC;
END-ISO-10303-21;
