ISO-10303-21;
HEADER;
/* Generated by software containing ST-Developer
 * from STEP Tools, Inc. (www.steptools.com) 
 */

FILE_DESCRIPTION(
/* description */ (''),
/* implementation_level */ '2;1');

FILE_NAME(
/* name */ 'OLED Cover.step',
/* time_stamp */ '2026-03-25T17:51:51Z',
/* author */ (''),
/* organization */ (''),
/* preprocessor_version */ 'ST-DEVELOPER v20.1',
/* originating_system */ 'Autodesk Translation Framework v14.24.0.0',
/* authorisation */ '');

FILE_SCHEMA (('AUTOMOTIVE_DESIGN { 1 0 10303 214 3 1 1 }'));
ENDSEC;

DATA;
#10=MECHANICAL_DESIGN_GEOMETRIC_PRESENTATION_REPRESENTATION('',(#13,#14),
#1907);
#11=SHAPE_REPRESENTATION_RELATIONSHIP('SRR','None',#1914,#12);
#12=ADVANCED_BREP_SHAPE_REPRESENTATION('',(#15,#16),#1906);
#13=STYLED_ITEM('',(#1923),#15);
#14=STYLED_ITEM('',(#1923),#16);
#15=MANIFOLD_SOLID_BREP('Body1',#1124);
#16=MANIFOLD_SOLID_BREP('Body2',#1125);
#17=FACE_BOUND('',#143,.T.);
#18=FACE_BOUND('',#157,.T.);
#19=FACE_BOUND('',#158,.T.);
#20=FACE_BOUND('',#159,.T.);
#21=FACE_BOUND('',#160,.T.);
#22=FACE_BOUND('',#161,.T.);
#23=FACE_BOUND('',#163,.T.);
#24=FACE_BOUND('',#170,.T.);
#25=FACE_BOUND('',#196,.T.);
#26=PLANE('',#1142);
#27=PLANE('',#1146);
#28=PLANE('',#1150);
#29=PLANE('',#1154);
#30=PLANE('',#1155);
#31=PLANE('',#1159);
#32=PLANE('',#1163);
#33=PLANE('',#1167);
#34=PLANE('',#1171);
#35=PLANE('',#1176);
#36=PLANE('',#1177);
#37=PLANE('',#1178);
#38=PLANE('',#1179);
#39=PLANE('',#1180);
#40=PLANE('',#1183);
#41=PLANE('',#1186);
#42=PLANE('',#1189);
#43=PLANE('',#1192);
#44=PLANE('',#1193);
#45=PLANE('',#1194);
#46=PLANE('',#1195);
#47=PLANE('',#1196);
#48=PLANE('',#1197);
#49=PLANE('',#1198);
#50=PLANE('',#1207);
#51=PLANE('',#1216);
#52=PLANE('',#1218);
#53=PLANE('',#1220);
#54=PLANE('',#1222);
#55=PLANE('',#1224);
#56=PLANE('',#1227);
#57=PLANE('',#1230);
#58=PLANE('',#1233);
#59=PLANE('',#1236);
#60=PLANE('',#1239);
#61=PLANE('',#1242);
#62=PLANE('',#1245);
#63=PLANE('',#1248);
#64=FACE_OUTER_BOUND('',#126,.T.);
#65=FACE_OUTER_BOUND('',#127,.T.);
#66=FACE_OUTER_BOUND('',#128,.T.);
#67=FACE_OUTER_BOUND('',#129,.T.);
#68=FACE_OUTER_BOUND('',#130,.T.);
#69=FACE_OUTER_BOUND('',#131,.T.);
#70=FACE_OUTER_BOUND('',#132,.T.);
#71=FACE_OUTER_BOUND('',#133,.T.);
#72=FACE_OUTER_BOUND('',#134,.T.);
#73=FACE_OUTER_BOUND('',#135,.T.);
#74=FACE_OUTER_BOUND('',#136,.T.);
#75=FACE_OUTER_BOUND('',#137,.T.);
#76=FACE_OUTER_BOUND('',#138,.T.);
#77=FACE_OUTER_BOUND('',#139,.T.);
#78=FACE_OUTER_BOUND('',#140,.T.);
#79=FACE_OUTER_BOUND('',#141,.T.);
#80=FACE_OUTER_BOUND('',#142,.T.);
#81=FACE_OUTER_BOUND('',#144,.T.);
#82=FACE_OUTER_BOUND('',#145,.T.);
#83=FACE_OUTER_BOUND('',#146,.T.);
#84=FACE_OUTER_BOUND('',#147,.T.);
#85=FACE_OUTER_BOUND('',#148,.T.);
#86=FACE_OUTER_BOUND('',#149,.T.);
#87=FACE_OUTER_BOUND('',#150,.T.);
#88=FACE_OUTER_BOUND('',#151,.T.);
#89=FACE_OUTER_BOUND('',#152,.T.);
#90=FACE_OUTER_BOUND('',#153,.T.);
#91=FACE_OUTER_BOUND('',#154,.T.);
#92=FACE_OUTER_BOUND('',#155,.T.);
#93=FACE_OUTER_BOUND('',#156,.T.);
#94=FACE_OUTER_BOUND('',#162,.T.);
#95=FACE_OUTER_BOUND('',#164,.T.);
#96=FACE_OUTER_BOUND('',#165,.T.);
#97=FACE_OUTER_BOUND('',#166,.T.);
#98=FACE_OUTER_BOUND('',#167,.T.);
#99=FACE_OUTER_BOUND('',#168,.T.);
#100=FACE_OUTER_BOUND('',#169,.T.);
#101=FACE_OUTER_BOUND('',#171,.T.);
#102=FACE_OUTER_BOUND('',#172,.T.);
#103=FACE_OUTER_BOUND('',#173,.T.);
#104=FACE_OUTER_BOUND('',#174,.T.);
#105=FACE_OUTER_BOUND('',#175,.T.);
#106=FACE_OUTER_BOUND('',#176,.T.);
#107=FACE_OUTER_BOUND('',#177,.T.);
#108=FACE_OUTER_BOUND('',#178,.T.);
#109=FACE_OUTER_BOUND('',#179,.T.);
#110=FACE_OUTER_BOUND('',#180,.T.);
#111=FACE_OUTER_BOUND('',#181,.T.);
#112=FACE_OUTER_BOUND('',#182,.T.);
#113=FACE_OUTER_BOUND('',#183,.T.);
#114=FACE_OUTER_BOUND('',#184,.T.);
#115=FACE_OUTER_BOUND('',#185,.T.);
#116=FACE_OUTER_BOUND('',#186,.T.);
#117=FACE_OUTER_BOUND('',#187,.T.);
#118=FACE_OUTER_BOUND('',#188,.T.);
#119=FACE_OUTER_BOUND('',#189,.T.);
#120=FACE_OUTER_BOUND('',#190,.T.);
#121=FACE_OUTER_BOUND('',#191,.T.);
#122=FACE_OUTER_BOUND('',#192,.T.);
#123=FACE_OUTER_BOUND('',#193,.T.);
#124=FACE_OUTER_BOUND('',#194,.T.);
#125=FACE_OUTER_BOUND('',#195,.T.);
#126=EDGE_LOOP('',(#724,#725,#726,#727));
#127=EDGE_LOOP('',(#728));
#128=EDGE_LOOP('',(#729,#730,#731,#732));
#129=EDGE_LOOP('',(#733));
#130=EDGE_LOOP('',(#734,#735,#736,#737));
#131=EDGE_LOOP('',(#738));
#132=EDGE_LOOP('',(#739,#740,#741,#742));
#133=EDGE_LOOP('',(#743));
#134=EDGE_LOOP('',(#744,#745,#746,#747));
#135=EDGE_LOOP('',(#748,#749,#750,#751));
#136=EDGE_LOOP('',(#752,#753,#754,#755));
#137=EDGE_LOOP('',(#756,#757,#758,#759));
#138=EDGE_LOOP('',(#760,#761,#762,#763));
#139=EDGE_LOOP('',(#764,#765,#766,#767));
#140=EDGE_LOOP('',(#768,#769,#770,#771));
#141=EDGE_LOOP('',(#772,#773,#774,#775));
#142=EDGE_LOOP('',(#776,#777,#778,#779,#780,#781,#782,#783));
#143=EDGE_LOOP('',(#784,#785,#786,#787,#788,#789,#790,#791));
#144=EDGE_LOOP('',(#792,#793,#794,#795));
#145=EDGE_LOOP('',(#796,#797,#798,#799));
#146=EDGE_LOOP('',(#800,#801,#802,#803));
#147=EDGE_LOOP('',(#804,#805,#806,#807));
#148=EDGE_LOOP('',(#808,#809,#810,#811));
#149=EDGE_LOOP('',(#812,#813,#814,#815));
#150=EDGE_LOOP('',(#816,#817,#818,#819));
#151=EDGE_LOOP('',(#820,#821,#822,#823));
#152=EDGE_LOOP('',(#824,#825,#826,#827));
#153=EDGE_LOOP('',(#828,#829,#830,#831));
#154=EDGE_LOOP('',(#832,#833,#834,#835));
#155=EDGE_LOOP('',(#836,#837,#838,#839));
#156=EDGE_LOOP('',(#840,#841,#842,#843,#844,#845,#846,#847));
#157=EDGE_LOOP('',(#848));
#158=EDGE_LOOP('',(#849));
#159=EDGE_LOOP('',(#850));
#160=EDGE_LOOP('',(#851));
#161=EDGE_LOOP('',(#852,#853,#854,#855));
#162=EDGE_LOOP('',(#856,#857,#858,#859,#860,#861,#862,#863));
#163=EDGE_LOOP('',(#864,#865,#866,#867));
#164=EDGE_LOOP('',(#868,#869,#870,#871));
#165=EDGE_LOOP('',(#872,#873,#874,#875));
#166=EDGE_LOOP('',(#876,#877,#878,#879));
#167=EDGE_LOOP('',(#880,#881,#882,#883));
#168=EDGE_LOOP('',(#884,#885,#886,#887,#888,#889,#890,#891,#892,#893,#894,
#895,#896,#897,#898,#899,#900,#901,#902,#903));
#169=EDGE_LOOP('',(#904,#905,#906,#907,#908,#909,#910,#911));
#170=EDGE_LOOP('',(#912,#913,#914,#915,#916,#917,#918,#919));
#171=EDGE_LOOP('',(#920,#921,#922,#923));
#172=EDGE_LOOP('',(#924,#925,#926,#927));
#173=EDGE_LOOP('',(#928,#929,#930,#931,#932,#933));
#174=EDGE_LOOP('',(#934,#935,#936,#937));
#175=EDGE_LOOP('',(#938,#939,#940,#941));
#176=EDGE_LOOP('',(#942,#943,#944,#945));
#177=EDGE_LOOP('',(#946,#947,#948,#949));
#178=EDGE_LOOP('',(#950,#951,#952,#953));
#179=EDGE_LOOP('',(#954,#955,#956,#957));
#180=EDGE_LOOP('',(#958,#959,#960,#961));
#181=EDGE_LOOP('',(#962,#963,#964,#965));
#182=EDGE_LOOP('',(#966,#967,#968,#969));
#183=EDGE_LOOP('',(#970,#971,#972,#973,#974,#975,#976,#977));
#184=EDGE_LOOP('',(#978,#979,#980,#981));
#185=EDGE_LOOP('',(#982,#983,#984,#985));
#186=EDGE_LOOP('',(#986,#987,#988,#989));
#187=EDGE_LOOP('',(#990,#991,#992,#993));
#188=EDGE_LOOP('',(#994,#995,#996,#997));
#189=EDGE_LOOP('',(#998,#999,#1000,#1001));
#190=EDGE_LOOP('',(#1002,#1003,#1004,#1005));
#191=EDGE_LOOP('',(#1006,#1007,#1008,#1009));
#192=EDGE_LOOP('',(#1010,#1011,#1012,#1013));
#193=EDGE_LOOP('',(#1014,#1015,#1016,#1017));
#194=EDGE_LOOP('',(#1018,#1019,#1020,#1021));
#195=EDGE_LOOP('',(#1022,#1023,#1024,#1025,#1026,#1027,#1028,#1029));
#196=EDGE_LOOP('',(#1030,#1031,#1032,#1033,#1034,#1035,#1036,#1037));
#197=LINE('',#1585,#306);
#198=LINE('',#1592,#307);
#199=LINE('',#1599,#308);
#200=LINE('',#1606,#309);
#201=LINE('',#1612,#310);
#202=LINE('',#1614,#311);
#203=LINE('',#1616,#312);
#204=LINE('',#1617,#313);
#205=LINE('',#1623,#314);
#206=LINE('',#1626,#315);
#207=LINE('',#1628,#316);
#208=LINE('',#1629,#317);
#209=LINE('',#1635,#318);
#210=LINE('',#1638,#319);
#211=LINE('',#1640,#320);
#212=LINE('',#1641,#321);
#213=LINE('',#1647,#322);
#214=LINE('',#1650,#323);
#215=LINE('',#1652,#324);
#216=LINE('',#1653,#325);
#217=LINE('',#1660,#326);
#218=LINE('',#1664,#327);
#219=LINE('',#1668,#328);
#220=LINE('',#1672,#329);
#221=LINE('',#1677,#330);
#222=LINE('',#1679,#331);
#223=LINE('',#1681,#332);
#224=LINE('',#1682,#333);
#225=LINE('',#1685,#334);
#226=LINE('',#1687,#335);
#227=LINE('',#1688,#336);
#228=LINE('',#1691,#337);
#229=LINE('',#1693,#338);
#230=LINE('',#1694,#339);
#231=LINE('',#1696,#340);
#232=LINE('',#1697,#341);
#233=LINE('',#1701,#342);
#234=LINE('',#1702,#343);
#235=LINE('',#1703,#344);
#236=LINE('',#1707,#345);
#237=LINE('',#1710,#346);
#238=LINE('',#1711,#347);
#239=LINE('',#1715,#348);
#240=LINE('',#1718,#349);
#241=LINE('',#1719,#350);
#242=LINE('',#1723,#351);
#243=LINE('',#1726,#352);
#244=LINE('',#1727,#353);
#245=LINE('',#1735,#354);
#246=LINE('',#1737,#355);
#247=LINE('',#1739,#356);
#248=LINE('',#1740,#357);
#249=LINE('',#1743,#358);
#250=LINE('',#1745,#359);
#251=LINE('',#1746,#360);
#252=LINE('',#1749,#361);
#253=LINE('',#1750,#362);
#254=LINE('',#1753,#363);
#255=LINE('',#1754,#364);
#256=LINE('',#1757,#365);
#257=LINE('',#1761,#366);
#258=LINE('',#1765,#367);
#259=LINE('',#1769,#368);
#260=LINE('',#1772,#369);
#261=LINE('',#1774,#370);
#262=LINE('',#1778,#371);
#263=LINE('',#1782,#372);
#264=LINE('',#1786,#373);
#265=LINE('',#1789,#374);
#266=LINE('',#1795,#375);
#267=LINE('',#1799,#376);
#268=LINE('',#1803,#377);
#269=LINE('',#1806,#378);
#270=LINE('',#1809,#379);
#271=LINE('',#1813,#380);
#272=LINE('',#1817,#381);
#273=LINE('',#1821,#382);
#274=LINE('',#1824,#383);
#275=LINE('',#1825,#384);
#276=LINE('',#1827,#385);
#277=LINE('',#1829,#386);
#278=LINE('',#1831,#387);
#279=LINE('',#1833,#388);
#280=LINE('',#1835,#389);
#281=LINE('',#1837,#390);
#282=LINE('',#1841,#391);
#283=LINE('',#1843,#392);
#284=LINE('',#1844,#393);
#285=LINE('',#1848,#394);
#286=LINE('',#1851,#395);
#287=LINE('',#1852,#396);
#288=LINE('',#1856,#397);
#289=LINE('',#1859,#398);
#290=LINE('',#1860,#399);
#291=LINE('',#1864,#400);
#292=LINE('',#1867,#401);
#293=LINE('',#1868,#402);
#294=LINE('',#1873,#403);
#295=LINE('',#1875,#404);
#296=LINE('',#1876,#405);
#297=LINE('',#1880,#406);
#298=LINE('',#1883,#407);
#299=LINE('',#1884,#408);
#300=LINE('',#1888,#409);
#301=LINE('',#1891,#410);
#302=LINE('',#1892,#411);
#303=LINE('',#1896,#412);
#304=LINE('',#1899,#413);
#305=LINE('',#1900,#414);
#306=VECTOR('',#1255,1.24999104068199);
#307=VECTOR('',#1264,1.24999104068199);
#308=VECTOR('',#1273,1.24999104068199);
#309=VECTOR('',#1282,1.24999104068199);
#310=VECTOR('',#1289,1.);
#311=VECTOR('',#1290,1.);
#312=VECTOR('',#1291,1.);
#313=VECTOR('',#1292,1.);
#314=VECTOR('',#1299,1.);
#315=VECTOR('',#1302,1.);
#316=VECTOR('',#1303,1.);
#317=VECTOR('',#1304,1.);
#318=VECTOR('',#1311,1.);
#319=VECTOR('',#1314,1.);
#320=VECTOR('',#1315,1.);
#321=VECTOR('',#1316,1.);
#322=VECTOR('',#1323,1.);
#323=VECTOR('',#1326,1.);
#324=VECTOR('',#1327,1.);
#325=VECTOR('',#1328,1.);
#326=VECTOR('',#1337,1.);
#327=VECTOR('',#1340,1.);
#328=VECTOR('',#1343,1.);
#329=VECTOR('',#1346,1.);
#330=VECTOR('',#1351,1.);
#331=VECTOR('',#1352,1.);
#332=VECTOR('',#1353,1.);
#333=VECTOR('',#1354,1.);
#334=VECTOR('',#1357,1.);
#335=VECTOR('',#1358,1.);
#336=VECTOR('',#1359,1.);
#337=VECTOR('',#1362,1.);
#338=VECTOR('',#1363,1.);
#339=VECTOR('',#1364,1.);
#340=VECTOR('',#1367,1.);
#341=VECTOR('',#1368,1.);
#342=VECTOR('',#1371,1.);
#343=VECTOR('',#1372,1.);
#344=VECTOR('',#1373,1.);
#345=VECTOR('',#1378,1.);
#346=VECTOR('',#1381,1.);
#347=VECTOR('',#1382,1.);
#348=VECTOR('',#1387,1.);
#349=VECTOR('',#1390,1.);
#350=VECTOR('',#1391,1.);
#351=VECTOR('',#1396,1.);
#352=VECTOR('',#1399,1.);
#353=VECTOR('',#1400,1.);
#354=VECTOR('',#1411,10.);
#355=VECTOR('',#1412,10.);
#356=VECTOR('',#1413,10.);
#357=VECTOR('',#1414,10.);
#358=VECTOR('',#1417,10.);
#359=VECTOR('',#1418,10.);
#360=VECTOR('',#1419,10.);
#361=VECTOR('',#1422,10.);
#362=VECTOR('',#1423,10.);
#363=VECTOR('',#1426,10.);
#364=VECTOR('',#1427,10.);
#365=VECTOR('',#1430,10.);
#366=VECTOR('',#1433,10.);
#367=VECTOR('',#1436,10.);
#368=VECTOR('',#1439,10.);
#369=VECTOR('',#1442,10.);
#370=VECTOR('',#1443,10.);
#371=VECTOR('',#1446,10.);
#372=VECTOR('',#1449,10.);
#373=VECTOR('',#1452,10.);
#374=VECTOR('',#1455,10.);
#375=VECTOR('',#1460,10.);
#376=VECTOR('',#1463,10.);
#377=VECTOR('',#1466,10.);
#378=VECTOR('',#1469,10.);
#379=VECTOR('',#1470,10.);
#380=VECTOR('',#1473,10.);
#381=VECTOR('',#1476,10.);
#382=VECTOR('',#1479,10.);
#383=VECTOR('',#1484,10.);
#384=VECTOR('',#1485,10.);
#385=VECTOR('',#1488,10.);
#386=VECTOR('',#1491,10.);
#387=VECTOR('',#1494,10.);
#388=VECTOR('',#1497,10.);
#389=VECTOR('',#1500,10.);
#390=VECTOR('',#1503,10.);
#391=VECTOR('',#1508,10.);
#392=VECTOR('',#1509,10.);
#393=VECTOR('',#1510,10.);
#394=VECTOR('',#1515,10.);
#395=VECTOR('',#1518,10.);
#396=VECTOR('',#1519,10.);
#397=VECTOR('',#1524,10.);
#398=VECTOR('',#1527,10.);
#399=VECTOR('',#1528,10.);
#400=VECTOR('',#1533,10.);
#401=VECTOR('',#1536,10.);
#402=VECTOR('',#1537,10.);
#403=VECTOR('',#1544,10.);
#404=VECTOR('',#1545,10.);
#405=VECTOR('',#1546,10.);
#406=VECTOR('',#1551,10.);
#407=VECTOR('',#1554,10.);
#408=VECTOR('',#1555,10.);
#409=VECTOR('',#1560,10.);
#410=VECTOR('',#1563,10.);
#411=VECTOR('',#1564,10.);
#412=VECTOR('',#1569,10.);
#413=VECTOR('',#1572,10.);
#414=VECTOR('',#1573,10.);
#415=CIRCLE('',#1140,0.649991040681991);
#416=CIRCLE('',#1141,0.649991040681991);
#417=CIRCLE('',#1144,0.649991040681991);
#418=CIRCLE('',#1145,0.649991040681991);
#419=CIRCLE('',#1148,0.649991040681991);
#420=CIRCLE('',#1149,0.649991040681991);
#421=CIRCLE('',#1152,0.649991040681991);
#422=CIRCLE('',#1153,0.649991040681991);
#423=CIRCLE('',#1157,2.99999999999999);
#424=CIRCLE('',#1158,2.99999999999999);
#425=CIRCLE('',#1161,3.);
#426=CIRCLE('',#1162,3.);
#427=CIRCLE('',#1165,3.);
#428=CIRCLE('',#1166,3.);
#429=CIRCLE('',#1169,2.99999999999999);
#430=CIRCLE('',#1170,2.99999999999999);
#431=CIRCLE('',#1172,3.);
#432=CIRCLE('',#1173,3.00000000000001);
#433=CIRCLE('',#1174,3.);
#434=CIRCLE('',#1175,3.);
#435=CIRCLE('',#1182,3.);
#436=CIRCLE('',#1185,3.);
#437=CIRCLE('',#1188,3.00000000000001);
#438=CIRCLE('',#1191,3.);
#439=CIRCLE('',#1199,0.999999999999979);
#440=CIRCLE('',#1200,1.00000000000003);
#441=CIRCLE('',#1201,1.00000000000005);
#442=CIRCLE('',#1202,1.00000000000001);
#443=CIRCLE('',#1203,2.99999999999999);
#444=CIRCLE('',#1204,3.00000000000001);
#445=CIRCLE('',#1205,2.99999999999999);
#446=CIRCLE('',#1206,3.00000000000001);
#447=CIRCLE('',#1208,3.00000000000001);
#448=CIRCLE('',#1209,2.99999999999999);
#449=CIRCLE('',#1210,3.00000000000001);
#450=CIRCLE('',#1211,2.99999999999999);
#451=CIRCLE('',#1212,2.69999999999996);
#452=CIRCLE('',#1213,2.70000000000001);
#453=CIRCLE('',#1214,2.70000000000003);
#454=CIRCLE('',#1215,2.70000000000003);
#455=CIRCLE('',#1226,1.00000000000005);
#456=CIRCLE('',#1229,1.00000000000001);
#457=CIRCLE('',#1232,0.999999999999979);
#458=CIRCLE('',#1235,1.00000000000003);
#459=CIRCLE('',#1238,2.69999999999996);
#460=CIRCLE('',#1241,2.70000000000001);
#461=CIRCLE('',#1244,2.70000000000003);
#462=CIRCLE('',#1247,2.70000000000003);
#463=VERTEX_POINT('',#1582);
#464=VERTEX_POINT('',#1584);
#465=VERTEX_POINT('',#1589);
#466=VERTEX_POINT('',#1591);
#467=VERTEX_POINT('',#1596);
#468=VERTEX_POINT('',#1598);
#469=VERTEX_POINT('',#1603);
#470=VERTEX_POINT('',#1605);
#471=VERTEX_POINT('',#1610);
#472=VERTEX_POINT('',#1611);
#473=VERTEX_POINT('',#1613);
#474=VERTEX_POINT('',#1615);
#475=VERTEX_POINT('',#1619);
#476=VERTEX_POINT('',#1621);
#477=VERTEX_POINT('',#1625);
#478=VERTEX_POINT('',#1627);
#479=VERTEX_POINT('',#1631);
#480=VERTEX_POINT('',#1633);
#481=VERTEX_POINT('',#1637);
#482=VERTEX_POINT('',#1639);
#483=VERTEX_POINT('',#1643);
#484=VERTEX_POINT('',#1645);
#485=VERTEX_POINT('',#1649);
#486=VERTEX_POINT('',#1651);
#487=VERTEX_POINT('',#1658);
#488=VERTEX_POINT('',#1659);
#489=VERTEX_POINT('',#1661);
#490=VERTEX_POINT('',#1663);
#491=VERTEX_POINT('',#1665);
#492=VERTEX_POINT('',#1667);
#493=VERTEX_POINT('',#1669);
#494=VERTEX_POINT('',#1671);
#495=VERTEX_POINT('',#1675);
#496=VERTEX_POINT('',#1676);
#497=VERTEX_POINT('',#1678);
#498=VERTEX_POINT('',#1680);
#499=VERTEX_POINT('',#1684);
#500=VERTEX_POINT('',#1686);
#501=VERTEX_POINT('',#1690);
#502=VERTEX_POINT('',#1692);
#503=VERTEX_POINT('',#1699);
#504=VERTEX_POINT('',#1700);
#505=VERTEX_POINT('',#1705);
#506=VERTEX_POINT('',#1709);
#507=VERTEX_POINT('',#1713);
#508=VERTEX_POINT('',#1717);
#509=VERTEX_POINT('',#1721);
#510=VERTEX_POINT('',#1725);
#511=VERTEX_POINT('',#1733);
#512=VERTEX_POINT('',#1734);
#513=VERTEX_POINT('',#1736);
#514=VERTEX_POINT('',#1738);
#515=VERTEX_POINT('',#1742);
#516=VERTEX_POINT('',#1744);
#517=VERTEX_POINT('',#1748);
#518=VERTEX_POINT('',#1752);
#519=VERTEX_POINT('',#1756);
#520=VERTEX_POINT('',#1758);
#521=VERTEX_POINT('',#1760);
#522=VERTEX_POINT('',#1762);
#523=VERTEX_POINT('',#1764);
#524=VERTEX_POINT('',#1766);
#525=VERTEX_POINT('',#1768);
#526=VERTEX_POINT('',#1770);
#527=VERTEX_POINT('',#1773);
#528=VERTEX_POINT('',#1775);
#529=VERTEX_POINT('',#1777);
#530=VERTEX_POINT('',#1779);
#531=VERTEX_POINT('',#1781);
#532=VERTEX_POINT('',#1783);
#533=VERTEX_POINT('',#1785);
#534=VERTEX_POINT('',#1787);
#535=VERTEX_POINT('',#1791);
#536=VERTEX_POINT('',#1792);
#537=VERTEX_POINT('',#1794);
#538=VERTEX_POINT('',#1796);
#539=VERTEX_POINT('',#1798);
#540=VERTEX_POINT('',#1800);
#541=VERTEX_POINT('',#1802);
#542=VERTEX_POINT('',#1804);
#543=VERTEX_POINT('',#1807);
#544=VERTEX_POINT('',#1808);
#545=VERTEX_POINT('',#1810);
#546=VERTEX_POINT('',#1812);
#547=VERTEX_POINT('',#1814);
#548=VERTEX_POINT('',#1816);
#549=VERTEX_POINT('',#1818);
#550=VERTEX_POINT('',#1820);
#551=VERTEX_POINT('',#1840);
#552=VERTEX_POINT('',#1842);
#553=VERTEX_POINT('',#1846);
#554=VERTEX_POINT('',#1850);
#555=VERTEX_POINT('',#1854);
#556=VERTEX_POINT('',#1858);
#557=VERTEX_POINT('',#1862);
#558=VERTEX_POINT('',#1866);
#559=VERTEX_POINT('',#1872);
#560=VERTEX_POINT('',#1874);
#561=VERTEX_POINT('',#1878);
#562=VERTEX_POINT('',#1882);
#563=VERTEX_POINT('',#1886);
#564=VERTEX_POINT('',#1890);
#565=VERTEX_POINT('',#1894);
#566=VERTEX_POINT('',#1898);
#567=EDGE_CURVE('',#463,#463,#415,.F.);
#568=EDGE_CURVE('',#463,#464,#197,.T.);
#569=EDGE_CURVE('',#464,#464,#416,.T.);
#570=EDGE_CURVE('',#465,#465,#417,.F.);
#571=EDGE_CURVE('',#465,#466,#198,.T.);
#572=EDGE_CURVE('',#466,#466,#418,.T.);
#573=EDGE_CURVE('',#467,#467,#419,.F.);
#574=EDGE_CURVE('',#467,#468,#199,.T.);
#575=EDGE_CURVE('',#468,#468,#420,.T.);
#576=EDGE_CURVE('',#469,#469,#421,.F.);
#577=EDGE_CURVE('',#469,#470,#200,.T.);
#578=EDGE_CURVE('',#470,#470,#422,.T.);
#579=EDGE_CURVE('',#471,#472,#201,.T.);
#580=EDGE_CURVE('',#471,#473,#202,.T.);
#581=EDGE_CURVE('',#474,#473,#203,.T.);
#582=EDGE_CURVE('',#472,#474,#204,.T.);
#583=EDGE_CURVE('',#472,#475,#423,.T.);
#584=EDGE_CURVE('',#476,#474,#424,.T.);
#585=EDGE_CURVE('',#475,#476,#205,.T.);
#586=EDGE_CURVE('',#475,#477,#206,.T.);
#587=EDGE_CURVE('',#478,#476,#207,.T.);
#588=EDGE_CURVE('',#477,#478,#208,.T.);
#589=EDGE_CURVE('',#477,#479,#425,.T.);
#590=EDGE_CURVE('',#480,#478,#426,.T.);
#591=EDGE_CURVE('',#479,#480,#209,.T.);
#592=EDGE_CURVE('',#479,#481,#210,.T.);
#593=EDGE_CURVE('',#482,#480,#211,.T.);
#594=EDGE_CURVE('',#481,#482,#212,.T.);
#595=EDGE_CURVE('',#481,#483,#427,.T.);
#596=EDGE_CURVE('',#484,#482,#428,.T.);
#597=EDGE_CURVE('',#483,#484,#213,.T.);
#598=EDGE_CURVE('',#483,#485,#214,.T.);
#599=EDGE_CURVE('',#486,#484,#215,.T.);
#600=EDGE_CURVE('',#485,#486,#216,.T.);
#601=EDGE_CURVE('',#485,#471,#429,.T.);
#602=EDGE_CURVE('',#473,#486,#430,.T.);
#603=EDGE_CURVE('',#487,#488,#217,.T.);
#604=EDGE_CURVE('',#488,#489,#431,.T.);
#605=EDGE_CURVE('',#489,#490,#218,.T.);
#606=EDGE_CURVE('',#490,#491,#432,.T.);
#607=EDGE_CURVE('',#491,#492,#219,.T.);
#608=EDGE_CURVE('',#492,#493,#433,.T.);
#609=EDGE_CURVE('',#493,#494,#220,.T.);
#610=EDGE_CURVE('',#494,#487,#434,.T.);
#611=EDGE_CURVE('',#495,#496,#221,.T.);
#612=EDGE_CURVE('',#496,#497,#222,.T.);
#613=EDGE_CURVE('',#498,#497,#223,.T.);
#614=EDGE_CURVE('',#495,#498,#224,.T.);
#615=EDGE_CURVE('',#499,#495,#225,.T.);
#616=EDGE_CURVE('',#500,#498,#226,.T.);
#617=EDGE_CURVE('',#499,#500,#227,.T.);
#618=EDGE_CURVE('',#501,#499,#228,.T.);
#619=EDGE_CURVE('',#502,#500,#229,.T.);
#620=EDGE_CURVE('',#501,#502,#230,.T.);
#621=EDGE_CURVE('',#496,#501,#231,.T.);
#622=EDGE_CURVE('',#497,#502,#232,.T.);
#623=EDGE_CURVE('',#503,#504,#233,.T.);
#624=EDGE_CURVE('',#504,#488,#234,.T.);
#625=EDGE_CURVE('',#503,#487,#235,.T.);
#626=EDGE_CURVE('',#505,#503,#435,.T.);
#627=EDGE_CURVE('',#505,#494,#236,.T.);
#628=EDGE_CURVE('',#506,#505,#237,.T.);
#629=EDGE_CURVE('',#506,#493,#238,.T.);
#630=EDGE_CURVE('',#507,#506,#436,.T.);
#631=EDGE_CURVE('',#507,#492,#239,.T.);
#632=EDGE_CURVE('',#508,#507,#240,.T.);
#633=EDGE_CURVE('',#508,#491,#241,.T.);
#634=EDGE_CURVE('',#509,#508,#437,.T.);
#635=EDGE_CURVE('',#509,#490,#242,.T.);
#636=EDGE_CURVE('',#510,#509,#243,.T.);
#637=EDGE_CURVE('',#510,#489,#244,.T.);
#638=EDGE_CURVE('',#504,#510,#438,.T.);
#639=EDGE_CURVE('',#511,#512,#245,.T.);
#640=EDGE_CURVE('',#512,#513,#246,.T.);
#641=EDGE_CURVE('',#514,#513,#247,.T.);
#642=EDGE_CURVE('',#514,#511,#248,.T.);
#643=EDGE_CURVE('',#515,#512,#249,.T.);
#644=EDGE_CURVE('',#516,#515,#250,.T.);
#645=EDGE_CURVE('',#516,#513,#251,.T.);
#646=EDGE_CURVE('',#511,#517,#252,.T.);
#647=EDGE_CURVE('',#515,#517,#253,.T.);
#648=EDGE_CURVE('',#517,#518,#254,.T.);
#649=EDGE_CURVE('',#516,#518,#255,.T.);
#650=EDGE_CURVE('',#518,#519,#256,.T.);
#651=EDGE_CURVE('',#519,#520,#439,.T.);
#652=EDGE_CURVE('',#520,#521,#257,.T.);
#653=EDGE_CURVE('',#521,#522,#440,.T.);
#654=EDGE_CURVE('',#522,#523,#258,.T.);
#655=EDGE_CURVE('',#523,#524,#441,.T.);
#656=EDGE_CURVE('',#524,#525,#259,.T.);
#657=EDGE_CURVE('',#525,#526,#442,.T.);
#658=EDGE_CURVE('',#526,#514,#260,.T.);
#659=EDGE_CURVE('',#513,#527,#261,.T.);
#660=EDGE_CURVE('',#527,#528,#443,.T.);
#661=EDGE_CURVE('',#528,#529,#262,.T.);
#662=EDGE_CURVE('',#529,#530,#444,.T.);
#663=EDGE_CURVE('',#530,#531,#263,.T.);
#664=EDGE_CURVE('',#531,#532,#445,.T.);
#665=EDGE_CURVE('',#532,#533,#264,.T.);
#666=EDGE_CURVE('',#533,#534,#446,.T.);
#667=EDGE_CURVE('',#534,#516,#265,.T.);
#668=EDGE_CURVE('',#535,#536,#447,.T.);
#669=EDGE_CURVE('',#537,#535,#266,.T.);
#670=EDGE_CURVE('',#538,#537,#448,.T.);
#671=EDGE_CURVE('',#539,#538,#267,.T.);
#672=EDGE_CURVE('',#540,#539,#449,.T.);
#673=EDGE_CURVE('',#541,#540,#268,.T.);
#674=EDGE_CURVE('',#542,#541,#450,.T.);
#675=EDGE_CURVE('',#536,#542,#269,.T.);
#676=EDGE_CURVE('',#543,#544,#270,.T.);
#677=EDGE_CURVE('',#543,#545,#451,.T.);
#678=EDGE_CURVE('',#546,#545,#271,.T.);
#679=EDGE_CURVE('',#546,#547,#452,.T.);
#680=EDGE_CURVE('',#548,#547,#272,.T.);
#681=EDGE_CURVE('',#548,#549,#453,.T.);
#682=EDGE_CURVE('',#550,#549,#273,.T.);
#683=EDGE_CURVE('',#550,#544,#454,.T.);
#684=EDGE_CURVE('',#535,#529,#274,.T.);
#685=EDGE_CURVE('',#537,#528,#275,.T.);
#686=EDGE_CURVE('',#538,#527,#276,.T.);
#687=EDGE_CURVE('',#539,#534,#277,.T.);
#688=EDGE_CURVE('',#540,#533,#278,.T.);
#689=EDGE_CURVE('',#541,#532,#279,.T.);
#690=EDGE_CURVE('',#542,#531,#280,.T.);
#691=EDGE_CURVE('',#536,#530,#281,.T.);
#692=EDGE_CURVE('',#551,#522,#282,.T.);
#693=EDGE_CURVE('',#552,#551,#283,.T.);
#694=EDGE_CURVE('',#552,#523,#284,.T.);
#695=EDGE_CURVE('',#553,#552,#455,.T.);
#696=EDGE_CURVE('',#553,#524,#285,.T.);
#697=EDGE_CURVE('',#554,#553,#286,.T.);
#698=EDGE_CURVE('',#554,#525,#287,.T.);
#699=EDGE_CURVE('',#555,#554,#456,.T.);
#700=EDGE_CURVE('',#555,#526,#288,.T.);
#701=EDGE_CURVE('',#556,#555,#289,.T.);
#702=EDGE_CURVE('',#556,#519,#290,.T.);
#703=EDGE_CURVE('',#557,#556,#457,.T.);
#704=EDGE_CURVE('',#557,#520,#291,.T.);
#705=EDGE_CURVE('',#558,#557,#292,.T.);
#706=EDGE_CURVE('',#521,#558,#293,.T.);
#707=EDGE_CURVE('',#551,#558,#458,.T.);
#708=EDGE_CURVE('',#544,#559,#294,.T.);
#709=EDGE_CURVE('',#560,#559,#295,.T.);
#710=EDGE_CURVE('',#543,#560,#296,.T.);
#711=EDGE_CURVE('',#561,#560,#459,.T.);
#712=EDGE_CURVE('',#545,#561,#297,.T.);
#713=EDGE_CURVE('',#562,#561,#298,.T.);
#714=EDGE_CURVE('',#546,#562,#299,.T.);
#715=EDGE_CURVE('',#563,#562,#460,.T.);
#716=EDGE_CURVE('',#547,#563,#300,.T.);
#717=EDGE_CURVE('',#564,#563,#301,.T.);
#718=EDGE_CURVE('',#548,#564,#302,.T.);
#719=EDGE_CURVE('',#565,#564,#461,.T.);
#720=EDGE_CURVE('',#549,#565,#303,.T.);
#721=EDGE_CURVE('',#566,#565,#304,.T.);
#722=EDGE_CURVE('',#550,#566,#305,.T.);
#723=EDGE_CURVE('',#559,#566,#462,.T.);
#724=ORIENTED_EDGE('',*,*,#567,.F.);
#725=ORIENTED_EDGE('',*,*,#568,.T.);
#726=ORIENTED_EDGE('',*,*,#569,.F.);
#727=ORIENTED_EDGE('',*,*,#568,.F.);
#728=ORIENTED_EDGE('',*,*,#567,.T.);
#729=ORIENTED_EDGE('',*,*,#570,.F.);
#730=ORIENTED_EDGE('',*,*,#571,.T.);
#731=ORIENTED_EDGE('',*,*,#572,.F.);
#732=ORIENTED_EDGE('',*,*,#571,.F.);
#733=ORIENTED_EDGE('',*,*,#570,.T.);
#734=ORIENTED_EDGE('',*,*,#573,.F.);
#735=ORIENTED_EDGE('',*,*,#574,.T.);
#736=ORIENTED_EDGE('',*,*,#575,.F.);
#737=ORIENTED_EDGE('',*,*,#574,.F.);
#738=ORIENTED_EDGE('',*,*,#573,.T.);
#739=ORIENTED_EDGE('',*,*,#576,.F.);
#740=ORIENTED_EDGE('',*,*,#577,.T.);
#741=ORIENTED_EDGE('',*,*,#578,.F.);
#742=ORIENTED_EDGE('',*,*,#577,.F.);
#743=ORIENTED_EDGE('',*,*,#576,.T.);
#744=ORIENTED_EDGE('',*,*,#579,.F.);
#745=ORIENTED_EDGE('',*,*,#580,.T.);
#746=ORIENTED_EDGE('',*,*,#581,.F.);
#747=ORIENTED_EDGE('',*,*,#582,.F.);
#748=ORIENTED_EDGE('',*,*,#583,.F.);
#749=ORIENTED_EDGE('',*,*,#582,.T.);
#750=ORIENTED_EDGE('',*,*,#584,.F.);
#751=ORIENTED_EDGE('',*,*,#585,.F.);
#752=ORIENTED_EDGE('',*,*,#586,.F.);
#753=ORIENTED_EDGE('',*,*,#585,.T.);
#754=ORIENTED_EDGE('',*,*,#587,.F.);
#755=ORIENTED_EDGE('',*,*,#588,.F.);
#756=ORIENTED_EDGE('',*,*,#589,.F.);
#757=ORIENTED_EDGE('',*,*,#588,.T.);
#758=ORIENTED_EDGE('',*,*,#590,.F.);
#759=ORIENTED_EDGE('',*,*,#591,.F.);
#760=ORIENTED_EDGE('',*,*,#592,.F.);
#761=ORIENTED_EDGE('',*,*,#591,.T.);
#762=ORIENTED_EDGE('',*,*,#593,.F.);
#763=ORIENTED_EDGE('',*,*,#594,.F.);
#764=ORIENTED_EDGE('',*,*,#595,.F.);
#765=ORIENTED_EDGE('',*,*,#594,.T.);
#766=ORIENTED_EDGE('',*,*,#596,.F.);
#767=ORIENTED_EDGE('',*,*,#597,.F.);
#768=ORIENTED_EDGE('',*,*,#598,.F.);
#769=ORIENTED_EDGE('',*,*,#597,.T.);
#770=ORIENTED_EDGE('',*,*,#599,.F.);
#771=ORIENTED_EDGE('',*,*,#600,.F.);
#772=ORIENTED_EDGE('',*,*,#601,.F.);
#773=ORIENTED_EDGE('',*,*,#600,.T.);
#774=ORIENTED_EDGE('',*,*,#602,.F.);
#775=ORIENTED_EDGE('',*,*,#580,.F.);
#776=ORIENTED_EDGE('',*,*,#603,.T.);
#777=ORIENTED_EDGE('',*,*,#604,.T.);
#778=ORIENTED_EDGE('',*,*,#605,.T.);
#779=ORIENTED_EDGE('',*,*,#606,.T.);
#780=ORIENTED_EDGE('',*,*,#607,.T.);
#781=ORIENTED_EDGE('',*,*,#608,.T.);
#782=ORIENTED_EDGE('',*,*,#609,.T.);
#783=ORIENTED_EDGE('',*,*,#610,.T.);
#784=ORIENTED_EDGE('',*,*,#602,.T.);
#785=ORIENTED_EDGE('',*,*,#599,.T.);
#786=ORIENTED_EDGE('',*,*,#596,.T.);
#787=ORIENTED_EDGE('',*,*,#593,.T.);
#788=ORIENTED_EDGE('',*,*,#590,.T.);
#789=ORIENTED_EDGE('',*,*,#587,.T.);
#790=ORIENTED_EDGE('',*,*,#584,.T.);
#791=ORIENTED_EDGE('',*,*,#581,.T.);
#792=ORIENTED_EDGE('',*,*,#611,.T.);
#793=ORIENTED_EDGE('',*,*,#612,.T.);
#794=ORIENTED_EDGE('',*,*,#613,.F.);
#795=ORIENTED_EDGE('',*,*,#614,.F.);
#796=ORIENTED_EDGE('',*,*,#615,.T.);
#797=ORIENTED_EDGE('',*,*,#614,.T.);
#798=ORIENTED_EDGE('',*,*,#616,.F.);
#799=ORIENTED_EDGE('',*,*,#617,.F.);
#800=ORIENTED_EDGE('',*,*,#618,.T.);
#801=ORIENTED_EDGE('',*,*,#617,.T.);
#802=ORIENTED_EDGE('',*,*,#619,.F.);
#803=ORIENTED_EDGE('',*,*,#620,.F.);
#804=ORIENTED_EDGE('',*,*,#621,.T.);
#805=ORIENTED_EDGE('',*,*,#620,.T.);
#806=ORIENTED_EDGE('',*,*,#622,.F.);
#807=ORIENTED_EDGE('',*,*,#612,.F.);
#808=ORIENTED_EDGE('',*,*,#623,.T.);
#809=ORIENTED_EDGE('',*,*,#624,.T.);
#810=ORIENTED_EDGE('',*,*,#603,.F.);
#811=ORIENTED_EDGE('',*,*,#625,.F.);
#812=ORIENTED_EDGE('',*,*,#626,.T.);
#813=ORIENTED_EDGE('',*,*,#625,.T.);
#814=ORIENTED_EDGE('',*,*,#610,.F.);
#815=ORIENTED_EDGE('',*,*,#627,.F.);
#816=ORIENTED_EDGE('',*,*,#628,.T.);
#817=ORIENTED_EDGE('',*,*,#627,.T.);
#818=ORIENTED_EDGE('',*,*,#609,.F.);
#819=ORIENTED_EDGE('',*,*,#629,.F.);
#820=ORIENTED_EDGE('',*,*,#630,.T.);
#821=ORIENTED_EDGE('',*,*,#629,.T.);
#822=ORIENTED_EDGE('',*,*,#608,.F.);
#823=ORIENTED_EDGE('',*,*,#631,.F.);
#824=ORIENTED_EDGE('',*,*,#632,.T.);
#825=ORIENTED_EDGE('',*,*,#631,.T.);
#826=ORIENTED_EDGE('',*,*,#607,.F.);
#827=ORIENTED_EDGE('',*,*,#633,.F.);
#828=ORIENTED_EDGE('',*,*,#634,.T.);
#829=ORIENTED_EDGE('',*,*,#633,.T.);
#830=ORIENTED_EDGE('',*,*,#606,.F.);
#831=ORIENTED_EDGE('',*,*,#635,.F.);
#832=ORIENTED_EDGE('',*,*,#636,.T.);
#833=ORIENTED_EDGE('',*,*,#635,.T.);
#834=ORIENTED_EDGE('',*,*,#605,.F.);
#835=ORIENTED_EDGE('',*,*,#637,.F.);
#836=ORIENTED_EDGE('',*,*,#638,.T.);
#837=ORIENTED_EDGE('',*,*,#637,.T.);
#838=ORIENTED_EDGE('',*,*,#604,.F.);
#839=ORIENTED_EDGE('',*,*,#624,.F.);
#840=ORIENTED_EDGE('',*,*,#579,.T.);
#841=ORIENTED_EDGE('',*,*,#583,.T.);
#842=ORIENTED_EDGE('',*,*,#586,.T.);
#843=ORIENTED_EDGE('',*,*,#589,.T.);
#844=ORIENTED_EDGE('',*,*,#592,.T.);
#845=ORIENTED_EDGE('',*,*,#595,.T.);
#846=ORIENTED_EDGE('',*,*,#598,.T.);
#847=ORIENTED_EDGE('',*,*,#601,.T.);
#848=ORIENTED_EDGE('',*,*,#569,.T.);
#849=ORIENTED_EDGE('',*,*,#572,.T.);
#850=ORIENTED_EDGE('',*,*,#575,.T.);
#851=ORIENTED_EDGE('',*,*,#578,.T.);
#852=ORIENTED_EDGE('',*,*,#622,.T.);
#853=ORIENTED_EDGE('',*,*,#619,.T.);
#854=ORIENTED_EDGE('',*,*,#616,.T.);
#855=ORIENTED_EDGE('',*,*,#613,.T.);
#856=ORIENTED_EDGE('',*,*,#638,.F.);
#857=ORIENTED_EDGE('',*,*,#623,.F.);
#858=ORIENTED_EDGE('',*,*,#626,.F.);
#859=ORIENTED_EDGE('',*,*,#628,.F.);
#860=ORIENTED_EDGE('',*,*,#630,.F.);
#861=ORIENTED_EDGE('',*,*,#632,.F.);
#862=ORIENTED_EDGE('',*,*,#634,.F.);
#863=ORIENTED_EDGE('',*,*,#636,.F.);
#864=ORIENTED_EDGE('',*,*,#621,.F.);
#865=ORIENTED_EDGE('',*,*,#611,.F.);
#866=ORIENTED_EDGE('',*,*,#615,.F.);
#867=ORIENTED_EDGE('',*,*,#618,.F.);
#868=ORIENTED_EDGE('',*,*,#639,.T.);
#869=ORIENTED_EDGE('',*,*,#640,.T.);
#870=ORIENTED_EDGE('',*,*,#641,.F.);
#871=ORIENTED_EDGE('',*,*,#642,.T.);
#872=ORIENTED_EDGE('',*,*,#643,.F.);
#873=ORIENTED_EDGE('',*,*,#644,.F.);
#874=ORIENTED_EDGE('',*,*,#645,.T.);
#875=ORIENTED_EDGE('',*,*,#640,.F.);
#876=ORIENTED_EDGE('',*,*,#646,.T.);
#877=ORIENTED_EDGE('',*,*,#647,.F.);
#878=ORIENTED_EDGE('',*,*,#643,.T.);
#879=ORIENTED_EDGE('',*,*,#639,.F.);
#880=ORIENTED_EDGE('',*,*,#647,.T.);
#881=ORIENTED_EDGE('',*,*,#648,.T.);
#882=ORIENTED_EDGE('',*,*,#649,.F.);
#883=ORIENTED_EDGE('',*,*,#644,.T.);
#884=ORIENTED_EDGE('',*,*,#649,.T.);
#885=ORIENTED_EDGE('',*,*,#650,.T.);
#886=ORIENTED_EDGE('',*,*,#651,.T.);
#887=ORIENTED_EDGE('',*,*,#652,.T.);
#888=ORIENTED_EDGE('',*,*,#653,.T.);
#889=ORIENTED_EDGE('',*,*,#654,.T.);
#890=ORIENTED_EDGE('',*,*,#655,.T.);
#891=ORIENTED_EDGE('',*,*,#656,.T.);
#892=ORIENTED_EDGE('',*,*,#657,.T.);
#893=ORIENTED_EDGE('',*,*,#658,.T.);
#894=ORIENTED_EDGE('',*,*,#641,.T.);
#895=ORIENTED_EDGE('',*,*,#659,.T.);
#896=ORIENTED_EDGE('',*,*,#660,.T.);
#897=ORIENTED_EDGE('',*,*,#661,.T.);
#898=ORIENTED_EDGE('',*,*,#662,.T.);
#899=ORIENTED_EDGE('',*,*,#663,.T.);
#900=ORIENTED_EDGE('',*,*,#664,.T.);
#901=ORIENTED_EDGE('',*,*,#665,.T.);
#902=ORIENTED_EDGE('',*,*,#666,.T.);
#903=ORIENTED_EDGE('',*,*,#667,.T.);
#904=ORIENTED_EDGE('',*,*,#668,.F.);
#905=ORIENTED_EDGE('',*,*,#669,.F.);
#906=ORIENTED_EDGE('',*,*,#670,.F.);
#907=ORIENTED_EDGE('',*,*,#671,.F.);
#908=ORIENTED_EDGE('',*,*,#672,.F.);
#909=ORIENTED_EDGE('',*,*,#673,.F.);
#910=ORIENTED_EDGE('',*,*,#674,.F.);
#911=ORIENTED_EDGE('',*,*,#675,.F.);
#912=ORIENTED_EDGE('',*,*,#676,.F.);
#913=ORIENTED_EDGE('',*,*,#677,.T.);
#914=ORIENTED_EDGE('',*,*,#678,.F.);
#915=ORIENTED_EDGE('',*,*,#679,.T.);
#916=ORIENTED_EDGE('',*,*,#680,.F.);
#917=ORIENTED_EDGE('',*,*,#681,.T.);
#918=ORIENTED_EDGE('',*,*,#682,.F.);
#919=ORIENTED_EDGE('',*,*,#683,.T.);
#920=ORIENTED_EDGE('',*,*,#669,.T.);
#921=ORIENTED_EDGE('',*,*,#684,.T.);
#922=ORIENTED_EDGE('',*,*,#661,.F.);
#923=ORIENTED_EDGE('',*,*,#685,.F.);
#924=ORIENTED_EDGE('',*,*,#670,.T.);
#925=ORIENTED_EDGE('',*,*,#685,.T.);
#926=ORIENTED_EDGE('',*,*,#660,.F.);
#927=ORIENTED_EDGE('',*,*,#686,.F.);
#928=ORIENTED_EDGE('',*,*,#671,.T.);
#929=ORIENTED_EDGE('',*,*,#686,.T.);
#930=ORIENTED_EDGE('',*,*,#659,.F.);
#931=ORIENTED_EDGE('',*,*,#645,.F.);
#932=ORIENTED_EDGE('',*,*,#667,.F.);
#933=ORIENTED_EDGE('',*,*,#687,.F.);
#934=ORIENTED_EDGE('',*,*,#672,.T.);
#935=ORIENTED_EDGE('',*,*,#687,.T.);
#936=ORIENTED_EDGE('',*,*,#666,.F.);
#937=ORIENTED_EDGE('',*,*,#688,.F.);
#938=ORIENTED_EDGE('',*,*,#673,.T.);
#939=ORIENTED_EDGE('',*,*,#688,.T.);
#940=ORIENTED_EDGE('',*,*,#665,.F.);
#941=ORIENTED_EDGE('',*,*,#689,.F.);
#942=ORIENTED_EDGE('',*,*,#674,.T.);
#943=ORIENTED_EDGE('',*,*,#689,.T.);
#944=ORIENTED_EDGE('',*,*,#664,.F.);
#945=ORIENTED_EDGE('',*,*,#690,.F.);
#946=ORIENTED_EDGE('',*,*,#675,.T.);
#947=ORIENTED_EDGE('',*,*,#690,.T.);
#948=ORIENTED_EDGE('',*,*,#663,.F.);
#949=ORIENTED_EDGE('',*,*,#691,.F.);
#950=ORIENTED_EDGE('',*,*,#668,.T.);
#951=ORIENTED_EDGE('',*,*,#691,.T.);
#952=ORIENTED_EDGE('',*,*,#662,.F.);
#953=ORIENTED_EDGE('',*,*,#684,.F.);
#954=ORIENTED_EDGE('',*,*,#692,.F.);
#955=ORIENTED_EDGE('',*,*,#693,.F.);
#956=ORIENTED_EDGE('',*,*,#694,.T.);
#957=ORIENTED_EDGE('',*,*,#654,.F.);
#958=ORIENTED_EDGE('',*,*,#694,.F.);
#959=ORIENTED_EDGE('',*,*,#695,.F.);
#960=ORIENTED_EDGE('',*,*,#696,.T.);
#961=ORIENTED_EDGE('',*,*,#655,.F.);
#962=ORIENTED_EDGE('',*,*,#696,.F.);
#963=ORIENTED_EDGE('',*,*,#697,.F.);
#964=ORIENTED_EDGE('',*,*,#698,.T.);
#965=ORIENTED_EDGE('',*,*,#656,.F.);
#966=ORIENTED_EDGE('',*,*,#698,.F.);
#967=ORIENTED_EDGE('',*,*,#699,.F.);
#968=ORIENTED_EDGE('',*,*,#700,.T.);
#969=ORIENTED_EDGE('',*,*,#657,.F.);
#970=ORIENTED_EDGE('',*,*,#700,.F.);
#971=ORIENTED_EDGE('',*,*,#701,.F.);
#972=ORIENTED_EDGE('',*,*,#702,.T.);
#973=ORIENTED_EDGE('',*,*,#650,.F.);
#974=ORIENTED_EDGE('',*,*,#648,.F.);
#975=ORIENTED_EDGE('',*,*,#646,.F.);
#976=ORIENTED_EDGE('',*,*,#642,.F.);
#977=ORIENTED_EDGE('',*,*,#658,.F.);
#978=ORIENTED_EDGE('',*,*,#702,.F.);
#979=ORIENTED_EDGE('',*,*,#703,.F.);
#980=ORIENTED_EDGE('',*,*,#704,.T.);
#981=ORIENTED_EDGE('',*,*,#651,.F.);
#982=ORIENTED_EDGE('',*,*,#704,.F.);
#983=ORIENTED_EDGE('',*,*,#705,.F.);
#984=ORIENTED_EDGE('',*,*,#706,.F.);
#985=ORIENTED_EDGE('',*,*,#652,.F.);
#986=ORIENTED_EDGE('',*,*,#706,.T.);
#987=ORIENTED_EDGE('',*,*,#707,.F.);
#988=ORIENTED_EDGE('',*,*,#692,.T.);
#989=ORIENTED_EDGE('',*,*,#653,.F.);
#990=ORIENTED_EDGE('',*,*,#676,.T.);
#991=ORIENTED_EDGE('',*,*,#708,.T.);
#992=ORIENTED_EDGE('',*,*,#709,.F.);
#993=ORIENTED_EDGE('',*,*,#710,.F.);
#994=ORIENTED_EDGE('',*,*,#677,.F.);
#995=ORIENTED_EDGE('',*,*,#710,.T.);
#996=ORIENTED_EDGE('',*,*,#711,.F.);
#997=ORIENTED_EDGE('',*,*,#712,.F.);
#998=ORIENTED_EDGE('',*,*,#678,.T.);
#999=ORIENTED_EDGE('',*,*,#712,.T.);
#1000=ORIENTED_EDGE('',*,*,#713,.F.);
#1001=ORIENTED_EDGE('',*,*,#714,.F.);
#1002=ORIENTED_EDGE('',*,*,#679,.F.);
#1003=ORIENTED_EDGE('',*,*,#714,.T.);
#1004=ORIENTED_EDGE('',*,*,#715,.F.);
#1005=ORIENTED_EDGE('',*,*,#716,.F.);
#1006=ORIENTED_EDGE('',*,*,#680,.T.);
#1007=ORIENTED_EDGE('',*,*,#716,.T.);
#1008=ORIENTED_EDGE('',*,*,#717,.F.);
#1009=ORIENTED_EDGE('',*,*,#718,.F.);
#1010=ORIENTED_EDGE('',*,*,#681,.F.);
#1011=ORIENTED_EDGE('',*,*,#718,.T.);
#1012=ORIENTED_EDGE('',*,*,#719,.F.);
#1013=ORIENTED_EDGE('',*,*,#720,.F.);
#1014=ORIENTED_EDGE('',*,*,#682,.T.);
#1015=ORIENTED_EDGE('',*,*,#720,.T.);
#1016=ORIENTED_EDGE('',*,*,#721,.F.);
#1017=ORIENTED_EDGE('',*,*,#722,.F.);
#1018=ORIENTED_EDGE('',*,*,#683,.F.);
#1019=ORIENTED_EDGE('',*,*,#722,.T.);
#1020=ORIENTED_EDGE('',*,*,#723,.F.);
#1021=ORIENTED_EDGE('',*,*,#708,.F.);
#1022=ORIENTED_EDGE('',*,*,#723,.T.);
#1023=ORIENTED_EDGE('',*,*,#721,.T.);
#1024=ORIENTED_EDGE('',*,*,#719,.T.);
#1025=ORIENTED_EDGE('',*,*,#717,.T.);
#1026=ORIENTED_EDGE('',*,*,#715,.T.);
#1027=ORIENTED_EDGE('',*,*,#713,.T.);
#1028=ORIENTED_EDGE('',*,*,#711,.T.);
#1029=ORIENTED_EDGE('',*,*,#709,.T.);
#1030=ORIENTED_EDGE('',*,*,#707,.T.);
#1031=ORIENTED_EDGE('',*,*,#705,.T.);
#1032=ORIENTED_EDGE('',*,*,#703,.T.);
#1033=ORIENTED_EDGE('',*,*,#701,.T.);
#1034=ORIENTED_EDGE('',*,*,#699,.T.);
#1035=ORIENTED_EDGE('',*,*,#697,.T.);
#1036=ORIENTED_EDGE('',*,*,#695,.T.);
#1037=ORIENTED_EDGE('',*,*,#693,.T.);
#1038=CYLINDRICAL_SURFACE('',#1139,0.649991040681991);
#1039=CYLINDRICAL_SURFACE('',#1143,0.649991040681991);
#1040=CYLINDRICAL_SURFACE('',#1147,0.649991040681991);
#1041=CYLINDRICAL_SURFACE('',#1151,0.649991040681991);
#1042=CYLINDRICAL_SURFACE('',#1156,2.99999999999999);
#1043=CYLINDRICAL_SURFACE('',#1160,3.);
#1044=CYLINDRICAL_SURFACE('',#1164,3.);
#1045=CYLINDRICAL_SURFACE('',#1168,2.99999999999999);
#1046=CYLINDRICAL_SURFACE('',#1181,3.);
#1047=CYLINDRICAL_SURFACE('',#1184,3.);
#1048=CYLINDRICAL_SURFACE('',#1187,3.00000000000001);
#1049=CYLINDRICAL_SURFACE('',#1190,3.);
#1050=CYLINDRICAL_SURFACE('',#1217,2.99999999999999);
#1051=CYLINDRICAL_SURFACE('',#1219,3.00000000000001);
#1052=CYLINDRICAL_SURFACE('',#1221,2.99999999999999);
#1053=CYLINDRICAL_SURFACE('',#1223,3.00000000000001);
#1054=CYLINDRICAL_SURFACE('',#1225,1.00000000000005);
#1055=CYLINDRICAL_SURFACE('',#1228,1.00000000000001);
#1056=CYLINDRICAL_SURFACE('',#1231,0.999999999999979);
#1057=CYLINDRICAL_SURFACE('',#1234,1.00000000000003);
#1058=CYLINDRICAL_SURFACE('',#1237,2.69999999999996);
#1059=CYLINDRICAL_SURFACE('',#1240,2.70000000000001);
#1060=CYLINDRICAL_SURFACE('',#1243,2.70000000000003);
#1061=CYLINDRICAL_SURFACE('',#1246,2.70000000000003);
#1062=ADVANCED_FACE('',(#64),#1038,.T.);
#1063=ADVANCED_FACE('',(#65),#26,.T.);
#1064=ADVANCED_FACE('',(#66),#1039,.T.);
#1065=ADVANCED_FACE('',(#67),#27,.T.);
#1066=ADVANCED_FACE('',(#68),#1040,.T.);
#1067=ADVANCED_FACE('',(#69),#28,.T.);
#1068=ADVANCED_FACE('',(#70),#1041,.T.);
#1069=ADVANCED_FACE('',(#71),#29,.T.);
#1070=ADVANCED_FACE('',(#72),#30,.T.);
#1071=ADVANCED_FACE('',(#73),#1042,.F.);
#1072=ADVANCED_FACE('',(#74),#31,.T.);
#1073=ADVANCED_FACE('',(#75),#1043,.F.);
#1074=ADVANCED_FACE('',(#76),#32,.T.);
#1075=ADVANCED_FACE('',(#77),#1044,.F.);
#1076=ADVANCED_FACE('',(#78),#33,.T.);
#1077=ADVANCED_FACE('',(#79),#1045,.F.);
#1078=ADVANCED_FACE('',(#80,#17),#34,.T.);
#1079=ADVANCED_FACE('',(#81),#35,.T.);
#1080=ADVANCED_FACE('',(#82),#36,.T.);
#1081=ADVANCED_FACE('',(#83),#37,.T.);
#1082=ADVANCED_FACE('',(#84),#38,.T.);
#1083=ADVANCED_FACE('',(#85),#39,.T.);
#1084=ADVANCED_FACE('',(#86),#1046,.T.);
#1085=ADVANCED_FACE('',(#87),#40,.T.);
#1086=ADVANCED_FACE('',(#88),#1047,.T.);
#1087=ADVANCED_FACE('',(#89),#41,.T.);
#1088=ADVANCED_FACE('',(#90),#1048,.T.);
#1089=ADVANCED_FACE('',(#91),#42,.T.);
#1090=ADVANCED_FACE('',(#92),#1049,.T.);
#1091=ADVANCED_FACE('',(#93,#18,#19,#20,#21,#22),#43,.T.);
#1092=ADVANCED_FACE('',(#94,#23),#44,.F.);
#1093=ADVANCED_FACE('',(#95),#45,.T.);
#1094=ADVANCED_FACE('',(#96),#46,.T.);
#1095=ADVANCED_FACE('',(#97),#47,.T.);
#1096=ADVANCED_FACE('',(#98),#48,.T.);
#1097=ADVANCED_FACE('',(#99),#49,.T.);
#1098=ADVANCED_FACE('',(#100,#24),#50,.F.);
#1099=ADVANCED_FACE('',(#101),#51,.T.);
#1100=ADVANCED_FACE('',(#102),#1050,.T.);
#1101=ADVANCED_FACE('',(#103),#52,.T.);
#1102=ADVANCED_FACE('',(#104),#1051,.T.);
#1103=ADVANCED_FACE('',(#105),#53,.T.);
#1104=ADVANCED_FACE('',(#106),#1052,.T.);
#1105=ADVANCED_FACE('',(#107),#54,.T.);
#1106=ADVANCED_FACE('',(#108),#1053,.T.);
#1107=ADVANCED_FACE('',(#109),#55,.T.);
#1108=ADVANCED_FACE('',(#110),#1054,.F.);
#1109=ADVANCED_FACE('',(#111),#56,.T.);
#1110=ADVANCED_FACE('',(#112),#1055,.F.);
#1111=ADVANCED_FACE('',(#113),#57,.T.);
#1112=ADVANCED_FACE('',(#114),#1056,.F.);
#1113=ADVANCED_FACE('',(#115),#58,.T.);
#1114=ADVANCED_FACE('',(#116),#1057,.F.);
#1115=ADVANCED_FACE('',(#117),#59,.T.);
#1116=ADVANCED_FACE('',(#118),#1058,.T.);
#1117=ADVANCED_FACE('',(#119),#60,.T.);
#1118=ADVANCED_FACE('',(#120),#1059,.T.);
#1119=ADVANCED_FACE('',(#121),#61,.T.);
#1120=ADVANCED_FACE('',(#122),#1060,.T.);
#1121=ADVANCED_FACE('',(#123),#62,.T.);
#1122=ADVANCED_FACE('',(#124),#1061,.T.);
#1123=ADVANCED_FACE('',(#125,#25),#63,.F.);
#1124=CLOSED_SHELL('',(#1062,#1063,#1064,#1065,#1066,#1067,#1068,#1069,
#1070,#1071,#1072,#1073,#1074,#1075,#1076,#1077,#1078,#1079,#1080,#1081,
#1082,#1083,#1084,#1085,#1086,#1087,#1088,#1089,#1090,#1091,#1092));
#1125=CLOSED_SHELL('',(#1093,#1094,#1095,#1096,#1097,#1098,#1099,#1100,
#1101,#1102,#1103,#1104,#1105,#1106,#1107,#1108,#1109,#1110,#1111,#1112,
#1113,#1114,#1115,#1116,#1117,#1118,#1119,#1120,#1121,#1122,#1123));
#1126=DERIVED_UNIT_ELEMENT(#1128,1.);
#1127=DERIVED_UNIT_ELEMENT(#1909,-3.);
#1128=(
MASS_UNIT()
NAMED_UNIT(*)
SI_UNIT(.KILO.,.GRAM.)
);
#1129=DERIVED_UNIT((#1126,#1127));
#1130=MEASURE_REPRESENTATION_ITEM('density measure',
POSITIVE_RATIO_MEASURE(7850.),#1129);
#1131=PROPERTY_DEFINITION_REPRESENTATION(#1136,#1133);
#1132=PROPERTY_DEFINITION_REPRESENTATION(#1137,#1134);
#1133=REPRESENTATION('material name',(#1135),#1906);
#1134=REPRESENTATION('density',(#1130),#1906);
#1135=DESCRIPTIVE_REPRESENTATION_ITEM('Steel','Steel');
#1136=PROPERTY_DEFINITION('material property','material name',#1916);
#1137=PROPERTY_DEFINITION('material property','density of part',#1916);
#1138=AXIS2_PLACEMENT_3D('',#1580,#1249,#1250);
#1139=AXIS2_PLACEMENT_3D('',#1581,#1251,#1252);
#1140=AXIS2_PLACEMENT_3D('',#1583,#1253,#1254);
#1141=AXIS2_PLACEMENT_3D('',#1586,#1256,#1257);
#1142=AXIS2_PLACEMENT_3D('',#1587,#1258,#1259);
#1143=AXIS2_PLACEMENT_3D('',#1588,#1260,#1261);
#1144=AXIS2_PLACEMENT_3D('',#1590,#1262,#1263);
#1145=AXIS2_PLACEMENT_3D('',#1593,#1265,#1266);
#1146=AXIS2_PLACEMENT_3D('',#1594,#1267,#1268);
#1147=AXIS2_PLACEMENT_3D('',#1595,#1269,#1270);
#1148=AXIS2_PLACEMENT_3D('',#1597,#1271,#1272);
#1149=AXIS2_PLACEMENT_3D('',#1600,#1274,#1275);
#1150=AXIS2_PLACEMENT_3D('',#1601,#1276,#1277);
#1151=AXIS2_PLACEMENT_3D('',#1602,#1278,#1279);
#1152=AXIS2_PLACEMENT_3D('',#1604,#1280,#1281);
#1153=AXIS2_PLACEMENT_3D('',#1607,#1283,#1284);
#1154=AXIS2_PLACEMENT_3D('',#1608,#1285,#1286);
#1155=AXIS2_PLACEMENT_3D('',#1609,#1287,#1288);
#1156=AXIS2_PLACEMENT_3D('',#1618,#1293,#1294);
#1157=AXIS2_PLACEMENT_3D('',#1620,#1295,#1296);
#1158=AXIS2_PLACEMENT_3D('',#1622,#1297,#1298);
#1159=AXIS2_PLACEMENT_3D('',#1624,#1300,#1301);
#1160=AXIS2_PLACEMENT_3D('',#1630,#1305,#1306);
#1161=AXIS2_PLACEMENT_3D('',#1632,#1307,#1308);
#1162=AXIS2_PLACEMENT_3D('',#1634,#1309,#1310);
#1163=AXIS2_PLACEMENT_3D('',#1636,#1312,#1313);
#1164=AXIS2_PLACEMENT_3D('',#1642,#1317,#1318);
#1165=AXIS2_PLACEMENT_3D('',#1644,#1319,#1320);
#1166=AXIS2_PLACEMENT_3D('',#1646,#1321,#1322);
#1167=AXIS2_PLACEMENT_3D('',#1648,#1324,#1325);
#1168=AXIS2_PLACEMENT_3D('',#1654,#1329,#1330);
#1169=AXIS2_PLACEMENT_3D('',#1655,#1331,#1332);
#1170=AXIS2_PLACEMENT_3D('',#1656,#1333,#1334);
#1171=AXIS2_PLACEMENT_3D('',#1657,#1335,#1336);
#1172=AXIS2_PLACEMENT_3D('',#1662,#1338,#1339);
#1173=AXIS2_PLACEMENT_3D('',#1666,#1341,#1342);
#1174=AXIS2_PLACEMENT_3D('',#1670,#1344,#1345);
#1175=AXIS2_PLACEMENT_3D('',#1673,#1347,#1348);
#1176=AXIS2_PLACEMENT_3D('',#1674,#1349,#1350);
#1177=AXIS2_PLACEMENT_3D('',#1683,#1355,#1356);
#1178=AXIS2_PLACEMENT_3D('',#1689,#1360,#1361);
#1179=AXIS2_PLACEMENT_3D('',#1695,#1365,#1366);
#1180=AXIS2_PLACEMENT_3D('',#1698,#1369,#1370);
#1181=AXIS2_PLACEMENT_3D('',#1704,#1374,#1375);
#1182=AXIS2_PLACEMENT_3D('',#1706,#1376,#1377);
#1183=AXIS2_PLACEMENT_3D('',#1708,#1379,#1380);
#1184=AXIS2_PLACEMENT_3D('',#1712,#1383,#1384);
#1185=AXIS2_PLACEMENT_3D('',#1714,#1385,#1386);
#1186=AXIS2_PLACEMENT_3D('',#1716,#1388,#1389);
#1187=AXIS2_PLACEMENT_3D('',#1720,#1392,#1393);
#1188=AXIS2_PLACEMENT_3D('',#1722,#1394,#1395);
#1189=AXIS2_PLACEMENT_3D('',#1724,#1397,#1398);
#1190=AXIS2_PLACEMENT_3D('',#1728,#1401,#1402);
#1191=AXIS2_PLACEMENT_3D('',#1729,#1403,#1404);
#1192=AXIS2_PLACEMENT_3D('',#1730,#1405,#1406);
#1193=AXIS2_PLACEMENT_3D('',#1731,#1407,#1408);
#1194=AXIS2_PLACEMENT_3D('',#1732,#1409,#1410);
#1195=AXIS2_PLACEMENT_3D('',#1741,#1415,#1416);
#1196=AXIS2_PLACEMENT_3D('',#1747,#1420,#1421);
#1197=AXIS2_PLACEMENT_3D('',#1751,#1424,#1425);
#1198=AXIS2_PLACEMENT_3D('',#1755,#1428,#1429);
#1199=AXIS2_PLACEMENT_3D('',#1759,#1431,#1432);
#1200=AXIS2_PLACEMENT_3D('',#1763,#1434,#1435);
#1201=AXIS2_PLACEMENT_3D('',#1767,#1437,#1438);
#1202=AXIS2_PLACEMENT_3D('',#1771,#1440,#1441);
#1203=AXIS2_PLACEMENT_3D('',#1776,#1444,#1445);
#1204=AXIS2_PLACEMENT_3D('',#1780,#1447,#1448);
#1205=AXIS2_PLACEMENT_3D('',#1784,#1450,#1451);
#1206=AXIS2_PLACEMENT_3D('',#1788,#1453,#1454);
#1207=AXIS2_PLACEMENT_3D('',#1790,#1456,#1457);
#1208=AXIS2_PLACEMENT_3D('',#1793,#1458,#1459);
#1209=AXIS2_PLACEMENT_3D('',#1797,#1461,#1462);
#1210=AXIS2_PLACEMENT_3D('',#1801,#1464,#1465);
#1211=AXIS2_PLACEMENT_3D('',#1805,#1467,#1468);
#1212=AXIS2_PLACEMENT_3D('',#1811,#1471,#1472);
#1213=AXIS2_PLACEMENT_3D('',#1815,#1474,#1475);
#1214=AXIS2_PLACEMENT_3D('',#1819,#1477,#1478);
#1215=AXIS2_PLACEMENT_3D('',#1822,#1480,#1481);
#1216=AXIS2_PLACEMENT_3D('',#1823,#1482,#1483);
#1217=AXIS2_PLACEMENT_3D('',#1826,#1486,#1487);
#1218=AXIS2_PLACEMENT_3D('',#1828,#1489,#1490);
#1219=AXIS2_PLACEMENT_3D('',#1830,#1492,#1493);
#1220=AXIS2_PLACEMENT_3D('',#1832,#1495,#1496);
#1221=AXIS2_PLACEMENT_3D('',#1834,#1498,#1499);
#1222=AXIS2_PLACEMENT_3D('',#1836,#1501,#1502);
#1223=AXIS2_PLACEMENT_3D('',#1838,#1504,#1505);
#1224=AXIS2_PLACEMENT_3D('',#1839,#1506,#1507);
#1225=AXIS2_PLACEMENT_3D('',#1845,#1511,#1512);
#1226=AXIS2_PLACEMENT_3D('',#1847,#1513,#1514);
#1227=AXIS2_PLACEMENT_3D('',#1849,#1516,#1517);
#1228=AXIS2_PLACEMENT_3D('',#1853,#1520,#1521);
#1229=AXIS2_PLACEMENT_3D('',#1855,#1522,#1523);
#1230=AXIS2_PLACEMENT_3D('',#1857,#1525,#1526);
#1231=AXIS2_PLACEMENT_3D('',#1861,#1529,#1530);
#1232=AXIS2_PLACEMENT_3D('',#1863,#1531,#1532);
#1233=AXIS2_PLACEMENT_3D('',#1865,#1534,#1535);
#1234=AXIS2_PLACEMENT_3D('',#1869,#1538,#1539);
#1235=AXIS2_PLACEMENT_3D('',#1870,#1540,#1541);
#1236=AXIS2_PLACEMENT_3D('',#1871,#1542,#1543);
#1237=AXIS2_PLACEMENT_3D('',#1877,#1547,#1548);
#1238=AXIS2_PLACEMENT_3D('',#1879,#1549,#1550);
#1239=AXIS2_PLACEMENT_3D('',#1881,#1552,#1553);
#1240=AXIS2_PLACEMENT_3D('',#1885,#1556,#1557);
#1241=AXIS2_PLACEMENT_3D('',#1887,#1558,#1559);
#1242=AXIS2_PLACEMENT_3D('',#1889,#1561,#1562);
#1243=AXIS2_PLACEMENT_3D('',#1893,#1565,#1566);
#1244=AXIS2_PLACEMENT_3D('',#1895,#1567,#1568);
#1245=AXIS2_PLACEMENT_3D('',#1897,#1570,#1571);
#1246=AXIS2_PLACEMENT_3D('',#1901,#1574,#1575);
#1247=AXIS2_PLACEMENT_3D('',#1902,#1576,#1577);
#1248=AXIS2_PLACEMENT_3D('',#1903,#1578,#1579);
#1249=DIRECTION('axis',(0.,0.,1.));
#1250=DIRECTION('refdir',(1.,0.,0.));
#1251=DIRECTION('center_axis',(0.,-0.857167300702112,-0.515038074910054));
#1252=DIRECTION('ref_axis',(-1.,0.,0.));
#1253=DIRECTION('center_axis',(0.,0.857167300702112,0.515038074910054));
#1254=DIRECTION('ref_axis',(-1.,0.,0.));
#1255=DIRECTION('',(0.,0.857167300702112,0.515038074910054));
#1256=DIRECTION('center_axis',(0.,0.857167300702112,0.515038074910054));
#1257=DIRECTION('ref_axis',(-1.,0.,0.));
#1258=DIRECTION('center_axis',(0.,-0.857167300702112,-0.515038074910054));
#1259=DIRECTION('ref_axis',(-1.,0.,0.));
#1260=DIRECTION('center_axis',(0.,-0.857167300702112,-0.515038074910054));
#1261=DIRECTION('ref_axis',(-1.,0.,0.));
#1262=DIRECTION('center_axis',(0.,0.857167300702112,0.515038074910054));
#1263=DIRECTION('ref_axis',(-1.,0.,0.));
#1264=DIRECTION('',(0.,0.857167300702112,0.515038074910054));
#1265=DIRECTION('center_axis',(0.,0.857167300702112,0.515038074910054));
#1266=DIRECTION('ref_axis',(-1.,0.,0.));
#1267=DIRECTION('center_axis',(0.,-0.857167300702112,-0.515038074910054));
#1268=DIRECTION('ref_axis',(-1.,0.,0.));
#1269=DIRECTION('center_axis',(0.,-0.857167300702112,-0.515038074910054));
#1270=DIRECTION('ref_axis',(-1.,0.,0.));
#1271=DIRECTION('center_axis',(0.,0.857167300702112,0.515038074910054));
#1272=DIRECTION('ref_axis',(-1.,0.,0.));
#1273=DIRECTION('',(0.,0.857167300702112,0.515038074910054));
#1274=DIRECTION('center_axis',(0.,0.857167300702112,0.515038074910054));
#1275=DIRECTION('ref_axis',(-1.,0.,0.));
#1276=DIRECTION('center_axis',(0.,-0.857167300702112,-0.515038074910054));
#1277=DIRECTION('ref_axis',(-1.,0.,0.));
#1278=DIRECTION('center_axis',(0.,-0.857167300702112,-0.515038074910054));
#1279=DIRECTION('ref_axis',(-1.,0.,0.));
#1280=DIRECTION('center_axis',(0.,0.857167300702112,0.515038074910054));
#1281=DIRECTION('ref_axis',(-1.,0.,0.));
#1282=DIRECTION('',(0.,0.857167300702112,0.515038074910054));
#1283=DIRECTION('center_axis',(0.,0.857167300702112,0.515038074910054));
#1284=DIRECTION('ref_axis',(-1.,0.,0.));
#1285=DIRECTION('center_axis',(0.,-0.857167300702112,-0.515038074910054));
#1286=DIRECTION('ref_axis',(-1.,0.,0.));
#1287=DIRECTION('center_axis',(2.8421709430404E-16,0.515038074910054,-0.857167300702112));
#1288=DIRECTION('ref_axis',(1.,-1.46382625106882E-16,2.43621599537992E-16));
#1289=DIRECTION('',(-1.,1.46382625106882E-16,-2.43621599537992E-16));
#1290=DIRECTION('',(0.,-0.857167300702112,-0.515038074910054));
#1291=DIRECTION('',(1.,-1.46382625106882E-16,2.43621599537992E-16));
#1292=DIRECTION('',(0.,-0.857167300702112,-0.515038074910054));
#1293=DIRECTION('center_axis',(0.,-0.857167300702112,-0.515038074910054));
#1294=DIRECTION('ref_axis',(1.1842378929335E-15,-0.515038074910054,0.857167300702112));
#1295=DIRECTION('center_axis',(0.,-0.857167300702112,-0.515038074910054));
#1296=DIRECTION('ref_axis',(1.1842378929335E-15,-0.515038074910054,0.857167300702112));
#1297=DIRECTION('center_axis',(0.,0.857167300702112,0.515038074910054));
#1298=DIRECTION('ref_axis',(1.1842378929335E-15,-0.515038074910054,0.857167300702112));
#1299=DIRECTION('',(0.,-0.857167300702112,-0.515038074910054));
#1300=DIRECTION('center_axis',(1.,1.82978281383603E-17,-3.0452699942249E-17));
#1301=DIRECTION('ref_axis',(3.5527136788005E-17,-0.515038074910054,0.857167300702112));
#1302=DIRECTION('',(-3.5527136788005E-17,0.515038074910054,-0.857167300702112));
#1303=DIRECTION('',(3.5527136788005E-17,-0.515038074910054,0.857167300702112));
#1304=DIRECTION('',(0.,-0.857167300702112,-0.515038074910054));
#1305=DIRECTION('center_axis',(0.,-0.857167300702112,-0.515038074910054));
#1306=DIRECTION('ref_axis',(-1.,0.,0.));
#1307=DIRECTION('center_axis',(0.,-0.857167300702112,-0.515038074910054));
#1308=DIRECTION('ref_axis',(-1.,0.,0.));
#1309=DIRECTION('center_axis',(0.,0.857167300702112,0.515038074910054));
#1310=DIRECTION('ref_axis',(-1.,0.,0.));
#1311=DIRECTION('',(0.,-0.857167300702112,-0.515038074910054));
#1312=DIRECTION('center_axis',(3.5527136788005E-17,-0.515038074910054,0.857167300702112));
#1313=DIRECTION('ref_axis',(-1.,-1.82978281383603E-17,3.0452699942249E-17));
#1314=DIRECTION('',(1.,1.82978281383603E-17,-3.0452699942249E-17));
#1315=DIRECTION('',(-1.,-1.82978281383603E-17,3.0452699942249E-17));
#1316=DIRECTION('',(0.,-0.857167300702112,-0.515038074910054));
#1317=DIRECTION('center_axis',(0.,-0.857167300702112,-0.515038074910054));
#1318=DIRECTION('ref_axis',(-2.368475785867E-15,0.515038074910054,-0.857167300702112));
#1319=DIRECTION('center_axis',(0.,-0.857167300702112,-0.515038074910054));
#1320=DIRECTION('ref_axis',(-2.368475785867E-15,0.515038074910054,-0.857167300702112));
#1321=DIRECTION('center_axis',(0.,0.857167300702112,0.515038074910054));
#1322=DIRECTION('ref_axis',(-2.368475785867E-15,0.515038074910054,-0.857167300702112));
#1323=DIRECTION('',(0.,-0.857167300702112,-0.515038074910054));
#1324=DIRECTION('center_axis',(-1.,-1.46382625106882E-16,2.43621599537992E-16));
#1325=DIRECTION('ref_axis',(-2.8421709430404E-16,0.515038074910054,-0.857167300702112));
#1326=DIRECTION('',(2.8421709430404E-16,-0.515038074910054,0.857167300702112));
#1327=DIRECTION('',(-2.8421709430404E-16,0.515038074910054,-0.857167300702112));
#1328=DIRECTION('',(0.,-0.857167300702112,-0.515038074910054));
#1329=DIRECTION('center_axis',(0.,-0.857167300702112,-0.515038074910054));
#1330=DIRECTION('ref_axis',(1.,1.82978281383603E-15,-3.04526999422491E-15));
#1331=DIRECTION('center_axis',(0.,-0.857167300702112,-0.515038074910054));
#1332=DIRECTION('ref_axis',(1.,1.82978281383603E-15,-3.04526999422491E-15));
#1333=DIRECTION('center_axis',(0.,0.857167300702112,0.515038074910054));
#1334=DIRECTION('ref_axis',(1.,1.82978281383603E-15,-3.04526999422491E-15));
#1335=DIRECTION('center_axis',(0.,-0.857167300702112,-0.515038074910054));
#1336=DIRECTION('ref_axis',(-1.,0.,0.));
#1337=DIRECTION('',(1.,0.,0.));
#1338=DIRECTION('center_axis',(0.,-0.857167300702112,-0.515038074910054));
#1339=DIRECTION('ref_axis',(-2.368475785867E-15,0.515038074910054,-0.857167300702112));
#1340=DIRECTION('',(2.45014736469E-16,-0.515038074910054,0.857167300702112));
#1341=DIRECTION('center_axis',(0.,-0.857167300702112,-0.515038074910054));
#1342=DIRECTION('ref_axis',(1.,6.09927604612008E-16,-1.01508999807496E-15));
#1343=DIRECTION('',(-1.,1.26191918195588E-16,-2.10018620291372E-16));
#1344=DIRECTION('center_axis',(0.,-0.857167300702112,-0.515038074910054));
#1345=DIRECTION('ref_axis',(2.96059473233375E-16,-0.515038074910054,0.857167300702112));
#1346=DIRECTION('',(3.0626842058625E-17,0.515038074910054,-0.857167300702112));
#1347=DIRECTION('center_axis',(0.,-0.857167300702112,-0.515038074910054));
#1348=DIRECTION('ref_axis',(-1.,0.,0.));
#1349=DIRECTION('center_axis',(0.,0.515038074910054,-0.857167300702112));
#1350=DIRECTION('ref_axis',(1.,0.,0.));
#1351=DIRECTION('',(1.,0.,0.));
#1352=DIRECTION('',(0.,-0.857167300702112,-0.515038074910054));
#1353=DIRECTION('',(1.,0.,0.));
#1354=DIRECTION('',(0.,-0.857167300702112,-0.515038074910054));
#1355=DIRECTION('center_axis',(1.,0.,0.));
#1356=DIRECTION('ref_axis',(0.,-0.515038074910054,0.857167300702112));
#1357=DIRECTION('',(0.,-0.515038074910054,0.857167300702112));
#1358=DIRECTION('',(0.,-0.515038074910054,0.857167300702112));
#1359=DIRECTION('',(0.,-0.857167300702112,-0.515038074910054));
#1360=DIRECTION('center_axis',(0.,-0.515038074910054,0.857167300702112));
#1361=DIRECTION('ref_axis',(-1.,0.,0.));
#1362=DIRECTION('',(-1.,0.,0.));
#1363=DIRECTION('',(-1.,0.,0.));
#1364=DIRECTION('',(0.,-0.857167300702112,-0.515038074910054));
#1365=DIRECTION('center_axis',(-1.,0.,0.));
#1366=DIRECTION('ref_axis',(0.,0.515038074910054,-0.857167300702112));
#1367=DIRECTION('',(0.,0.515038074910054,-0.857167300702112));
#1368=DIRECTION('',(0.,0.515038074910054,-0.857167300702112));
#1369=DIRECTION('center_axis',(0.,0.515038074910054,-0.857167300702112));
#1370=DIRECTION('ref_axis',(1.,0.,0.));
#1371=DIRECTION('',(1.,0.,0.));
#1372=DIRECTION('',(0.,-0.857167300702112,-0.515038074910054));
#1373=DIRECTION('',(0.,-0.857167300702112,-0.515038074910054));
#1374=DIRECTION('center_axis',(0.,-0.857167300702112,-0.515038074910054));
#1375=DIRECTION('ref_axis',(-1.,0.,0.));
#1376=DIRECTION('center_axis',(0.,-0.857167300702112,-0.515038074910054));
#1377=DIRECTION('ref_axis',(-1.,0.,0.));
#1378=DIRECTION('',(0.,-0.857167300702112,-0.515038074910054));
#1379=DIRECTION('center_axis',(-1.,0.,0.));
#1380=DIRECTION('ref_axis',(0.,0.515038074910054,-0.857167300702112));
#1381=DIRECTION('',(0.,0.515038074910054,-0.857167300702112));
#1382=DIRECTION('',(0.,-0.857167300702112,-0.515038074910054));
#1383=DIRECTION('center_axis',(0.,-0.857167300702112,-0.515038074910054));
#1384=DIRECTION('ref_axis',(0.,-0.515038074910054,0.857167300702112));
#1385=DIRECTION('center_axis',(0.,-0.857167300702112,-0.515038074910054));
#1386=DIRECTION('ref_axis',(0.,-0.515038074910054,0.857167300702112));
#1387=DIRECTION('',(0.,-0.857167300702112,-0.515038074910054));
#1388=DIRECTION('center_axis',(0.,-0.515038074910054,0.857167300702112));
#1389=DIRECTION('ref_axis',(-1.,0.,0.));
#1390=DIRECTION('',(-1.,0.,0.));
#1391=DIRECTION('',(0.,-0.857167300702112,-0.515038074910054));
#1392=DIRECTION('center_axis',(0.,-0.857167300702112,-0.515038074910054));
#1393=DIRECTION('ref_axis',(1.,6.09927604612008E-16,-1.01508999807496E-15));
#1394=DIRECTION('center_axis',(0.,-0.857167300702112,-0.515038074910054));
#1395=DIRECTION('ref_axis',(1.,6.09927604612008E-16,-1.01508999807496E-15));
#1396=DIRECTION('',(0.,-0.857167300702112,-0.515038074910054));
#1397=DIRECTION('center_axis',(1.,1.26191918195588E-16,-2.10018620291372E-16));
#1398=DIRECTION('ref_axis',(2.45014736469E-16,-0.515038074910054,0.857167300702112));
#1399=DIRECTION('',(2.45014736469E-16,-0.515038074910054,0.857167300702112));
#1400=DIRECTION('',(0.,-0.857167300702112,-0.515038074910054));
#1401=DIRECTION('center_axis',(0.,-0.857167300702112,-0.515038074910054));
#1402=DIRECTION('ref_axis',(-2.368475785867E-15,0.515038074910054,-0.857167300702112));
#1403=DIRECTION('center_axis',(0.,-0.857167300702112,-0.515038074910054));
#1404=DIRECTION('ref_axis',(-2.368475785867E-15,0.515038074910054,-0.857167300702112));
#1405=DIRECTION('center_axis',(0.,-0.857167300702112,-0.515038074910054));
#1406=DIRECTION('ref_axis',(1.,0.,0.));
#1407=DIRECTION('center_axis',(0.,-0.857167300702112,-0.515038074910054));
#1408=DIRECTION('ref_axis',(1.,0.,0.));
#1409=DIRECTION('center_axis',(-1.,0.,0.));
#1410=DIRECTION('ref_axis',(0.,-0.857167300702112,-0.515038074910054));
#1411=DIRECTION('',(0.,-0.515038074910054,0.857167300702112));
#1412=DIRECTION('',(0.,0.999999799971658,0.000632500311995632));
#1413=DIRECTION('',(0.,-0.515038074910054,0.857167300702112));
#1414=DIRECTION('',(0.,-0.857167300702112,-0.515038074910054));
#1415=DIRECTION('center_axis',(0.,-0.000632500311995576,0.999999799971658));
#1416=DIRECTION('ref_axis',(0.,-0.999999799971658,-0.000632500311995576));
#1417=DIRECTION('',(-1.,0.,0.));
#1418=DIRECTION('',(0.,-0.999999799971658,-0.000632500311995632));
#1419=DIRECTION('',(-1.,3.1547979548897E-16,-5.25046550728431E-16));
#1420=DIRECTION('center_axis',(0.,-0.857167300702112,-0.515038074910054));
#1421=DIRECTION('ref_axis',(0.,0.515038074910054,-0.857167300702112));
#1422=DIRECTION('',(1.,0.,0.));
#1423=DIRECTION('',(0.,0.515038074910054,-0.857167300702112));
#1424=DIRECTION('center_axis',(1.,0.,0.));
#1425=DIRECTION('ref_axis',(0.,0.857167300702112,0.515038074910054));
#1426=DIRECTION('',(0.,0.857167300702112,0.515038074910054));
#1427=DIRECTION('',(0.,0.515038074910054,-0.857167300702112));
#1428=DIRECTION('center_axis',(0.,-0.857167300702112,-0.515038074910054));
#1429=DIRECTION('ref_axis',(-1.,0.,0.));
#1430=DIRECTION('',(1.,3.65956562767204E-16,-6.09053998844978E-16));
#1431=DIRECTION('center_axis',(0.,0.857167300702112,0.515038074910054));
#1432=DIRECTION('ref_axis',(1.,9.14891406918033E-15,-1.52263499711248E-14));
#1433=DIRECTION('',(-2.8421709430404E-15,0.515038074910054,-0.857167300702112));
#1434=DIRECTION('center_axis',(0.,0.857167300702112,0.515038074910054));
#1435=DIRECTION('ref_axis',(3.55271367880039E-14,0.515038074910054,-0.857167300702112));
#1436=DIRECTION('',(-1.,3.65956562767205E-16,-6.09053998844979E-16));
#1437=DIRECTION('center_axis',(0.,0.857167300702112,0.515038074910054));
#1438=DIRECTION('ref_axis',(-1.,1.82978281383594E-14,-3.04526999422475E-14));
#1439=DIRECTION('',(0.,-0.515038074910054,0.857167300702112));
#1440=DIRECTION('center_axis',(0.,0.857167300702112,0.515038074910054));
#1441=DIRECTION('ref_axis',(0.,-0.515038074910054,0.857167300702112));
#1442=DIRECTION('',(1.,3.65956562767204E-16,-6.09053998844978E-16));
#1443=DIRECTION('',(-1.,3.1547979548897E-16,-5.25046550728431E-16));
#1444=DIRECTION('center_axis',(0.,-0.857167300702112,-0.515038074910054));
#1445=DIRECTION('ref_axis',(0.,-0.515038074910054,0.857167300702112));
#1446=DIRECTION('',(0.,0.515038074910054,-0.857167300702112));
#1447=DIRECTION('center_axis',(0.,-0.857167300702112,-0.515038074910054));
#1448=DIRECTION('ref_axis',(-1.,0.,0.));
#1449=DIRECTION('',(1.,0.,0.));
#1450=DIRECTION('center_axis',(0.,-0.857167300702112,-0.515038074910054));
#1451=DIRECTION('ref_axis',(-1.1842378929335E-14,0.515038074910054,-0.857167300702112));
#1452=DIRECTION('',(-1.225073682345E-15,-0.515038074910054,0.857167300702112));
#1453=DIRECTION('center_axis',(0.,-0.857167300702112,-0.515038074910054));
#1454=DIRECTION('ref_axis',(1.,3.04963802306004E-15,-5.07544999037482E-15));
#1455=DIRECTION('',(-1.,3.1547979548897E-16,-5.25046550728431E-16));
#1456=DIRECTION('center_axis',(0.,-0.857167300702112,-0.515038074910054));
#1457=DIRECTION('ref_axis',(-1.,0.,0.));
#1458=DIRECTION('center_axis',(0.,-0.857167300702112,-0.515038074910054));
#1459=DIRECTION('ref_axis',(-1.,0.,0.));
#1460=DIRECTION('',(0.,0.515038074910054,-0.857167300702112));
#1461=DIRECTION('center_axis',(0.,-0.857167300702112,-0.515038074910054));
#1462=DIRECTION('ref_axis',(0.,-0.515038074910054,0.857167300702112));
#1463=DIRECTION('',(-1.,3.1547979548897E-16,-5.25046550728431E-16));
#1464=DIRECTION('center_axis',(0.,-0.857167300702112,-0.515038074910054));
#1465=DIRECTION('ref_axis',(1.,3.04963802306004E-15,-5.07544999037482E-15));
#1466=DIRECTION('',(-1.225073682345E-15,-0.515038074910054,0.857167300702112));
#1467=DIRECTION('center_axis',(0.,-0.857167300702112,-0.515038074910054));
#1468=DIRECTION('ref_axis',(-1.1842378929335E-14,0.515038074910054,-0.857167300702112));
#1469=DIRECTION('',(1.,0.,0.));
#1470=DIRECTION('',(-1.4210854715202E-15,0.515038074910054,-0.857167300702112));
#1471=DIRECTION('center_axis',(0.,-0.857167300702112,-0.515038074910054));
#1472=DIRECTION('ref_axis',(1.,3.38848669228899E-15,-5.63938887819434E-15));
#1473=DIRECTION('',(1.,3.65956562767204E-16,-6.09053998844978E-16));
#1474=DIRECTION('center_axis',(0.,-0.857167300702112,-0.515038074910054));
#1475=DIRECTION('ref_axis',(0.,-0.515038074910054,0.857167300702112));
#1476=DIRECTION('',(0.,-0.515038074910054,0.857167300702112));
#1477=DIRECTION('center_axis',(0.,-0.857167300702112,-0.515038074910054));
#1478=DIRECTION('ref_axis',(-1.,6.7769733845778E-15,-1.12787777563884E-14));
#1479=DIRECTION('',(-1.,3.65956562767205E-16,-6.09053998844979E-16));
#1480=DIRECTION('center_axis',(0.,-0.857167300702112,-0.515038074910054));
#1481=DIRECTION('ref_axis',(1.31581988103721E-14,0.515038074910054,-0.857167300702112));
#1482=DIRECTION('center_axis',(-1.,0.,0.));
#1483=DIRECTION('ref_axis',(0.,0.515038074910054,-0.857167300702112));
#1484=DIRECTION('',(0.,-0.857167300702112,-0.515038074910054));
#1485=DIRECTION('',(0.,-0.857167300702112,-0.515038074910054));
#1486=DIRECTION('center_axis',(0.,-0.857167300702112,-0.515038074910054));
#1487=DIRECTION('ref_axis',(0.,-0.515038074910054,0.857167300702112));
#1488=DIRECTION('',(0.,-0.857167300702112,-0.515038074910054));
#1489=DIRECTION('center_axis',(-6.125368411725E-16,-0.515038074910054,0.857167300702112));
#1490=DIRECTION('ref_axis',(-1.,3.1547979548897E-16,-5.25046550728431E-16));
#1491=DIRECTION('',(0.,-0.857167300702112,-0.515038074910054));
#1492=DIRECTION('center_axis',(0.,-0.857167300702112,-0.515038074910054));
#1493=DIRECTION('ref_axis',(1.,3.04963802306004E-15,-5.07544999037482E-15));
#1494=DIRECTION('',(0.,-0.857167300702112,-0.515038074910054));
#1495=DIRECTION('center_axis',(1.,-6.30959590977941E-16,1.05009310145686E-15));
#1496=DIRECTION('ref_axis',(-1.225073682345E-15,-0.515038074910054,0.857167300702112));
#1497=DIRECTION('',(0.,-0.857167300702112,-0.515038074910054));
#1498=DIRECTION('center_axis',(0.,-0.857167300702112,-0.515038074910054));
#1499=DIRECTION('ref_axis',(-1.1842378929335E-14,0.515038074910054,-0.857167300702112));
#1500=DIRECTION('',(0.,-0.857167300702112,-0.515038074910054));
#1501=DIRECTION('center_axis',(0.,0.515038074910054,-0.857167300702112));
#1502=DIRECTION('ref_axis',(1.,0.,0.));
#1503=DIRECTION('',(0.,-0.857167300702112,-0.515038074910054));
#1504=DIRECTION('center_axis',(0.,-0.857167300702112,-0.515038074910054));
#1505=DIRECTION('ref_axis',(-1.,0.,0.));
#1506=DIRECTION('center_axis',(-7.105427357601E-16,-0.515038074910054,0.857167300702112));
#1507=DIRECTION('ref_axis',(1.,-3.65956562767205E-16,6.09053998844979E-16));
#1508=DIRECTION('',(0.,-0.857167300702112,-0.515038074910054));
#1509=DIRECTION('',(1.,-3.65956562767205E-16,6.09053998844979E-16));
#1510=DIRECTION('',(0.,-0.857167300702112,-0.515038074910054));
#1511=DIRECTION('center_axis',(0.,0.857167300702112,0.515038074910054));
#1512=DIRECTION('ref_axis',(-1.,1.82978281383594E-14,-3.04526999422475E-14));
#1513=DIRECTION('center_axis',(0.,-0.857167300702112,-0.515038074910054));
#1514=DIRECTION('ref_axis',(-1.,1.82978281383594E-14,-3.04526999422475E-14));
#1515=DIRECTION('',(0.,-0.857167300702112,-0.515038074910054));
#1516=DIRECTION('center_axis',(1.,0.,0.));
#1517=DIRECTION('ref_axis',(0.,0.515038074910054,-0.857167300702112));
#1518=DIRECTION('',(0.,0.515038074910054,-0.857167300702112));
#1519=DIRECTION('',(0.,-0.857167300702112,-0.515038074910054));
#1520=DIRECTION('center_axis',(0.,0.857167300702112,0.515038074910054));
#1521=DIRECTION('ref_axis',(0.,-0.515038074910054,0.857167300702112));
#1522=DIRECTION('center_axis',(0.,-0.857167300702112,-0.515038074910054));
#1523=DIRECTION('ref_axis',(0.,-0.515038074910054,0.857167300702112));
#1524=DIRECTION('',(0.,-0.857167300702112,-0.515038074910054));
#1525=DIRECTION('center_axis',(-7.10542735760098E-16,0.515038074910054,
-0.857167300702112));
#1526=DIRECTION('ref_axis',(-1.,-3.65956562767204E-16,6.09053998844978E-16));
#1527=DIRECTION('',(-1.,-3.65956562767204E-16,6.09053998844978E-16));
#1528=DIRECTION('',(0.,-0.857167300702112,-0.515038074910054));
#1529=DIRECTION('center_axis',(0.,0.857167300702112,0.515038074910054));
#1530=DIRECTION('ref_axis',(1.,9.14891406918033E-15,-1.52263499711248E-14));
#1531=DIRECTION('center_axis',(0.,-0.857167300702112,-0.515038074910054));
#1532=DIRECTION('ref_axis',(1.,9.14891406918033E-15,-1.52263499711248E-14));
#1533=DIRECTION('',(0.,-0.857167300702112,-0.515038074910054));
#1534=DIRECTION('center_axis',(-1.,-1.46382625106882E-15,2.43621599537992E-15));
#1535=DIRECTION('ref_axis',(2.8421709430404E-15,-0.515038074910054,0.857167300702112));
#1536=DIRECTION('',(2.8421709430404E-15,-0.515038074910054,0.857167300702112));
#1537=DIRECTION('',(0.,0.857167300702112,0.515038074910054));
#1538=DIRECTION('center_axis',(0.,0.857167300702112,0.515038074910054));
#1539=DIRECTION('ref_axis',(3.55271367880039E-14,0.515038074910054,-0.857167300702112));
#1540=DIRECTION('center_axis',(0.,-0.857167300702112,-0.515038074910054));
#1541=DIRECTION('ref_axis',(3.55271367880039E-14,0.515038074910054,-0.857167300702112));
#1542=DIRECTION('center_axis',(1.,7.31913125534411E-16,-1.21810799768996E-15));
#1543=DIRECTION('ref_axis',(-1.4210854715202E-15,0.515038074910054,-0.857167300702112));
#1544=DIRECTION('',(0.,0.857167300702112,0.515038074910054));
#1545=DIRECTION('',(-1.4210854715202E-15,0.515038074910054,-0.857167300702112));
#1546=DIRECTION('',(0.,0.857167300702112,0.515038074910054));
#1547=DIRECTION('center_axis',(0.,0.857167300702112,0.515038074910054));
#1548=DIRECTION('ref_axis',(1.,3.38848669228899E-15,-5.63938887819434E-15));
#1549=DIRECTION('center_axis',(0.,0.857167300702112,0.515038074910054));
#1550=DIRECTION('ref_axis',(1.,3.38848669228899E-15,-5.63938887819434E-15));
#1551=DIRECTION('',(0.,0.857167300702112,0.515038074910054));
#1552=DIRECTION('center_axis',(7.10542735760098E-16,-0.515038074910054,
0.857167300702112));
#1553=DIRECTION('ref_axis',(1.,3.65956562767204E-16,-6.09053998844978E-16));
#1554=DIRECTION('',(1.,3.65956562767204E-16,-6.09053998844978E-16));
#1555=DIRECTION('',(0.,0.857167300702112,0.515038074910054));
#1556=DIRECTION('center_axis',(0.,0.857167300702112,0.515038074910054));
#1557=DIRECTION('ref_axis',(0.,-0.515038074910054,0.857167300702112));
#1558=DIRECTION('center_axis',(0.,0.857167300702112,0.515038074910054));
#1559=DIRECTION('ref_axis',(0.,-0.515038074910054,0.857167300702112));
#1560=DIRECTION('',(0.,0.857167300702112,0.515038074910054));
#1561=DIRECTION('center_axis',(-1.,0.,0.));
#1562=DIRECTION('ref_axis',(0.,-0.515038074910054,0.857167300702112));
#1563=DIRECTION('',(0.,-0.515038074910054,0.857167300702112));
#1564=DIRECTION('',(0.,0.857167300702112,0.515038074910054));
#1565=DIRECTION('center_axis',(0.,0.857167300702112,0.515038074910054));
#1566=DIRECTION('ref_axis',(-1.,6.7769733845778E-15,-1.12787777563884E-14));
#1567=DIRECTION('center_axis',(0.,0.857167300702112,0.515038074910054));
#1568=DIRECTION('ref_axis',(-1.,6.7769733845778E-15,-1.12787777563884E-14));
#1569=DIRECTION('',(0.,0.857167300702112,0.515038074910054));
#1570=DIRECTION('center_axis',(7.105427357601E-16,0.515038074910054,-0.857167300702112));
#1571=DIRECTION('ref_axis',(-1.,3.65956562767205E-16,-6.09053998844979E-16));
#1572=DIRECTION('',(-1.,3.65956562767205E-16,-6.09053998844979E-16));
#1573=DIRECTION('',(0.,0.857167300702112,0.515038074910054));
#1574=DIRECTION('center_axis',(0.,0.857167300702112,0.515038074910054));
#1575=DIRECTION('ref_axis',(1.31581988103721E-14,0.515038074910054,-0.857167300702112));
#1576=DIRECTION('center_axis',(0.,0.857167300702112,0.515038074910054));
#1577=DIRECTION('ref_axis',(1.31581988103721E-14,0.515038074910054,-0.857167300702112));
#1578=DIRECTION('center_axis',(0.,-0.857167300702112,-0.515038074910054));
#1579=DIRECTION('ref_axis',(-1.,0.,0.));
#1580=CARTESIAN_POINT('',(0.,0.,0.));
#1581=CARTESIAN_POINT('Origin',(-10.5000004436716,104.052608071464,4.62796204741599));
#1582=CARTESIAN_POINT('',(-9.8500094029896,100.623938868655,2.56780974777576));
#1583=CARTESIAN_POINT('Origin',(-10.5000004436716,100.623938868655,2.56780974777576));
#1584=CARTESIAN_POINT('',(-9.8500094029896,104.052608071464,4.62796204741599));
#1585=CARTESIAN_POINT('',(-9.8500094029896,104.052608071464,4.62796204741599));
#1586=CARTESIAN_POINT('Origin',(-10.5000004436716,104.052608071464,4.62796204741599));
#1587=CARTESIAN_POINT('Origin',(-10.5000004436716,100.623938868655,2.56780974777577));
#1588=CARTESIAN_POINT('Origin',(10.499999922131,104.052608071464,4.62796204741599));
#1589=CARTESIAN_POINT('',(11.1499909628129,100.623938868655,2.56780974777576));
#1590=CARTESIAN_POINT('Origin',(10.499999922131,100.623938868655,2.56780974777576));
#1591=CARTESIAN_POINT('',(11.1499909628129,104.052608071464,4.62796204741599));
#1592=CARTESIAN_POINT('',(11.1499909628129,104.052608071464,4.62796204741599));
#1593=CARTESIAN_POINT('Origin',(10.499999922131,104.052608071464,4.62796204741599));
#1594=CARTESIAN_POINT('Origin',(10.499999922131,100.623938868655,2.56780974777577));
#1595=CARTESIAN_POINT('Origin',(-10.5000004436716,92.2067279239311,24.3428173273378));
#1596=CARTESIAN_POINT('',(-9.8500094029896,88.7780587211226,22.2826650276976));
#1597=CARTESIAN_POINT('Origin',(-10.5000004436716,88.7780587211226,22.2826650276976));
#1598=CARTESIAN_POINT('',(-9.8500094029896,92.2067279239311,24.3428173273378));
#1599=CARTESIAN_POINT('',(-9.8500094029896,92.2067279239311,24.3428173273378));
#1600=CARTESIAN_POINT('Origin',(-10.5000004436716,92.2067279239311,24.3428173273378));
#1601=CARTESIAN_POINT('Origin',(-10.5000004436716,88.7780587211226,22.2826650276976));
#1602=CARTESIAN_POINT('Origin',(10.499999922131,92.2067279239311,24.3428173273378));
#1603=CARTESIAN_POINT('',(11.1499909628129,88.7780587211226,22.2826650276976));
#1604=CARTESIAN_POINT('Origin',(10.499999922131,88.7780587211226,22.2826650276976));
#1605=CARTESIAN_POINT('',(11.1499909628129,92.2067279239311,24.3428173273378));
#1606=CARTESIAN_POINT('',(11.1499909628129,92.2067279239311,24.3428173273378));
#1607=CARTESIAN_POINT('Origin',(10.499999922131,92.2067279239311,24.3428173273378));
#1608=CARTESIAN_POINT('Origin',(10.499999922131,88.7780587211226,22.2826650276976));
#1609=CARTESIAN_POINT('Origin',(-12.5000002607703,90.1465778365915,27.7714828482596));
#1610=CARTESIAN_POINT('',(12.4999997392297,90.1465778365915,27.7714828482596));
#1611=CARTESIAN_POINT('',(-12.5000002607703,90.1465778365915,27.7714828482596));
#1612=CARTESIAN_POINT('',(-6.25000026077032,90.1465778365915,27.7714828482596));
#1613=CARTESIAN_POINT('',(12.4999997392297,85.860741333081,25.1962924737094));
#1614=CARTESIAN_POINT('',(12.4999997392297,90.1465778365915,27.7714828482596));
#1615=CARTESIAN_POINT('',(-12.5000002607703,85.860741333081,25.1962924737094));
#1616=CARTESIAN_POINT('',(12.4999997392297,85.860741333081,25.1962924737094));
#1617=CARTESIAN_POINT('',(-12.5000002607703,90.1465778365915,27.7714828482596));
#1618=CARTESIAN_POINT('Origin',(-12.5000002607703,91.6916920613217,25.1999809461533));
#1619=CARTESIAN_POINT('',(-15.5000002607703,91.6916920613217,25.1999809461533));
#1620=CARTESIAN_POINT('Origin',(-12.5000002607703,91.6916920613217,25.1999809461533));
#1621=CARTESIAN_POINT('',(-15.5000002607703,87.4058555578111,22.624790571603));
#1622=CARTESIAN_POINT('Origin',(-12.5000002607703,87.4058555578111,22.6247905716031));
#1623=CARTESIAN_POINT('',(-15.5000002607703,91.6916920613217,25.1999809461533));
#1624=CARTESIAN_POINT('Origin',(-15.5000002607703,104.567643934073,3.7707984286005));
#1625=CARTESIAN_POINT('',(-15.5000002607703,104.567643934073,3.7707984286005));
#1626=CARTESIAN_POINT('',(-15.5000002607703,101.348655965885,9.12809405798869));
#1627=CARTESIAN_POINT('',(-15.5000002607703,100.281807430562,1.19560805405024));
#1628=CARTESIAN_POINT('',(-15.5000002607703,87.4058555578111,22.624790571603));
#1629=CARTESIAN_POINT('',(-15.5000002607703,104.567643934073,3.7707984286005));
#1630=CARTESIAN_POINT('Origin',(-12.5000002607703,104.567643934073,3.7707984286005));
#1631=CARTESIAN_POINT('',(-12.5000002607703,106.112758158803,1.19929652649414));
#1632=CARTESIAN_POINT('Origin',(-12.5000002607703,104.567643934073,3.7707984286005));
#1633=CARTESIAN_POINT('',(-12.5000002607703,101.826921655293,-1.37589384805612));
#1634=CARTESIAN_POINT('Origin',(-12.5000002607703,100.281807430562,1.19560805405024));
#1635=CARTESIAN_POINT('',(-12.5000002607703,106.112758158803,1.19929652649414));
#1636=CARTESIAN_POINT('Origin',(12.4999997392297,106.112758158803,1.19929652649414));
#1637=CARTESIAN_POINT('',(12.4999997392297,106.112758158803,1.19929652649414));
#1638=CARTESIAN_POINT('',(6.24999973922968,106.112758158803,1.19929652649414));
#1639=CARTESIAN_POINT('',(12.4999997392297,101.826921655293,-1.37589384805612));
#1640=CARTESIAN_POINT('',(-12.5000002607703,101.826921655293,-1.37589384805612));
#1641=CARTESIAN_POINT('',(12.4999997392297,106.112758158803,1.19929652649414));
#1642=CARTESIAN_POINT('Origin',(12.4999997392297,104.567643934073,3.7707984286005));
#1643=CARTESIAN_POINT('',(15.4999997392297,104.567643934073,3.7707984286005));
#1644=CARTESIAN_POINT('Origin',(12.4999997392297,104.567643934073,3.7707984286005));
#1645=CARTESIAN_POINT('',(15.4999997392297,100.281807430562,1.19560805405024));
#1646=CARTESIAN_POINT('Origin',(12.4999997392297,100.281807430562,1.19560805405024));
#1647=CARTESIAN_POINT('',(15.4999997392297,104.567643934073,3.7707984286005));
#1648=CARTESIAN_POINT('Origin',(15.4999997392297,91.6916920613217,25.1999809461533));
#1649=CARTESIAN_POINT('',(15.4999997392297,91.6916920613217,25.1999809461533));
#1650=CARTESIAN_POINT('',(15.4999997392297,94.9106800295095,19.8426853167651));
#1651=CARTESIAN_POINT('',(15.4999997392297,87.4058555578111,22.6247905716031));
#1652=CARTESIAN_POINT('',(15.4999997392297,100.281807430562,1.19560805405024));
#1653=CARTESIAN_POINT('',(15.4999997392297,91.6916920613217,25.1999809461533));
#1654=CARTESIAN_POINT('Origin',(12.4999997392297,91.6916920613217,25.1999809461533));
#1655=CARTESIAN_POINT('Origin',(12.4999997392297,91.6916920613217,25.1999809461533));
#1656=CARTESIAN_POINT('Origin',(12.4999997392297,87.4058555578111,22.6247905716031));
#1657=CARTESIAN_POINT('Origin',(-2.60770320892334E-7,93.8438314941868,11.9101993128266));
#1658=CARTESIAN_POINT('',(-14.5000002607703,102.856997805113,-3.09022844946032));
#1659=CARTESIAN_POINT('',(14.4999997392297,102.856997805113,-3.09022844946032));
#1660=CARTESIAN_POINT('',(-14.5000002607703,102.856997805113,-3.09022844946032));
#1661=CARTESIAN_POINT('',(17.4999997392297,101.311883580383,-0.518726547353978));
#1662=CARTESIAN_POINT('Origin',(14.4999997392297,101.311883580383,-0.518726547353996));
#1663=CARTESIAN_POINT('',(17.4999997392297,86.375779407991,24.3391251730073));
#1664=CARTESIAN_POINT('',(17.4999997392297,101.311883580383,-0.518726547353978));
#1665=CARTESIAN_POINT('',(14.4999997392297,84.8306651832608,26.9106270751136));
#1666=CARTESIAN_POINT('Origin',(14.4999997392297,86.375779407991,24.3391251730073));
#1667=CARTESIAN_POINT('',(-14.5000002607703,84.8306651832608,26.9106270751136));
#1668=CARTESIAN_POINT('',(14.4999997392297,84.8306651832608,26.9106270751136));
#1669=CARTESIAN_POINT('',(-17.5000002607703,86.375779407991,24.3391251730073));
#1670=CARTESIAN_POINT('Origin',(-14.5000002607703,86.375779407991,24.3391251730073));
#1671=CARTESIAN_POINT('',(-17.5000002607703,101.311883580383,-0.518726547353978));
#1672=CARTESIAN_POINT('',(-17.5000002607703,86.375779407991,24.3391251730073));
#1673=CARTESIAN_POINT('Origin',(-14.5000002607703,101.311883580383,-0.518726547353978));
#1674=CARTESIAN_POINT('Origin',(-12.5000001862645,94.093973379538,23.1435174638223));
#1675=CARTESIAN_POINT('',(-12.5000001862645,94.093973379538,23.1435174638223));
#1676=CARTESIAN_POINT('',(12.5000001862645,94.093973379538,23.1435174638223));
#1677=CARTESIAN_POINT('',(12.5000001862645,94.093973379538,23.1435174638223));
#1678=CARTESIAN_POINT('',(12.5000001862645,93.2368060788359,22.6284793889123));
#1679=CARTESIAN_POINT('',(12.5000001862645,94.093973379538,23.1435174638223));
#1680=CARTESIAN_POINT('',(-12.5000001862645,93.2368060788359,22.6284793889123));
#1681=CARTESIAN_POINT('',(12.5000001862645,93.2368060788359,22.6284793889123));
#1682=CARTESIAN_POINT('',(-12.5000001862645,94.093973379538,23.1435174638223));
#1683=CARTESIAN_POINT('Origin',(-12.5000001862645,101.819544618309,10.2860077616988));
#1684=CARTESIAN_POINT('',(-12.5000001862645,101.819544618309,10.2860077616988));
#1685=CARTESIAN_POINT('',(-12.5000001862645,94.093973379538,23.1435174638223));
#1686=CARTESIAN_POINT('',(-12.5000001862645,100.962377317607,9.77096968678874));
#1687=CARTESIAN_POINT('',(-12.5000001862645,93.2368060788359,22.6284793889123));
#1688=CARTESIAN_POINT('',(-12.5000001862645,101.819544618309,10.2860077616988));
#1689=CARTESIAN_POINT('Origin',(12.5000001862645,101.819544618309,10.2860077616988));
#1690=CARTESIAN_POINT('',(12.5000001862645,101.819544618309,10.2860077616988));
#1691=CARTESIAN_POINT('',(-12.5000001862645,101.819544618309,10.2860077616988));
#1692=CARTESIAN_POINT('',(12.5000001862645,100.962377317607,9.77096968678874));
#1693=CARTESIAN_POINT('',(-12.5000001862645,100.962377317607,9.77096968678874));
#1694=CARTESIAN_POINT('',(12.5000001862645,101.819544618309,10.2860077616988));
#1695=CARTESIAN_POINT('Origin',(12.5000001862645,94.093973379538,23.1435174638223));
#1696=CARTESIAN_POINT('',(12.5000001862645,101.819544618309,10.2860077616988));
#1697=CARTESIAN_POINT('',(12.5000001862645,100.962377317607,9.77096968678874));
#1698=CARTESIAN_POINT('Origin',(-14.5000002607703,108.000001609325,0.));
#1699=CARTESIAN_POINT('',(-14.5000002607703,108.000001609325,0.));
#1700=CARTESIAN_POINT('',(14.4999997392297,108.000001609325,0.));
#1701=CARTESIAN_POINT('',(-14.5000002607703,108.000001609325,0.));
#1702=CARTESIAN_POINT('',(14.4999997392297,108.000001609325,0.));
#1703=CARTESIAN_POINT('',(-14.5000002607703,108.000001609325,0.));
#1704=CARTESIAN_POINT('Origin',(-14.5000002607703,106.454887384595,2.57150190210634));
#1705=CARTESIAN_POINT('',(-17.5000002607703,106.454887384595,2.57150190210634));
#1706=CARTESIAN_POINT('Origin',(-14.5000002607703,106.454887384595,2.57150190210634));
#1707=CARTESIAN_POINT('',(-17.5000002607703,106.454887384595,2.57150190210634));
#1708=CARTESIAN_POINT('Origin',(-17.5000002607703,91.5187832122037,27.4293536224676));
#1709=CARTESIAN_POINT('',(-17.5000002607703,91.5187832122037,27.4293536224676));
#1710=CARTESIAN_POINT('',(-17.5000002607703,91.5187832122037,27.4293536224676));
#1711=CARTESIAN_POINT('',(-17.5000002607703,91.5187832122037,27.4293536224676));
#1712=CARTESIAN_POINT('Origin',(-14.5000002607703,91.5187832122037,27.4293536224676));
#1713=CARTESIAN_POINT('',(-14.5000002607703,89.9736689874735,30.0008555245739));
#1714=CARTESIAN_POINT('Origin',(-14.5000002607703,91.5187832122037,27.4293536224676));
#1715=CARTESIAN_POINT('',(-14.5000002607703,89.9736689874735,30.0008555245739));
#1716=CARTESIAN_POINT('Origin',(14.4999997392297,89.9736689874735,30.0008555245739));
#1717=CARTESIAN_POINT('',(14.4999997392297,89.9736689874735,30.0008555245739));
#1718=CARTESIAN_POINT('',(14.4999997392297,89.9736689874735,30.0008555245739));
#1719=CARTESIAN_POINT('',(14.4999997392297,89.9736689874735,30.0008555245739));
#1720=CARTESIAN_POINT('Origin',(14.4999997392297,91.5187832122037,27.4293536224676));
#1721=CARTESIAN_POINT('',(17.4999997392297,91.5187832122037,27.4293536224676));
#1722=CARTESIAN_POINT('Origin',(14.4999997392297,91.5187832122037,27.4293536224676));
#1723=CARTESIAN_POINT('',(17.4999997392297,91.5187832122037,27.4293536224676));
#1724=CARTESIAN_POINT('Origin',(17.4999997392297,106.454887384595,2.57150190210634));
#1725=CARTESIAN_POINT('',(17.4999997392297,106.454887384595,2.57150190210634));
#1726=CARTESIAN_POINT('',(17.4999997392297,106.454887384595,2.57150190210634));
#1727=CARTESIAN_POINT('',(17.4999997392297,106.454887384595,2.57150190210634));
#1728=CARTESIAN_POINT('Origin',(14.4999997392297,106.454887384595,2.57150190210632));
#1729=CARTESIAN_POINT('Origin',(14.4999997392297,106.454887384595,2.57150190210632));
#1730=CARTESIAN_POINT('Origin',(-2.60770320892334E-7,98.1296679976974,14.4853896873769));
#1731=CARTESIAN_POINT('Origin',(-2.60770320892334E-7,98.9868352983995,15.000427762287));
#1732=CARTESIAN_POINT('Origin',(-11.,82.0880983268458,24.6794105571906));
#1733=CARTESIAN_POINT('',(-11.,81.7478132875003,20.3917297267053));
#1734=CARTESIAN_POINT('',(-11.,78.1425467094073,26.3919009210296));
#1735=CARTESIAN_POINT('',(-11.,78.1425467094073,26.3919009210296));
#1736=CARTESIAN_POINT('',(-11.,83.9734978825587,26.3955890002035));
#1737=CARTESIAN_POINT('',(-11.,83.9734978825587,26.3955890002035));
#1738=CARTESIAN_POINT('',(-11.,86.0336499442843,22.9669201933515));
#1739=CARTESIAN_POINT('',(-11.,88.6088404243612,18.6810835142151));
#1740=CARTESIAN_POINT('',(-11.,81.7478132875003,20.3917297267053));
#1741=CARTESIAN_POINT('Origin',(0.,83.9734978825587,26.3955890002035));
#1742=CARTESIAN_POINT('',(11.,78.1425467094073,26.3919009210296));
#1743=CARTESIAN_POINT('',(0.,78.1425467094073,26.3919009210296));
#1744=CARTESIAN_POINT('',(11.,83.9734978825587,26.3955890002035));
#1745=CARTESIAN_POINT('',(11.,83.9734978825587,26.3955890002035));
#1746=CARTESIAN_POINT('',(14.4999997392297,83.9734978825587,26.3955890002036));
#1747=CARTESIAN_POINT('Origin',(0.,78.1425467094073,26.3919009210296));
#1748=CARTESIAN_POINT('',(11.,81.7478132875003,20.3917297267053));
#1749=CARTESIAN_POINT('',(0.,81.7478132875003,20.3917297267053));
#1750=CARTESIAN_POINT('',(11.,78.1425467094073,26.3919009210296));
#1751=CARTESIAN_POINT('Origin',(11.,82.0880983268458,24.6794105571906));
#1752=CARTESIAN_POINT('',(11.,86.0336499442843,22.9669201933515));
#1753=CARTESIAN_POINT('',(11.,81.7478132875003,20.3917297267053));
#1754=CARTESIAN_POINT('',(11.,88.6088404243612,18.6810835142151));
#1755=CARTESIAN_POINT('Origin',(-2.60770320892334E-7,92.9866641934847,11.3951612379166));
#1756=CARTESIAN_POINT('',(12.4999997392298,86.033650182199,22.9669197973951));
#1757=CARTESIAN_POINT('',(-12.5000002607703,86.0336501821989,22.9669197973951));
#1758=CARTESIAN_POINT('',(13.4999997392297,86.548688257109,22.109752496693));
#1759=CARTESIAN_POINT('Origin',(12.4999997392298,86.548688257109,22.109752496693));
#1760=CARTESIAN_POINT('',(13.4999997392297,99.4246401298604,0.680569979140202));
#1761=CARTESIAN_POINT('',(13.4999997392297,86.548688257109,22.109752496693));
#1762=CARTESIAN_POINT('',(12.4999997392297,99.9396782047704,-0.176597321561935));
#1763=CARTESIAN_POINT('Origin',(12.4999997392296,99.4246401298604,0.680569979140202));
#1764=CARTESIAN_POINT('',(-12.5000002607703,99.9396782047704,-0.176597321561953));
#1765=CARTESIAN_POINT('',(12.4999997392297,99.9396782047704,-0.176597321561935));
#1766=CARTESIAN_POINT('',(-13.5000002607703,99.4246401298604,0.680569979140184));
#1767=CARTESIAN_POINT('Origin',(-12.5000002607703,99.4246401298604,0.680569979140202));
#1768=CARTESIAN_POINT('',(-13.5000002607703,86.548688257109,22.109752496693));
#1769=CARTESIAN_POINT('',(-13.5000002607703,99.4246401298604,0.680569979140184));
#1770=CARTESIAN_POINT('',(-12.5000002607703,86.0336501821989,22.9669197973951));
#1771=CARTESIAN_POINT('Origin',(-12.5000002607703,86.548688257109,22.109752496693));
#1772=CARTESIAN_POINT('',(-12.5000002607703,86.0336501821989,22.9669197973951));
#1773=CARTESIAN_POINT('',(-14.5000002607703,83.9734978825587,26.3955890002035));
#1774=CARTESIAN_POINT('',(14.4999997392297,83.9734978825587,26.3955890002036));
#1775=CARTESIAN_POINT('',(-17.5000002607703,85.5186121072889,23.8240870980972));
#1776=CARTESIAN_POINT('Origin',(-14.5000002607703,85.5186121072889,23.8240870980972));
#1777=CARTESIAN_POINT('',(-17.5000002607703,100.45471627968,-1.03376462226404));
#1778=CARTESIAN_POINT('',(-17.5000002607703,85.5186121072889,23.8240870980972));
#1779=CARTESIAN_POINT('',(-14.5000002607703,101.999830504411,-3.60526652437038));
#1780=CARTESIAN_POINT('Origin',(-14.5000002607703,100.45471627968,-1.03376462226404));
#1781=CARTESIAN_POINT('',(14.4999997392297,101.999830504411,-3.60526652437038));
#1782=CARTESIAN_POINT('',(-14.5000002607703,101.999830504411,-3.60526652437038));
#1783=CARTESIAN_POINT('',(17.4999997392297,100.45471627968,-1.03376462226404));
#1784=CARTESIAN_POINT('Origin',(14.4999997392297,100.45471627968,-1.03376462226406));
#1785=CARTESIAN_POINT('',(17.4999997392297,85.5186121072889,23.8240870980972));
#1786=CARTESIAN_POINT('',(17.4999997392297,100.45471627968,-1.03376462226404));
#1787=CARTESIAN_POINT('',(14.4999997392297,83.9734978825587,26.3955890002036));
#1788=CARTESIAN_POINT('Origin',(14.4999997392297,85.5186121072889,23.8240870980972));
#1789=CARTESIAN_POINT('',(14.4999997392297,83.9734978825587,26.3955890002036));
#1790=CARTESIAN_POINT('Origin',(-2.60770320892334E-7,93.8438314941868,11.9101993128266));
#1791=CARTESIAN_POINT('',(-17.5000002607703,101.311883580383,-0.518726547353978));
#1792=CARTESIAN_POINT('',(-14.5000002607703,102.856997805113,-3.09022844946032));
#1793=CARTESIAN_POINT('Origin',(-14.5000002607703,101.311883580383,-0.518726547353978));
#1794=CARTESIAN_POINT('',(-17.5000002607703,86.375779407991,24.3391251730073));
#1795=CARTESIAN_POINT('',(-17.5000002607703,86.375779407991,24.3391251730073));
#1796=CARTESIAN_POINT('',(-14.5000002607703,84.8306651832608,26.9106270751136));
#1797=CARTESIAN_POINT('Origin',(-14.5000002607703,86.375779407991,24.3391251730073));
#1798=CARTESIAN_POINT('',(14.4999997392297,84.8306651832608,26.9106270751136));
#1799=CARTESIAN_POINT('',(14.4999997392297,84.8306651832608,26.9106270751136));
#1800=CARTESIAN_POINT('',(17.4999997392297,86.375779407991,24.3391251730073));
#1801=CARTESIAN_POINT('Origin',(14.4999997392297,86.375779407991,24.3391251730073));
#1802=CARTESIAN_POINT('',(17.4999997392297,101.311883580383,-0.518726547353978));
#1803=CARTESIAN_POINT('',(17.4999997392297,101.311883580383,-0.518726547353978));
#1804=CARTESIAN_POINT('',(14.4999997392297,102.856997805113,-3.09022844946032));
#1805=CARTESIAN_POINT('Origin',(14.4999997392297,101.311883580383,-0.518726547353996));
#1806=CARTESIAN_POINT('',(-14.5000002607703,102.856997805113,-3.09022844946032));
#1807=CARTESIAN_POINT('',(15.1999997392297,87.4058555578111,22.624790571603));
#1808=CARTESIAN_POINT('',(15.1999997392297,100.281807430562,1.19560805405024));
#1809=CARTESIAN_POINT('',(15.1999997392297,87.4058555578111,22.624790571603));
#1810=CARTESIAN_POINT('',(12.4999997392298,86.015252755554,24.9391422834987));
#1811=CARTESIAN_POINT('Origin',(12.4999997392298,87.4058555578111,22.6247905716031));
#1812=CARTESIAN_POINT('',(-12.5000002607703,86.015252755554,24.9391422834988));
#1813=CARTESIAN_POINT('',(-12.5000002607703,86.015252755554,24.9391422834988));
#1814=CARTESIAN_POINT('',(-15.2000002607703,87.4058555578111,22.624790571603));
#1815=CARTESIAN_POINT('Origin',(-12.5000002607703,87.4058555578111,22.624790571603));
#1816=CARTESIAN_POINT('',(-15.2000002607703,100.281807430562,1.19560805405024));
#1817=CARTESIAN_POINT('',(-15.2000002607703,100.281807430562,1.19560805405024));
#1818=CARTESIAN_POINT('',(-12.5000002607703,101.67241023282,-1.11874365784548));
#1819=CARTESIAN_POINT('Origin',(-12.5000002607703,100.281807430562,1.19560805405026));
#1820=CARTESIAN_POINT('',(12.4999997392297,101.67241023282,-1.11874365784546));
#1821=CARTESIAN_POINT('',(12.4999997392297,101.67241023282,-1.11874365784546));
#1822=CARTESIAN_POINT('Origin',(12.4999997392296,100.281807430562,1.19560805405026));
#1823=CARTESIAN_POINT('Origin',(-17.5000002607703,86.375779407991,24.3391251730073));
#1824=CARTESIAN_POINT('',(-17.5000002607703,101.311883580383,-0.518726547353978));
#1825=CARTESIAN_POINT('',(-17.5000002607703,86.375779407991,24.3391251730073));
#1826=CARTESIAN_POINT('Origin',(-14.5000002607703,86.375779407991,24.3391251730073));
#1827=CARTESIAN_POINT('',(-14.5000002607703,84.8306651832608,26.9106270751136));
#1828=CARTESIAN_POINT('Origin',(14.4999997392297,84.8306651832608,26.9106270751136));
#1829=CARTESIAN_POINT('',(14.4999997392297,84.8306651832608,26.9106270751136));
#1830=CARTESIAN_POINT('Origin',(14.4999997392297,86.375779407991,24.3391251730073));
#1831=CARTESIAN_POINT('',(17.4999997392297,86.375779407991,24.3391251730073));
#1832=CARTESIAN_POINT('Origin',(17.4999997392297,101.311883580383,-0.518726547353978));
#1833=CARTESIAN_POINT('',(17.4999997392297,101.311883580383,-0.518726547353978));
#1834=CARTESIAN_POINT('Origin',(14.4999997392297,101.311883580383,-0.518726547353996));
#1835=CARTESIAN_POINT('',(14.4999997392297,102.856997805113,-3.09022844946032));
#1836=CARTESIAN_POINT('Origin',(-14.5000002607703,102.856997805113,-3.09022844946032));
#1837=CARTESIAN_POINT('',(-14.5000002607703,102.856997805113,-3.09022844946032));
#1838=CARTESIAN_POINT('Origin',(-14.5000002607703,101.311883580383,-0.518726547353978));
#1839=CARTESIAN_POINT('Origin',(-12.5000002607703,100.796845505473,0.338440753348106));
#1840=CARTESIAN_POINT('',(12.4999997392297,102.511180106877,1.36851690316822));
#1841=CARTESIAN_POINT('',(12.4999997392297,100.796845505473,0.338440753348124));
#1842=CARTESIAN_POINT('',(-12.5000002607703,102.511180106877,1.36851690316821));
#1843=CARTESIAN_POINT('',(12.4999997392297,102.511180106877,1.36851690316822));
#1844=CARTESIAN_POINT('',(-12.5000002607703,100.796845505473,0.338440753348106));
#1845=CARTESIAN_POINT('Origin',(-12.5000002607703,100.281807430562,1.19560805405026));
#1846=CARTESIAN_POINT('',(-13.5000002607703,101.996142031967,2.22568420387034));
#1847=CARTESIAN_POINT('Origin',(-12.5000002607703,101.996142031967,2.22568420387036));
#1848=CARTESIAN_POINT('',(-13.5000002607703,100.281807430562,1.19560805405024));
#1849=CARTESIAN_POINT('Origin',(-13.5000002607703,87.4058555578111,22.624790571603));
#1850=CARTESIAN_POINT('',(-13.5000002607703,89.1201901592153,23.6548667214231));
#1851=CARTESIAN_POINT('',(-13.5000002607703,101.996142031967,2.22568420387034));
#1852=CARTESIAN_POINT('',(-13.5000002607703,87.4058555578111,22.624790571603));
#1853=CARTESIAN_POINT('Origin',(-12.5000002607703,87.4058555578111,22.624790571603));
#1854=CARTESIAN_POINT('',(-12.5000002607703,88.6051520843053,24.5120340221253));
#1855=CARTESIAN_POINT('Origin',(-12.5000002607703,89.1201901592153,23.6548667214231));
#1856=CARTESIAN_POINT('',(-12.5000002607703,86.8908174829011,23.4819578723052));
#1857=CARTESIAN_POINT('Origin',(12.4999997392298,86.8908174829011,23.4819578723052));
#1858=CARTESIAN_POINT('',(12.4999997392298,88.6051520843053,24.5120340221253));
#1859=CARTESIAN_POINT('',(-12.5000002607703,88.6051520843053,24.5120340221253));
#1860=CARTESIAN_POINT('',(12.4999997392298,86.8908174829011,23.4819578723052));
#1861=CARTESIAN_POINT('Origin',(12.4999997392298,87.4058555578111,22.6247905716031));
#1862=CARTESIAN_POINT('',(13.4999997392297,89.1201901592153,23.6548667214231));
#1863=CARTESIAN_POINT('Origin',(12.4999997392298,89.1201901592153,23.6548667214232));
#1864=CARTESIAN_POINT('',(13.4999997392297,87.4058555578111,22.624790571603));
#1865=CARTESIAN_POINT('Origin',(13.4999997392297,100.281807430562,1.19560805405026));
#1866=CARTESIAN_POINT('',(13.4999997392297,101.996142031967,2.22568420387036));
#1867=CARTESIAN_POINT('',(13.4999997392297,89.1201901592153,23.6548667214231));
#1868=CARTESIAN_POINT('',(13.4999997392297,100.281807430562,1.19560805405026));
#1869=CARTESIAN_POINT('Origin',(12.4999997392296,100.281807430562,1.19560805405026));
#1870=CARTESIAN_POINT('Origin',(12.4999997392296,101.996142031967,2.22568420387036));
#1871=CARTESIAN_POINT('Origin',(15.1999997392297,87.4058555578111,22.624790571603));
#1872=CARTESIAN_POINT('',(15.1999997392297,101.996142031967,2.22568420387034));
#1873=CARTESIAN_POINT('',(15.1999997392297,100.281807430562,1.19560805405024));
#1874=CARTESIAN_POINT('',(15.1999997392297,89.1201901592153,23.6548667214231));
#1875=CARTESIAN_POINT('',(15.1999997392297,89.1201901592153,23.6548667214231));
#1876=CARTESIAN_POINT('',(15.1999997392297,87.4058555578111,22.624790571603));
#1877=CARTESIAN_POINT('Origin',(12.4999997392298,87.4058555578111,22.6247905716031));
#1878=CARTESIAN_POINT('',(12.4999997392298,87.7295873569582,25.9692184333188));
#1879=CARTESIAN_POINT('Origin',(12.4999997392298,89.1201901592153,23.6548667214232));
#1880=CARTESIAN_POINT('',(12.4999997392298,86.015252755554,24.9391422834987));
#1881=CARTESIAN_POINT('Origin',(-12.5000002607703,86.015252755554,24.9391422834988));
#1882=CARTESIAN_POINT('',(-12.5000002607703,87.7295873569582,25.9692184333189));
#1883=CARTESIAN_POINT('',(-12.5000002607703,87.7295873569582,25.9692184333189));
#1884=CARTESIAN_POINT('',(-12.5000002607703,86.015252755554,24.9391422834988));
#1885=CARTESIAN_POINT('Origin',(-12.5000002607703,87.4058555578111,22.624790571603));
#1886=CARTESIAN_POINT('',(-15.2000002607703,89.1201901592153,23.6548667214231));
#1887=CARTESIAN_POINT('Origin',(-12.5000002607703,89.1201901592153,23.6548667214231));
#1888=CARTESIAN_POINT('',(-15.2000002607703,87.4058555578111,22.624790571603));
#1889=CARTESIAN_POINT('Origin',(-15.2000002607703,100.281807430562,1.19560805405024));
#1890=CARTESIAN_POINT('',(-15.2000002607703,101.996142031967,2.22568420387034));
#1891=CARTESIAN_POINT('',(-15.2000002607703,101.996142031967,2.22568420387034));
#1892=CARTESIAN_POINT('',(-15.2000002607703,100.281807430562,1.19560805405024));
#1893=CARTESIAN_POINT('Origin',(-12.5000002607703,100.281807430562,1.19560805405026));
#1894=CARTESIAN_POINT('',(-12.5000002607703,103.386744834224,-0.0886675080253774));
#1895=CARTESIAN_POINT('Origin',(-12.5000002607703,101.996142031967,2.22568420387036));
#1896=CARTESIAN_POINT('',(-12.5000002607703,101.67241023282,-1.11874365784548));
#1897=CARTESIAN_POINT('Origin',(12.4999997392297,101.67241023282,-1.11874365784546));
#1898=CARTESIAN_POINT('',(12.4999997392297,103.386744834224,-0.0886675080253596));
#1899=CARTESIAN_POINT('',(12.4999997392297,103.386744834224,-0.0886675080253596));
#1900=CARTESIAN_POINT('',(12.4999997392297,101.67241023282,-1.11874365784546));
#1901=CARTESIAN_POINT('Origin',(12.4999997392296,100.281807430562,1.19560805405026));
#1902=CARTESIAN_POINT('Origin',(12.4999997392296,101.996142031967,2.22568420387036));
#1903=CARTESIAN_POINT('Origin',(-2.60770320892334E-7,95.558166095591,12.9402754626467));
#1904=UNCERTAINTY_MEASURE_WITH_UNIT(LENGTH_MEASURE(0.01),#1908,
'DISTANCE_ACCURACY_VALUE',
'Maximum model space distance between geometric entities at asserted c
onnectivities');
#1905=UNCERTAINTY_MEASURE_WITH_UNIT(LENGTH_MEASURE(0.01),#1908,
'DISTANCE_ACCURACY_VALUE',
'Maximum model space distance between geometric entities at asserted c
onnectivities');
#1906=(
GEOMETRIC_REPRESENTATION_CONTEXT(3)
GLOBAL_UNCERTAINTY_ASSIGNED_CONTEXT((#1904))
GLOBAL_UNIT_ASSIGNED_CONTEXT((#1908,#1910,#1911))
REPRESENTATION_CONTEXT('','3D')
);
#1907=(
GEOMETRIC_REPRESENTATION_CONTEXT(3)
GLOBAL_UNCERTAINTY_ASSIGNED_CONTEXT((#1905))
GLOBAL_UNIT_ASSIGNED_CONTEXT((#1908,#1910,#1911))
REPRESENTATION_CONTEXT('','3D')
);
#1908=(
LENGTH_UNIT()
NAMED_UNIT(*)
SI_UNIT(.MILLI.,.METRE.)
);
#1909=(
LENGTH_UNIT()
NAMED_UNIT(*)
SI_UNIT($,.METRE.)
);
#1910=(
NAMED_UNIT(*)
PLANE_ANGLE_UNIT()
SI_UNIT($,.RADIAN.)
);
#1911=(
NAMED_UNIT(*)
SI_UNIT($,.STERADIAN.)
SOLID_ANGLE_UNIT()
);
#1912=SHAPE_DEFINITION_REPRESENTATION(#1913,#1914);
#1913=PRODUCT_DEFINITION_SHAPE('',$,#1916);
#1914=SHAPE_REPRESENTATION('',(#1138),#1906);
#1915=PRODUCT_DEFINITION_CONTEXT('part definition',#1920,'design');
#1916=PRODUCT_DEFINITION('Mono_OLED_Cover','Mono_OLED_Cover v7',#1917,#1915);
#1917=PRODUCT_DEFINITION_FORMATION('',$,#1922);
#1918=PRODUCT_RELATED_PRODUCT_CATEGORY('Mono_OLED_Cover v7',
'Mono_OLED_Cover v7',(#1922));
#1919=APPLICATION_PROTOCOL_DEFINITION('international standard',
'automotive_design',2009,#1920);
#1920=APPLICATION_CONTEXT(
'Core Data for Automotive Mechanical Design Process');
#1921=PRODUCT_CONTEXT('part definition',#1920,'mechanical');
#1922=PRODUCT('Mono_OLED_Cover','Mono_OLED_Cover v7',$,(#1921));
#1923=PRESENTATION_STYLE_ASSIGNMENT((#1924));
#1924=SURFACE_STYLE_USAGE(.BOTH.,#1925);
#1925=SURFACE_SIDE_STYLE('',(#1926));
#1926=SURFACE_STYLE_FILL_AREA(#1927);
#1927=FILL_AREA_STYLE('Steel - Satin',(#1928));
#1928=FILL_AREA_STYLE_COLOUR('Steel - Satin',#1929);
#1929=COLOUR_RGB('Steel - Satin',0.627450980392157,0.627450980392157,0.627450980392157);
ENDSEC;
END-ISO-10303-21;
